<svg width="2204" height="1477" viewBox="0 0 2204 1477" fill="none" xmlns="http://www.w3.org/2000/svg">
<path fill-rule="evenodd" clip-rule="evenodd" d="M175.08 381.67C166.86 651.64 356.02 826.89 651.29 765.36C639.7 473.54 455.1 324.05 175.08 381.67Z" fill="#D3E3F4"/>
<path fill-rule="evenodd" clip-rule="evenodd" d="M194.09 407.049C192.4 405.699 192.12 403.179 193.46 401.459C194.82 399.759 197.35 399.479 199.04 400.839L360.93 529.519L383.12 412.529C383.53 410.389 385.62 408.969 387.76 409.369C389.92 409.779 391.32 411.859 390.9 414.029L367.98 535.099L412.97 570.849C414.13 571.089 415.23 571.889 415.76 573.099L450.26 600.489L494.59 474.629C495.32 472.579 497.58 471.499 499.64 472.219C501.68 472.949 502.82 475.219 502.04 477.289L456.8 605.729L497.21 637.849C497.33 637.929 497.5 638.029 497.62 638.159L538.64 670.779L574.75 579.089C575.56 577.059 577.86 576.059 579.9 576.859C581.92 577.649 582.93 579.949 582.12 581.979L545.15 675.939L653.75 762.259C655.44 763.619 655.72 766.109 654.4 767.819C653.02 769.549 650.51 769.819 648.8 768.469L575.76 710.439L506.76 746.999C504.83 748.029 502.44 747.289 501.43 745.359C500.37 743.439 501.1 741.019 503.04 739.989L569.01 705.029L494.63 645.919L377.36 715.639C375.47 716.759 373.02 716.129 371.9 714.249C370.76 712.369 371.37 709.939 373.26 708.799L487.95 640.639L449.72 610.249L449.6 610.129L411.09 579.539L283.17 634.949C281.2 635.819 278.85 634.889 278 632.879C277.1 630.869 278.04 628.519 280.06 627.659L404.05 573.929L361.3 539.939L361.06 539.779L315.34 503.419L216.53 533.199C214.43 533.839 212.26 532.649 211.6 530.539C210.95 528.449 212.13 526.249 214.23 525.619L307.77 497.399L194.09 407.049Z" fill="white"/>
<path fill-rule="evenodd" clip-rule="evenodd" d="M418.25 47.3594C266.5 270.789 332.12 520.169 614.32 626.629C761.09 374.179 685.48 148.969 418.25 47.3594Z" fill="#C4D1EB"/>
<path fill-rule="evenodd" clip-rule="evenodd" d="M420.73 78.9985C420 76.9285 421.08 74.6385 423.15 73.9485C425.21 73.2285 427.49 74.3185 428.22 76.3785L495.78 271.848L577.24 185.018C578.75 183.418 581.25 183.338 582.88 184.838C584.47 186.338 584.55 188.868 583.04 190.468L498.75 280.339L517.5 334.608C518.38 335.458 518.86 336.719 518.66 338.029L533.07 379.638L637.98 297.218C639.73 295.868 642.23 296.188 643.58 297.888C644.9 299.628 644.62 302.118 642.89 303.458L535.84 387.578L552.67 436.368C552.75 436.528 552.79 436.688 552.83 436.848L570 486.398L649.65 428.378C651.4 427.088 653.9 427.478 655.19 429.248C656.45 431.028 656.09 433.518 654.31 434.798L572.68 494.248L618.01 625.348C618.74 627.418 617.66 629.688 615.55 630.388C613.49 631.098 611.26 630.008 610.52 627.948L580.05 539.798L502.19 533.618C499.99 533.458 498.38 531.548 498.55 529.378C498.71 527.188 500.61 525.568 502.8 525.738L577.22 531.618L546.16 441.818L409.78 437.728C407.6 437.668 405.87 435.828 405.95 433.638C406.03 431.428 407.84 429.708 410.02 429.768L543.41 433.779L527.41 387.618L527.37 387.438L511.29 340.978L373.62 319.138C371.48 318.788 369.98 316.748 370.34 314.578C370.67 312.428 372.68 310.939 374.88 311.279L508.33 332.478L490.48 280.828L490.4 280.568L471.29 225.338L371.97 197.478C369.85 196.908 368.61 194.708 369.2 192.628C369.77 190.518 371.97 189.278 374.11 189.868L468.18 216.248L420.73 78.9985Z" fill="white"/>
<path fill-rule="evenodd" clip-rule="evenodd" d="M318.93 1386.22C494.7 1386.22 637.22 1406.49 637.22 1431.49C637.22 1456.49 494.71 1476.72 318.93 1476.72C143.12 1476.72 0.580078 1456.49 0.580078 1431.49C0.580078 1406.49 143.12 1386.22 318.93 1386.22Z" fill="#C4D1EB"/>
<path fill-rule="evenodd" clip-rule="evenodd" d="M1884.73 1386.22C2060.54 1386.22 2203.02 1406.49 2203.02 1431.49C2203.02 1456.49 2060.55 1476.72 1884.73 1476.72C1708.92 1476.72 1566.44 1456.49 1566.44 1431.49C1566.44 1406.49 1708.92 1386.22 1884.73 1386.22Z" fill="#C4D1EB"/>
<path fill-rule="evenodd" clip-rule="evenodd" d="M1847.69 897.129C1859.88 893.299 1860.05 895.519 1861.57 894.949C1863.4 894.339 1879.3 873.719 1879.3 873.719C1879.3 873.719 1926.61 813.279 1929.03 809.939L1948.14 732.419L1988.91 731.389C1988.91 731.389 1965.87 815.099 1963.93 819.279C1961.98 823.369 1888.61 897.509 1882.34 904.289C1882.34 904.289 1877.84 915.119 1874.81 921.859C1871.74 928.539 1865.89 933.499 1864.71 935.249C1864.55 935.489 1860.37 941.129 1853.45 946.609C1847.46 951.409 1850.95 944.129 1850.95 944.129C1850.95 944.129 1860.5 933.279 1859.5 932.689C1858.77 932.199 1853.9 938.429 1847.35 943.759C1845.64 945.119 1843.99 946.449 1842.44 947.669C1838.39 950.889 1835.23 949.299 1838.92 945.209C1840.26 943.759 1842.48 941.479 1844.31 940.059C1846.28 938.489 1847.63 936.439 1849.09 934.889C1851.96 931.839 1854.1 929.559 1853.93 929.539C1853.69 929.499 1853.81 928.459 1852 929.869C1849.76 931.559 1845.87 936.159 1842.43 938.399C1840.5 939.659 1836.57 942.529 1836.57 942.529C1836.57 942.529 1829.69 946.499 1829.4 946.129C1827.65 944.339 1831.74 940.059 1834.61 938.739C1835.99 936.889 1840.21 934.019 1840.21 934.019C1840.21 934.019 1847.38 926.179 1846.32 925.129C1845.44 924.229 1824.62 939.579 1823.01 937.669C1821.67 936.079 1827.69 931.159 1827.69 931.159C1827.69 931.159 1831.62 928.509 1832.84 927.499C1834.26 926.339 1838.3 922.489 1838.3 922.489C1838.3 922.489 1851.72 908.589 1850.62 907.629C1849.52 906.689 1845.71 905.549 1844.64 906.119C1843.46 906.689 1841.97 908.869 1840.83 909.379C1839.73 909.949 1837.76 909.709 1836.94 908.379C1836.13 907.019 1840.54 902.129 1840.54 902.129C1840.54 902.129 1844.12 898.209 1847.69 897.129Z" fill="#F9AF79"/>
<path fill-rule="evenodd" clip-rule="evenodd" d="M519.2 897.419C504.14 896.729 504.63 899.268 502.69 899.068C500.41 898.948 476.13 880.469 476.13 880.469C476.13 880.469 404.17 826.439 400.41 823.389L355.55 741.979L308.75 752.799C308.75 752.799 359.97 840.049 363.41 844.139C366.85 848.189 472.66 909.909 481.8 915.669C481.8 915.669 490.15 926.519 495.6 933.159C501.12 939.799 509.26 943.659 511.11 945.289C511.35 945.489 517.79 950.619 527.35 954.729C535.61 958.349 529.45 951.229 529.45 951.229C529.45 951.229 515.32 941.809 516.3 940.849C516.99 940.079 524.4 945.649 533.46 949.729C535.82 950.789 538.08 951.769 540.22 952.659C545.82 955.099 548.89 952.399 543.48 948.909C541.53 947.689 538.29 945.748 535.83 944.698C533.06 943.498 530.96 941.569 528.81 940.279C524.62 937.669 521.48 935.759 521.69 935.679C521.97 935.559 521.49 934.439 524.01 935.479C527.04 936.699 532.82 940.749 537.45 942.259C540.08 943.089 545.39 945.169 545.39 945.169C545.39 945.169 554.39 947.609 554.67 947.129C556.07 944.589 550.13 940.999 546.49 940.369C544.33 938.679 538.71 936.659 538.71 936.659C538.71 936.659 528.19 929.979 529.06 928.479C529.79 927.239 558.15 938.349 559.39 935.729C560.45 933.549 552.06 929.809 552.06 929.809C552.06 929.809 546.85 927.958 545.14 927.198C543.17 926.298 537.4 923.169 537.4 923.169C537.4 923.169 517.96 911.489 518.98 910.119C519.96 908.759 523.89 906.329 525.33 906.659C526.84 906.989 529.18 908.959 530.64 909.179C532.11 909.509 534.24 908.668 534.81 906.938C535.3 905.128 528.81 900.979 528.81 900.979C528.81 900.979 523.53 897.619 519.2 897.419Z" fill="#F9AF79"/>
<path fill-rule="evenodd" clip-rule="evenodd" d="M373.349 764.688L325.209 791.468C325.209 791.468 304.649 751.248 295.899 731.548C285.289 707.678 274.569 676.158 277.719 675.568C286.679 673.928 298.729 673.648 309.189 679.718C345.339 700.888 373.349 764.688 373.349 764.688Z" fill="#466FB5"/>
<path fill-rule="evenodd" clip-rule="evenodd" d="M99.03 1358.78C99.03 1358.78 88.95 1368.59 88.71 1372.21C88.47 1375.83 87.81 1414.55 91.95 1418.17C96.08 1421.77 108.19 1424.38 104.31 1428.43C101.34 1431.48 78.68 1430.83 63.66 1430.02C59.28 1429.74 53.77 1394.87 52.04 1389.72C49.52 1382.27 40.46 1366.01 42.72 1360.9C43.86 1358.33 52.17 1352.55 59.7 1347.71C67.58 1342.56 75.19 1331.22 75.19 1331.22L99.03 1358.78Z" fill="#F9AF79"/>
<path fill-rule="evenodd" clip-rule="evenodd" d="M234.31 1382.93L225.23 1408.54C224.58 1412.61 221.91 1422.59 221.91 1426.29C221.91 1440.09 284.3 1414.57 270.34 1408.42C269.08 1407.85 265.07 1403.43 264.68 1398.71C264.03 1391.48 269.93 1382.45 269.93 1382.45L234.31 1382.93Z" fill="#F9AF79"/>
<path fill-rule="evenodd" clip-rule="evenodd" d="M320.381 898.5L342.981 956.11C342.981 956.11 357.721 1093.55 349.151 1175.81C345.551 1210.25 267.891 1394.45 267.891 1394.45L229.291 1388.99L280.951 1170.9L261.961 1087.48L235.031 922.52L320.381 898.5Z" fill="#0E2952"/>
<path fill-rule="evenodd" clip-rule="evenodd" d="M213.98 901.488L194.62 965.588L165.19 1159.18L65.5098 1340.27C65.5098 1340.27 80.4897 1362.99 96.6097 1366.53L238.04 1183.49L314.68 954.358L312.01 903.428L213.98 901.488Z" fill="#223F81"/>
<path fill-rule="evenodd" clip-rule="evenodd" d="M60.1505 1347.43C60.1505 1347.43 81.4605 1411.67 90.5605 1414.85C93.0005 1415.66 106.601 1419.04 108.821 1424.17L108.941 1424.68C109.671 1427.94 106.881 1430.89 103.531 1430.89H60.2305C60.2305 1430.89 54.0805 1402.05 51.6605 1389.36C51.6605 1389.36 38.8205 1358.34 40.2405 1355.57C41.6405 1352.76 60.1505 1347.43 60.1505 1347.43Z" fill="#0E2952"/>
<path fill-rule="evenodd" clip-rule="evenodd" d="M218.4 1430.84L225.52 1408.25C225.52 1408.25 240.5 1414.62 248.03 1413.54C255.52 1412.52 270.18 1408.25 270.18 1408.25C300.1 1418.1 324.63 1422.87 320.19 1430.84H218.4Z" fill="#0E2952"/>
<path fill-rule="evenodd" clip-rule="evenodd" d="M221.02 666.29C163.05 674.19 153.13 721.92 169.72 772.49C185.27 819.76 203.61 879.73 202.35 895.97C200.17 923.9 194.09 965.26 194.09 965.26C194.09 965.26 302.85 972.08 343.75 956.16C343.75 956.16 330.07 892.79 330.07 876.22C330.07 859.59 322.82 693.54 317.67 684.87C312.5 676.19 302.08 671.26 282.37 667C262.61 662.73 221.02 666.29 221.02 666.29Z" fill="#6D96CE"/>
<path fill-rule="evenodd" clip-rule="evenodd" d="M228.96 621.488L221.75 667.928C221.75 667.928 248.07 723.278 263.78 718.498C276.93 714.448 268.83 665.548 268.83 665.548C268.83 665.548 261.62 639.198 263.78 626.038C265.97 612.968 228.96 621.488 228.96 621.488Z" fill="#F9AF79"/>
<path fill-rule="evenodd" clip-rule="evenodd" d="M263.79 626.049C265.97 612.969 228.96 621.489 228.96 621.489L228.35 625.339C229.45 627.939 230.75 630.169 232.36 631.859C240.62 640.519 253.57 645.799 264.73 646.169C263.63 639.089 262.89 631.499 263.79 626.049Z" fill="#F48661"/>
<path fill-rule="evenodd" clip-rule="evenodd" d="M222.89 555.79C221.83 555.43 214.5 608.7 228.39 623.37C242.33 637.99 269.45 642.83 279.22 631.25C284.02 625.56 293.63 609.55 286.87 591.48C280.01 573.18 279.77 554.47 267.8 546.1C246.12 531.06 222.89 555.79 222.89 555.79Z" fill="#F9AF79"/>
<path fill-rule="evenodd" clip-rule="evenodd" d="M266.659 500.988C246.409 541.968 224.459 536.148 220.489 540.408C188.509 544.068 168.739 596.828 201.109 621.198C216.359 632.778 226.249 638.858 226.249 638.858L228.669 631.858C230.459 626.628 231.169 621.058 230.619 615.548C230.249 612.308 229.519 608.748 228.099 605.798C224.459 598.128 235.999 592.978 239.279 586.538C241.759 581.618 241.889 570.268 245.809 562.158L250.489 555.858C250.489 555.858 261.299 547.628 271.919 550.018C282.539 552.328 289.659 525.508 266.659 500.988Z" fill="#20386F"/>
<path fill-rule="evenodd" clip-rule="evenodd" d="M238.549 596.05C238.669 602.54 235.639 607.89 231.789 607.89C227.939 607.97 224.749 602.77 224.669 596.26C224.549 589.76 227.559 584.47 231.429 584.39C235.229 584.3 238.449 589.52 238.549 596.05Z" fill="#F9AF79"/>
<path fill-rule="evenodd" clip-rule="evenodd" d="M1154.65 90.6992H710.16C667.31 90.6992 632.34 125.689 632.34 168.549V302.889C625.22 302.889 619.41 308.699 619.41 315.789V425.139C619.41 432.239 625.21 438.059 632.34 438.059V1131.88C632.34 1174.73 667.31 1209.72 710.16 1209.72H1154.65C1197.5 1209.72 1232.47 1174.73 1232.47 1131.88V543.529C1232.84 543.569 1233.2 543.589 1233.57 543.589C1240.69 543.589 1246.5 537.779 1246.5 530.669V421.349C1246.5 414.249 1240.7 408.429 1233.57 408.429C1233.2 408.429 1232.84 408.449 1232.47 408.489V371.279C1232.84 371.299 1233.2 371.319 1233.57 371.319C1240.69 371.319 1246.5 365.529 1246.5 358.419V249.079C1246.5 241.999 1240.7 236.179 1233.57 236.179C1233.2 236.179 1232.84 236.199 1232.47 236.219V168.549C1232.47 125.689 1197.5 90.6992 1154.65 90.6992Z" fill="#9DB2D9"/>
<path fill-rule="evenodd" clip-rule="evenodd" d="M1154.65 111.469H710.161C678.771 111.469 653.061 137.139 653.061 168.549V1131.88C653.061 1163.29 678.771 1188.98 710.161 1188.98H1154.65C1186.04 1188.98 1211.71 1163.29 1211.71 1131.88V168.549C1211.71 137.139 1186.04 111.469 1154.65 111.469Z" fill="white"/>
<path fill-rule="evenodd" clip-rule="evenodd" d="M1154.65 134.879C1008.84 134.879 855.93 134.879 710.16 134.879C691.66 134.879 676.51 150.049 676.51 168.549V1131.88C676.51 1150.4 691.66 1165.57 710.16 1165.57H1154.65C1173.15 1165.57 1188.3 1150.4 1188.3 1131.88V168.549C1188.3 150.049 1173.15 134.879 1154.65 134.879Z" fill="#C4D1EB"/>
<path fill-rule="evenodd" clip-rule="evenodd" d="M392.13 1276.63L364.2 791.099C363.26 775.019 375.7 761.089 391.8 760.159L670.7 744.119C686.82 743.189 700.75 755.619 701.68 771.719L729.57 1257.23C730.51 1273.33 718.09 1287.25 702.01 1288.19L423.07 1304.23C406.99 1305.17 393.07 1292.75 392.13 1276.63Z" fill="#D0A382"/>
<path fill-rule="evenodd" clip-rule="evenodd" d="M600.821 1245.71L596.731 1174.28C596.491 1170.25 599.601 1166.75 603.611 1166.54L622.561 1165.44C626.571 1165.22 630.051 1168.31 630.301 1172.34L634.391 1243.79C634.631 1247.8 631.521 1251.3 627.511 1251.5L608.561 1252.6C604.551 1252.85 601.071 1249.74 600.821 1245.71ZM579.211 869.349L575.121 797.899C574.881 793.869 577.951 790.409 582.001 790.159L600.951 789.079C604.961 788.839 608.441 791.949 608.641 795.959L612.771 867.43C613.011 871.44 609.901 874.94 605.891 875.17L586.941 876.269C582.931 876.469 579.451 873.379 579.211 869.349ZM586.411 994.819L582.281 923.369C582.081 919.319 585.191 915.859 589.201 915.629L608.151 914.529C612.161 914.289 615.641 917.379 615.891 921.41L619.981 992.879C620.221 996.909 617.111 1000.37 613.101 1000.59L594.151 1001.71C590.141 1001.94 586.661 998.849 586.411 994.819ZM593.621 1120.27L589.531 1048.8C589.291 1044.79 592.361 1041.29 596.411 1041.06L615.361 1039.96C619.371 1039.76 622.851 1042.85 623.101 1046.88L627.191 1118.33C627.431 1122.36 624.321 1125.82 620.311 1126.06L601.361 1127.14C597.341 1127.4 593.861 1124.28 593.621 1120.27Z" fill="white"/>
<path fill-rule="evenodd" clip-rule="evenodd" d="M672.05 1244.3L658.21 1003.57C658.05 1001.03 660.02 998.81 662.57 998.69L676.55 997.88C679.09 997.74 681.33 999.71 681.44 1002.24L695.3 1243C695.46 1245.52 693.47 1247.72 690.92 1247.89L676.96 1248.7C674.39 1248.82 672.17 1246.87 672.05 1244.3Z" fill="#EAC5A7"/>
<path fill-rule="evenodd" clip-rule="evenodd" d="M655.28 953.049L649.579 853.839C649.459 851.319 651.409 849.119 653.959 848.969L667.969 848.159C670.509 848.019 672.71 849.969 672.88 852.519L678.54 951.709C678.7 954.229 676.769 956.449 674.199 956.599L660.199 957.409C657.639 957.529 655.44 955.569 655.28 953.049Z" fill="white"/>
<path fill-rule="evenodd" clip-rule="evenodd" d="M414.12 964.529L405.14 807.869C404.9 803.859 406.79 800.439 409.35 800.299L423.31 799.489C425.85 799.349 428.13 802.539 428.38 806.529L437.36 963.209C437.6 967.219 435.71 970.619 433.15 970.779L419.19 971.569C416.64 971.709 414.36 968.559 414.12 964.529Z" fill="white"/>
<path fill-rule="evenodd" clip-rule="evenodd" d="M467.45 1254.68L462.63 1171.18C462.43 1167.86 464.99 1164.99 468.31 1164.81L536.32 1160.9C539.66 1160.7 542.53 1163.28 542.69 1166.58L547.49 1250.08C547.69 1253.4 545.11 1256.27 541.79 1256.43L473.8 1260.38C470.48 1260.55 467.61 1258 467.45 1254.68Z" fill="#EAC5A7"/>
<path fill-rule="evenodd" clip-rule="evenodd" d="M813.69 612.399C806.61 602.039 809.27 587.899 819.63 580.839C830.01 573.779 844.14 576.439 851.18 586.789L917.99 684.529L1103.39 497.269C1112.22 488.379 1126.6 488.359 1135.45 497.189C1144.37 506.029 1144.41 520.409 1135.57 529.299L931.5 735.349C930.34 736.619 929.04 737.799 927.53 738.789C917.17 745.849 903.04 743.209 895.96 732.839L813.69 612.399Z" fill="white"/>
<path fill-rule="evenodd" clip-rule="evenodd" d="M1086.35 634.729C1086.35 625.299 1094 617.659 1103.43 617.659C1112.83 617.659 1120.47 625.289 1120.47 634.729C1120.47 686.269 1099.58 732.939 1065.81 766.729C1032 800.519 985.359 821.429 933.779 821.429C882.239 821.429 835.579 800.519 801.769 766.729C767.999 732.939 747.109 686.269 747.109 634.729C747.109 583.189 767.999 536.499 801.769 502.709C835.579 468.939 882.239 448.039 933.779 448.039C952.569 448.039 970.829 450.879 988.189 456.159C1006.04 461.579 1022.73 469.609 1037.84 479.739C1045.66 484.959 1047.71 495.559 1042.48 503.349C1037.27 511.159 1026.7 513.239 1018.89 508.019C1006.49 499.659 992.849 493.119 978.319 488.679C964.379 484.459 949.429 482.169 933.779 482.169C891.659 482.169 853.519 499.239 825.909 526.849C798.329 554.439 781.249 592.589 781.249 634.719C781.249 676.849 798.329 714.969 825.909 742.589C853.509 770.179 891.659 787.259 933.779 787.259C975.919 787.259 1014.06 770.179 1041.65 742.589C1069.25 714.989 1086.35 676.859 1086.35 634.729Z" fill="white"/>
<path fill-rule="evenodd" clip-rule="evenodd" d="M1797.16 148.83L1909.83 195.02L1878.91 234.56L1797.16 148.83Z" fill="#C4D1EB"/>
<path fill-rule="evenodd" clip-rule="evenodd" d="M1925.75 176.418L1800.6 149.068L1956.41 160.468L1925.75 176.418Z" fill="#C4D1EB"/>
<path fill-rule="evenodd" clip-rule="evenodd" d="M1925.75 176.42L1922.8 228.31L1909.83 195.02L1797.16 148.83L1800.6 149.07L1925.75 176.42Z" fill="#9DB2D9"/>
<path fill-rule="evenodd" clip-rule="evenodd" d="M1922.8 228.31L1896.15 212.54L1909.83 195.02L1922.8 228.31Z" fill="#859AC6"/>
<path fill-rule="evenodd" clip-rule="evenodd" d="M1943.24 203.369C1940.61 203.019 1940 207.139 1942.79 207.499L1946.88 207.979C1949.57 208.309 1950.12 204.189 1947.37 203.859L1943.24 203.369ZM2178.33 469.589C2180.83 468.179 2179.02 464.789 2176.56 465.839C2175.34 466.399 2174.12 466.969 2172.85 467.519C2170.35 468.609 2171.97 472.439 2174.48 471.349L2178.33 469.589ZM2162.49 475.659C2165.01 475.039 2164.2 470.969 2161.37 471.679C2160.07 472.039 2158.76 472.359 2157.44 472.709C2154.71 473.379 2155.81 477.389 2158.4 476.739C2159.79 476.409 2161.13 476.049 2162.49 475.659ZM2145.74 478.679C2148.45 478.329 2148.24 474.529 2145.5 474.529C2144.12 474.629 2142.79 474.689 2141.45 474.689C2138.74 474.689 2138.7 478.859 2141.45 478.859C2142.87 478.789 2144.31 478.789 2145.74 478.679ZM2128.64 477.789C2131.41 478.139 2132.14 474.369 2129.41 473.709C2128.09 473.489 2126.78 473.179 2125.48 472.859C2122.81 472.189 2121.8 476.239 2124.48 476.889C2125.85 477.249 2127.28 477.539 2128.64 477.789ZM2112.38 472.439C2114.48 473.659 2116.88 470.229 2114.23 468.709C2113.03 468.129 2111.85 467.479 2110.67 466.809C2108.25 465.439 2106.25 469.079 2108.57 470.389C2109.83 471.129 2111.07 471.819 2112.38 472.439ZM2098.17 462.829C2100.43 464.709 2102.89 461.369 2100.96 459.739C2099.98 458.899 2098.92 457.919 2098.05 456.969C2096.06 454.989 2093.18 457.979 2095.08 459.879C2096.09 460.859 2097.11 461.859 2098.17 462.829ZM2086.99 449.929C2088.48 452.059 2091.83 450.109 2090.43 447.589C2089.66 446.469 2088.92 445.359 2088.23 444.179C2086.95 441.899 2083.26 443.839 2084.67 446.329C2085.4 447.549 2086.18 448.739 2086.99 449.929ZM2079.01 434.849C2079.95 437.319 2083.86 435.969 2082.9 433.309C2082.37 432.059 2081.92 430.789 2081.43 429.499C2080.45 426.809 2076.61 428.429 2077.54 430.859C2077.99 432.199 2078.48 433.529 2079.01 434.849ZM2073.94 418.709C2074.63 421.409 2078.64 420.349 2077.99 417.719L2077.05 413.709C2076.32 410.929 2072.37 412.089 2073 414.619L2073.94 418.709ZM2070.5 402.319C2070.83 404.749 2075 404.589 2074.59 401.569L2073.86 397.509C2073.57 395.039 2069.4 395.239 2069.77 398.229L2070.5 402.319ZM2067.59 385.959C2067.92 388.379 2072.09 388.209 2071.68 385.189L2070.91 381.099C2070.26 378.469 2066.49 379.049 2066.82 381.889L2067.59 385.959ZM2064.23 369.779C2064.92 372.459 2068.91 371.449 2068.28 368.789C2067.95 367.439 2067.59 366.049 2067.22 364.699C2066.57 362.199 2062.52 363.039 2063.21 365.819C2063.62 367.069 2063.95 368.529 2064.23 369.779ZM2060.1 355.119C2061.55 356.219 2064.07 354.789 2063.26 352.659C2062.89 351.759 2062.53 350.919 2062.16 350.019C2062.32 349.009 2061.67 348.179 2060.88 347.849C2059.41 346.899 2057.07 348.179 2057.72 350.219C2057.39 351.109 2057.07 351.999 2056.7 352.879C2055.85 355.139 2058.68 356.589 2060.1 355.119ZM2051.76 340.079C2053.63 342.269 2056.67 339.759 2055.12 337.599C2054.27 336.439 2053.35 335.289 2052.41 334.239C2050.74 332.209 2047.42 334.759 2049.3 336.969C2050.15 337.959 2050.98 339.009 2051.76 340.079ZM2040.38 329.109C2043.01 330.609 2044.76 326.849 2042.66 325.629C2041.44 324.829 2040.22 324.109 2038.94 323.399C2036.66 322.109 2034.48 325.629 2036.99 327.059C2038.16 327.689 2039.24 328.389 2040.38 329.109ZM2025.84 322.659C2028.59 323.339 2029.48 319.279 2026.9 318.629C2025.52 318.259 2024.13 317.939 2022.73 317.629C2020.35 317.029 2019.05 320.979 2021.92 321.699C2023.26 321.979 2024.54 322.289 2025.84 322.659ZM2009.84 320.099C2012.28 320.389 2013.14 316.309 2010.13 315.949C2008.72 315.849 2007.3 315.769 2005.88 315.729C2003.01 315.729 2003.17 319.879 2005.76 319.879C2007.14 319.939 2008.48 319.999 2009.84 320.099ZM1993.66 320.429C1996.33 320.079 1995.88 315.929 1993.09 316.299C1991.67 316.459 1990.3 316.709 1988.88 316.969C1986.25 317.609 1986.87 321.399 1989.69 321.039C1990.97 320.789 1992.32 320.589 1993.66 320.429ZM1978.23 324.579C1980.65 323.539 1979.17 319.649 1976.52 320.769C1975.2 321.389 1973.94 322.059 1972.63 322.769C1970.29 324.079 1972.3 327.729 1974.75 326.349L1972.63 322.769L1974.75 326.349C1975.89 325.709 1977.05 325.119 1978.23 324.579ZM1965.59 333.729C1967.42 331.579 1964.19 328.989 1962.48 331.009C1961.5 332.109 1960.59 333.339 1959.77 334.529C1958.26 337.189 1962.03 338.929 1963.25 336.819C1963.98 335.749 1964.73 334.699 1965.59 333.729ZM1958.83 347.509C1959.16 344.739 1955.39 344.089 1954.74 346.749C1954.45 348.209 1954.25 349.639 1954.17 351.139C1954.17 353.899 1957.98 354.139 1958.3 351.379C1958.38 350.059 1958.55 348.789 1958.83 347.509ZM1959.69 362.939C1959.08 360.569 1954.99 361.239 1955.72 364.189C1956.17 365.619 1956.66 366.949 1957.21 368.299C1958.27 370.789 1962.12 369.179 1961.04 366.639C1960.54 365.409 1960.09 364.209 1959.69 362.939ZM1967.38 376.569C1965.71 374.589 1962.39 377.099 1964.27 379.319C1965.19 380.419 1966.2 381.489 1967.3 382.459C1969.44 384.259 1972.02 381.339 1970.09 379.419C1969.15 378.529 1968.24 377.559 1967.38 376.569ZM1979.76 386.359C1977.5 385.069 1975.32 388.609 1977.79 390.029C1979.09 390.709 1980.37 391.359 1981.68 391.929C1984.27 393.039 1985.85 389.169 1983.39 388.139C1982.16 387.579 1980.94 386.989 1979.76 386.359ZM1994.74 391.979C1992.28 391.369 1991.02 395.339 1993.91 396.039C1995.31 396.349 1996.7 396.629 1998.16 396.829C2000.91 397.179 2001.36 393.039 1998.67 392.699C1997.34 392.479 1996.08 392.249 1994.74 391.979ZM2010.62 393.009C2007.79 393.359 2008.44 397.489 2011.07 397.139C2012.49 397.019 2013.98 396.769 2015.36 396.489C2018.23 395.779 2016.97 391.819 2014.55 392.419C2013.28 392.679 2011.92 392.899 2010.62 393.009ZM2025.84 388.669C2023.42 390.079 2025.15 393.489 2027.67 392.419C2028.95 391.819 2030.25 391.109 2031.5 390.369C2033.78 389.059 2031.83 385.389 2029.36 386.809C2028.22 387.479 2027.02 388.129 2025.84 388.669ZM2038.95 379.619C2036.94 381.669 2039.97 384.479 2041.84 382.639C2042.86 381.679 2043.9 380.659 2044.87 379.619C2046.76 377.309 2043.41 374.889 2041.8 376.809C2040.91 377.779 2039.93 378.739 2038.95 379.619ZM2049.29 367.279C2047.78 369.889 2051.55 371.669 2052.77 369.549C2053.54 368.349 2054.26 367.139 2054.99 365.909C2056.37 363.499 2052.73 361.469 2051.39 363.819C2050.74 364.989 2050.03 366.139 2049.29 367.279ZM2061.34 337.329C2060.75 339.739 2064.72 341.029 2065.43 338.129C2065.72 336.739 2065.96 335.339 2066.2 333.949C2066.57 331.089 2062.39 330.739 2062.07 333.339C2061.83 334.659 2061.63 335.999 2061.34 337.329ZM2063.34 321.179C2063.34 324.089 2067.51 323.889 2067.51 321.309C2067.55 319.889 2067.59 318.499 2067.59 317.089C2067.59 314.349 2063.42 314.329 2063.42 317.089C2063.42 318.459 2063.38 319.819 2063.34 321.179ZM2062.69 304.889C2063.06 307.609 2067.19 307.099 2066.82 304.389C2066.66 302.969 2066.45 301.549 2066.25 300.179C2065.92 297.689 2061.75 297.909 2062.12 300.879C2062.4 302.149 2062.52 303.599 2062.69 304.889ZM2059.45 288.949C2060.06 291.399 2064.19 290.649 2063.46 287.779C2063.05 286.419 2062.65 285.079 2062.2 283.749C2061.2 280.989 2057.36 282.649 2058.27 285.059C2058.68 286.349 2059.08 287.629 2059.45 288.949ZM2053.71 273.759C2055.2 276.419 2058.64 274.019 2057.44 271.919C2056.83 270.649 2056.18 269.389 2055.53 268.129C2054.11 265.639 2050.54 267.839 2051.85 270.109C2052.49 271.309 2053.1 272.529 2053.71 273.759ZM2045.49 259.689C2047.06 261.909 2050.46 259.509 2048.89 257.279C2048.08 256.129 2047.22 254.989 2046.39 253.859C2044.52 251.609 2041.44 254.439 2043.09 256.399C2043.9 257.489 2044.71 258.569 2045.49 259.689ZM2035.12 247.129C2037.05 249.109 2039.96 246.139 2038.07 244.219C2037.09 243.219 2036.08 242.239 2035.04 241.269C2033.21 239.429 2030.17 242.239 2032.19 244.279C2033.17 245.209 2034.15 246.169 2035.12 247.129ZM2022.89 236.349C2024.78 237.929 2027.71 234.959 2025.39 233.029C2024.25 232.149 2023.13 231.329 2021.95 230.519C2019.81 228.959 2017.33 232.299 2019.61 233.939C2020.69 234.709 2021.79 235.519 2022.89 236.349ZM2009.23 227.359C2011.59 228.709 2013.69 225.109 2011.27 223.739C2010.05 223.049 2008.81 222.369 2007.55 221.709C2005.41 220.479 2003.09 223.939 2005.7 225.419C2006.85 226.029 2008.07 226.709 2009.23 227.359ZM1994.54 220.189C1996.98 221.219 1998.67 217.429 1996.13 216.339C1994.83 215.789 1993.5 215.259 1992.2 214.759C1989.66 213.799 1988.15 217.689 1990.75 218.649C1991.99 219.139 1993.29 219.659 1994.54 220.189ZM1979.08 214.669C1981.95 215.369 1982.72 211.309 1980.24 210.679L1976.19 209.529C1973.44 208.839 1972.55 212.909 1975.11 213.529L1979.08 214.669ZM1963.13 210.659C1965.55 211.269 1966.85 207.299 1963.98 206.589C1962.6 206.279 1961.21 206.039 1959.85 205.789C1956.82 205.399 1956.65 209.579 1959.08 209.869C1960.46 210.129 1961.78 210.369 1963.13 210.659Z" fill="#859AC6"/>
<path fill-rule="evenodd" clip-rule="evenodd" d="M1823.99 1044.12H1821V486.42H1809.01H1823.99C1833.44 486.42 1841.09 494.05 1841.09 503.51V1027.05C1841.09 1036.47 1833.44 1044.12 1823.99 1044.12Z" fill="#53A4B1"/>
<path d="M1821 486.42H1809.01V1044.12H1821V486.42Z" fill="#53A4B1"/>
<path fill-rule="evenodd" clip-rule="evenodd" d="M1720.67 1175.64H1452.22C1438.99 1163.98 1426.14 1151.76 1413.89 1139.1H1447.42C1453.65 1139.1 1458.7 1134.05 1458.7 1127.84V1086.7C1458.7 1080.47 1453.65 1075.42 1447.42 1075.42H1387.29C1381.04 1075.42 1376.03 1080.47 1376.03 1086.7V1096.67C1361.5 1078.96 1347.88 1060.54 1335.22 1041.4V735.979C1335.22 726.059 1343.24 718.02 1353.15 718.02H1720.68C1730.63 718.02 1738.65 726.059 1738.65 735.979V1157.68C1738.64 1167.6 1730.62 1175.64 1720.67 1175.64ZM1628.68 1075.43C1622.43 1075.43 1617.38 1080.48 1617.38 1086.71V1127.85C1617.38 1134.06 1622.43 1139.11 1628.68 1139.11H1688.81C1695.04 1139.11 1700.11 1134.06 1700.11 1127.85V1086.71C1700.11 1080.48 1695.04 1075.43 1688.81 1075.43H1628.68ZM1507.97 1075.43C1501.74 1075.43 1496.67 1080.48 1496.67 1086.71V1127.85C1496.67 1134.06 1501.74 1139.11 1507.97 1139.11H1568.14C1574.33 1139.11 1579.4 1134.06 1579.4 1127.85V1086.71C1579.4 1080.48 1574.33 1075.43 1568.14 1075.43H1507.97ZM1628.68 994.9C1622.43 994.9 1617.38 999.95 1617.38 1006.18V1047.3C1617.38 1053.53 1622.43 1058.58 1628.68 1058.58H1688.81C1695.04 1058.58 1700.11 1053.53 1700.11 1047.3V1006.18C1700.11 999.95 1695.04 994.9 1688.81 994.9H1628.68ZM1507.97 994.9C1501.74 994.9 1496.67 999.95 1496.67 1006.18V1047.3C1496.67 1053.53 1501.74 1058.58 1507.97 1058.58H1568.14C1574.33 1058.58 1579.4 1053.53 1579.4 1047.3V1006.18C1579.4 999.95 1574.33 994.9 1568.14 994.9H1507.97ZM1387.28 994.9C1381.03 994.9 1376.02 999.95 1376.02 1006.18V1047.3C1376.02 1053.53 1381.03 1058.58 1387.28 1058.58H1447.41C1453.64 1058.58 1458.69 1053.53 1458.69 1047.3V1006.18C1458.69 999.95 1453.64 994.9 1447.41 994.9H1387.28ZM1628.68 914.37C1622.43 914.37 1617.38 919.4 1617.38 925.65V966.77C1617.38 973 1622.43 978.05 1628.68 978.05H1688.81C1695.04 978.05 1700.11 973 1700.11 966.77V925.65C1700.11 919.4 1695.04 914.37 1688.81 914.37H1628.68ZM1507.97 914.37C1501.74 914.37 1496.67 919.4 1496.67 925.65V966.77C1496.67 973 1501.74 978.05 1507.97 978.05H1568.14C1574.33 978.05 1579.4 973 1579.4 966.77V925.65C1579.4 919.4 1574.33 914.37 1568.14 914.37H1507.97ZM1387.28 914.37C1381.03 914.37 1376.02 919.4 1376.02 925.65V966.77C1376.02 973 1381.03 978.05 1387.28 978.05H1447.41C1453.64 978.05 1458.69 973 1458.69 966.77V925.65C1458.69 919.4 1453.64 914.37 1447.41 914.37H1387.28ZM1628.68 833.839C1622.43 833.839 1617.38 838.889 1617.38 845.099V886.24C1617.38 892.47 1622.43 897.52 1628.68 897.52H1688.81C1695.04 897.52 1700.11 892.47 1700.11 886.24V845.099C1700.11 838.889 1695.04 833.839 1688.81 833.839H1628.68ZM1507.97 833.839C1501.74 833.839 1496.67 838.889 1496.67 845.099V886.24C1496.67 892.47 1501.74 897.52 1507.97 897.52H1568.14C1574.33 897.52 1579.4 892.47 1579.4 886.24V845.099C1579.4 838.889 1574.33 833.839 1568.14 833.839H1507.97ZM1387.28 833.839C1381.03 833.839 1376.02 838.889 1376.02 845.099V886.24C1376.02 892.47 1381.03 897.52 1387.28 897.52H1447.41C1453.64 897.52 1458.69 892.47 1458.69 886.24V845.099C1458.69 838.889 1453.64 833.839 1447.41 833.839H1387.28ZM1628.68 753.31C1622.43 753.31 1617.38 758.359 1617.38 764.589V805.719C1617.38 811.949 1622.43 817 1628.68 817H1688.81C1695.04 817 1700.11 811.949 1700.11 805.719V764.589C1700.11 758.359 1695.04 753.31 1688.81 753.31H1628.68ZM1507.97 753.31C1501.74 753.31 1496.67 758.359 1496.67 764.589V805.719C1496.67 811.949 1501.74 817 1507.97 817H1568.14C1574.33 817 1579.4 811.949 1579.4 805.719V764.589C1579.4 758.359 1574.33 753.31 1568.14 753.31H1507.97ZM1387.28 753.31C1381.03 753.31 1376.02 758.359 1376.02 764.589V805.719C1376.02 811.949 1381.03 817 1387.28 817H1447.41C1453.64 817 1458.69 811.949 1458.69 805.719V764.589C1458.69 758.359 1453.64 753.31 1447.41 753.31H1387.28Z" fill="#53A4B1"/>
<path fill-rule="evenodd" clip-rule="evenodd" d="M1689.09 602.299H1384.75V372.559H1689.09V602.299ZM1536.93 405.879C1493.1 405.879 1457.6 441.369 1457.6 485.179C1457.6 528.999 1493.1 564.509 1536.93 564.509C1580.74 564.509 1616.24 528.999 1616.24 485.179C1616.24 441.369 1580.74 405.879 1536.93 405.879ZM1536.93 557.649C1556.92 557.649 1575.02 549.559 1588.15 536.419C1601.3 523.299 1609.4 505.199 1609.4 485.169C1609.4 465.149 1601.3 447.049 1588.15 433.929C1575.02 420.789 1556.92 412.689 1536.93 412.689C1516.88 412.689 1498.78 420.789 1485.65 433.929C1472.54 447.049 1464.44 465.149 1464.44 485.169C1464.44 505.199 1472.54 523.299 1485.65 536.419C1498.79 549.559 1516.88 557.649 1536.93 557.649ZM1521.83 432.789C1519.96 432.789 1518.41 434.349 1518.41 436.209C1518.41 438.109 1519.96 439.629 1521.83 439.629C1534.74 439.629 1546.4 444.869 1554.91 453.349C1563.36 461.819 1568.59 473.519 1568.59 486.419C1568.59 499.319 1563.36 510.999 1554.91 519.459C1546.4 527.939 1534.74 533.189 1521.83 533.189C1519.96 533.189 1518.41 534.709 1518.41 536.609C1518.41 538.489 1519.96 540.009 1521.83 540.009C1551.39 540.009 1575.43 515.979 1575.43 486.419C1575.43 456.839 1551.39 432.809 1521.83 432.789ZM1521.83 448.289C1519.96 448.289 1518.41 449.809 1518.41 451.709C1518.41 453.589 1519.96 455.119 1521.83 455.119C1530.44 455.119 1538.26 458.639 1543.94 464.289C1549.6 469.979 1553.12 477.769 1553.12 486.419C1553.12 495.039 1549.6 502.859 1543.94 508.529C1538.26 514.199 1530.44 517.699 1521.83 517.699C1519.96 517.699 1518.41 519.219 1518.41 521.119C1518.41 522.999 1519.96 524.519 1521.83 524.519C1542.84 524.519 1559.92 507.449 1559.92 486.419C1559.92 465.379 1542.88 448.289 1521.83 448.289ZM1521.83 463.779C1519.96 463.779 1518.41 465.299 1518.41 467.199C1518.41 469.079 1519.96 470.599 1521.83 470.599C1526.19 470.599 1530.11 472.359 1533 475.239C1535.87 478.109 1537.6 482.019 1537.6 486.419C1537.6 490.789 1535.87 494.719 1533 497.579C1530.11 500.449 1526.18 502.209 1521.83 502.209C1519.96 502.209 1518.41 503.749 1518.41 505.629C1518.41 507.489 1519.96 509.059 1521.83 509.059C1534.33 509.039 1544.45 498.909 1544.45 486.419C1544.44 473.899 1534.33 463.779 1521.83 463.779Z" fill="#53A4B1"/>
<path fill-rule="evenodd" clip-rule="evenodd" d="M1413.88 1139.1H1387.28C1381.03 1139.1 1376.02 1134.05 1376.02 1127.84V1096.67C1388.05 1111.38 1400.63 1125.5 1413.88 1139.1Z" fill="#439DAB"/>
<path fill-rule="evenodd" clip-rule="evenodd" d="M1447.41 1139.1H1413.88C1400.63 1125.5 1388.05 1111.38 1376.02 1096.68V1086.71C1376.02 1080.48 1381.03 1075.43 1387.28 1075.43H1447.41C1453.64 1075.43 1458.69 1080.48 1458.69 1086.71V1127.85C1458.68 1134.05 1453.64 1139.1 1447.41 1139.1Z" fill="#53A4B1"/>
<path fill-rule="evenodd" clip-rule="evenodd" d="M1568.14 1139.1H1507.97C1501.74 1139.1 1496.67 1134.05 1496.67 1127.84V1086.7C1496.67 1080.47 1501.74 1075.42 1507.97 1075.42H1568.14C1574.33 1075.42 1579.4 1080.47 1579.4 1086.7V1127.84C1579.4 1134.05 1574.33 1139.1 1568.14 1139.1Z" fill="#53A4B1"/>
<path fill-rule="evenodd" clip-rule="evenodd" d="M1688.81 1139.1H1628.68C1622.43 1139.1 1617.38 1134.05 1617.38 1127.84V1086.7C1617.38 1080.47 1622.43 1075.42 1628.68 1075.42H1688.81C1695.04 1075.42 1700.11 1080.47 1700.11 1086.7V1127.84C1700.11 1134.05 1695.04 1139.1 1688.81 1139.1Z" fill="#53A4B1"/>
<path d="M1560.57 195.979H1437.07V209.488H1560.57V195.979Z" fill="#53A4B1"/>
<path d="M1647.42 195.979H1601.09V209.488H1647.42V195.979Z" fill="#53A4B1"/>
<path d="M1560.57 231H1437.07V244.51H1560.57V231Z" fill="#53A4B1"/>
<path d="M1647.42 231H1601.09V244.51H1647.42V231Z" fill="#53A4B1"/>
<path fill-rule="evenodd" clip-rule="evenodd" d="M1536.93 564.499C1493.1 564.499 1457.6 528.989 1457.6 485.169C1457.6 441.359 1493.1 405.869 1536.93 405.869C1580.74 405.869 1616.24 441.359 1616.24 485.169C1616.24 528.989 1580.74 564.499 1536.93 564.499ZM1536.93 412.699C1516.88 412.699 1498.78 420.799 1485.65 433.939C1472.54 447.059 1464.44 465.159 1464.44 485.179C1464.44 505.209 1472.54 523.309 1485.65 536.429C1498.78 549.569 1516.88 557.659 1536.93 557.659C1556.92 557.659 1575.02 549.569 1588.15 536.429C1601.3 523.309 1609.4 505.209 1609.4 485.179C1609.4 465.159 1601.3 447.059 1588.15 433.939C1575.02 420.799 1556.92 412.699 1536.93 412.699Z" fill="#53A4B1"/>
<path fill-rule="evenodd" clip-rule="evenodd" d="M1774.08 1174.48C1774.08 1183.94 1766.47 1191.6 1757.02 1191.6H1378.2C1368.78 1191.6 1361.12 1183.95 1361.12 1174.48V1100.59C1361.12 1091.17 1368.77 1083.51 1378.2 1083.51H1757.02C1766.47 1083.51 1774.08 1091.16 1774.08 1100.59V1174.48Z" fill="#9DB2D9"/>
<path d="M1748.73 1083.51H1386.5V1191.6H1748.73V1083.51Z" fill="#859AC6"/>
<path fill-rule="evenodd" clip-rule="evenodd" d="M1871.77 965.63C1871.77 975.08 1864.14 982.71 1854.69 982.71H1742.16C1732.78 982.71 1725.12 975.08 1725.12 965.63V442.1C1725.12 432.66 1732.77 425.01 1742.16 425.01H1854.69C1864.14 425.01 1871.77 432.66 1871.77 442.1V965.63Z" fill="#9DB2D9"/>
<path d="M1851.7 425.02H1827.68V982.709H1851.7V425.02Z" fill="#859AC6"/>
<path fill-rule="evenodd" clip-rule="evenodd" d="M1839.71 1076.77C1839.71 1123.96 1801.48 1162.18 1754.32 1162.18H1380.9C1333.74 1162.18 1295.51 1123.95 1295.51 1076.77V330.929C1295.51 283.789 1333.74 245.559 1380.9 245.559H1754.31C1801.47 245.559 1839.7 283.789 1839.7 330.929V1076.77H1839.71Z" fill="#9DB2D9"/>
<path fill-rule="evenodd" clip-rule="evenodd" d="M1769.34 1096.31C1769.34 1106.2 1761.28 1114.26 1751.41 1114.26H1383.84C1373.91 1114.26 1365.89 1106.2 1365.89 1096.31V674.579C1365.89 664.659 1373.91 656.619 1383.84 656.619H1751.41C1761.28 656.619 1769.34 664.659 1769.34 674.579V1096.31Z" fill="#C4D1EB"/>
<path fill-rule="evenodd" clip-rule="evenodd" d="M1753.83 612.609C1753.83 622.019 1746.18 629.679 1736.75 629.679H1398.45C1389 629.679 1381.39 622.029 1381.39 612.609V187.359C1381.39 177.949 1389 170.289 1398.45 170.289H1736.75C1746.17 170.289 1753.83 177.939 1753.83 187.359V612.609Z" fill="#C4D1EB"/>
<path d="M1719.77 311.17H1415.45V540.89H1719.77V311.17Z" fill="white"/>
<path fill-rule="evenodd" clip-rule="evenodd" d="M1494.12 580.348C1494.12 586.218 1489.38 590.958 1483.51 590.958H1431.4C1425.56 590.958 1420.79 586.228 1420.79 580.348C1420.79 574.498 1425.55 569.738 1431.4 569.738H1483.51C1489.38 569.748 1494.12 574.498 1494.12 580.348Z" fill="#9DB2D9"/>
<path fill-rule="evenodd" clip-rule="evenodd" d="M1725.12 580.348C1725.12 586.218 1720.34 590.958 1714.47 590.958H1662.4C1656.52 590.958 1651.79 586.228 1651.79 580.348C1651.79 574.498 1656.51 569.738 1662.4 569.738H1714.47C1720.34 569.748 1725.12 574.498 1725.12 580.348Z" fill="#9DB2D9"/>
<path fill-rule="evenodd" clip-rule="evenodd" d="M1609.6 580.348C1609.6 586.218 1604.86 590.958 1598.99 590.958H1546.92C1541.04 590.958 1536.27 586.228 1536.27 580.348C1536.27 574.498 1541.03 569.738 1546.92 569.738H1599C1604.86 569.748 1609.6 574.498 1609.6 580.348Z" fill="#9DB2D9"/>
<path fill-rule="evenodd" clip-rule="evenodd" d="M1489.38 1066.47C1489.38 1072.68 1484.33 1077.71 1478.12 1077.71H1417.95C1411.72 1077.71 1406.69 1072.68 1406.69 1066.47V1025.31C1406.69 1019.08 1411.72 1014.03 1417.95 1014.03H1478.12C1484.33 1014.03 1489.38 1019.08 1489.38 1025.31V1066.47Z" fill="white"/>
<path fill-rule="evenodd" clip-rule="evenodd" d="M1610.09 1066.47C1610.09 1072.68 1605.02 1077.71 1598.79 1077.71H1538.66C1532.43 1077.71 1527.36 1072.68 1527.36 1066.47V1025.31C1527.36 1019.08 1532.43 1014.03 1538.66 1014.03H1598.79C1605.02 1014.03 1610.09 1019.08 1610.09 1025.31V1066.47Z" fill="white"/>
<path fill-rule="evenodd" clip-rule="evenodd" d="M1730.78 1066.47C1730.78 1072.68 1725.73 1077.71 1719.48 1077.71H1659.37C1653.12 1077.71 1648.11 1072.68 1648.11 1066.47V1025.31C1648.11 1019.08 1653.12 1014.03 1659.37 1014.03H1719.48C1725.73 1014.03 1730.78 1019.08 1730.78 1025.31V1066.47Z" fill="white"/>
<path fill-rule="evenodd" clip-rule="evenodd" d="M1489.38 985.92C1489.38 992.13 1484.33 997.18 1478.12 997.18H1417.95C1411.72 997.18 1406.69 992.13 1406.69 985.92V944.76C1406.69 938.55 1411.72 933.5 1417.95 933.5H1478.12C1484.33 933.5 1489.38 938.55 1489.38 944.76V985.92Z" fill="#9DB2D9"/>
<path fill-rule="evenodd" clip-rule="evenodd" d="M1610.09 985.92C1610.09 992.13 1605.02 997.18 1598.79 997.18H1538.66C1532.43 997.18 1527.36 992.13 1527.36 985.92V944.76C1527.36 938.55 1532.43 933.5 1538.66 933.5H1598.79C1605.02 933.5 1610.09 938.55 1610.09 944.76V985.92Z" fill="#9DB2D9"/>
<path fill-rule="evenodd" clip-rule="evenodd" d="M1730.78 985.92C1730.78 992.13 1725.73 997.18 1719.48 997.18H1659.37C1653.12 997.18 1648.11 992.13 1648.11 985.92V944.76C1648.11 938.55 1653.12 933.5 1659.37 933.5H1719.48C1725.73 933.5 1730.78 938.55 1730.78 944.76V985.92Z" fill="#9DB2D9"/>
<path fill-rule="evenodd" clip-rule="evenodd" d="M1489.38 905.379C1489.38 911.609 1484.33 916.659 1478.12 916.659H1417.95C1411.72 916.659 1406.69 911.609 1406.69 905.379V864.239C1406.69 858.029 1411.72 852.979 1417.95 852.979H1478.12C1484.33 852.979 1489.38 858.029 1489.38 864.239V905.379Z" fill="#9DB2D9"/>
<path fill-rule="evenodd" clip-rule="evenodd" d="M1610.09 905.379C1610.09 911.609 1605.02 916.659 1598.79 916.659H1538.66C1532.43 916.659 1527.36 911.609 1527.36 905.379V864.239C1527.36 858.029 1532.43 852.979 1538.66 852.979H1598.79C1605.02 852.979 1610.09 858.029 1610.09 864.239V905.379Z" fill="#9DB2D9"/>
<path fill-rule="evenodd" clip-rule="evenodd" d="M1730.78 905.379C1730.78 911.609 1725.73 916.659 1719.48 916.659H1659.37C1653.12 916.659 1648.11 911.609 1648.11 905.379V864.239C1648.11 858.029 1653.12 852.979 1659.37 852.979H1719.48C1725.73 852.979 1730.78 858.029 1730.78 864.239V905.379Z" fill="#9DB2D9"/>
<path fill-rule="evenodd" clip-rule="evenodd" d="M1489.38 824.849C1489.38 831.079 1484.33 836.129 1478.12 836.129H1417.95C1411.72 836.129 1406.69 831.079 1406.69 824.849V783.729C1406.69 777.499 1411.72 772.449 1417.95 772.449H1478.12C1484.33 772.449 1489.38 777.499 1489.38 783.729V824.849Z" fill="#9DB2D9"/>
<path fill-rule="evenodd" clip-rule="evenodd" d="M1610.09 824.849C1610.09 831.079 1605.02 836.129 1598.79 836.129H1538.66C1532.43 836.129 1527.36 831.079 1527.36 824.849V783.729C1527.36 777.499 1532.43 772.449 1538.66 772.449H1598.79C1605.02 772.449 1610.09 777.499 1610.09 783.729V824.849Z" fill="#9DB2D9"/>
<path fill-rule="evenodd" clip-rule="evenodd" d="M1730.78 824.849C1730.78 831.079 1725.73 836.129 1719.48 836.129H1659.37C1653.12 836.129 1648.11 831.079 1648.11 824.849V783.729C1648.11 777.499 1653.12 772.449 1659.37 772.449H1719.48C1725.73 772.449 1730.78 777.499 1730.78 783.729V824.849Z" fill="#9DB2D9"/>
<path fill-rule="evenodd" clip-rule="evenodd" d="M1489.38 744.318C1489.38 750.538 1484.33 755.598 1478.12 755.598H1417.95C1411.72 755.598 1406.69 750.538 1406.69 744.318V703.178C1406.69 696.968 1411.72 691.898 1417.95 691.898H1478.12C1484.33 691.898 1489.38 696.968 1489.38 703.178V744.318Z" fill="#9DB2D9"/>
<path fill-rule="evenodd" clip-rule="evenodd" d="M1610.09 744.318C1610.09 750.538 1605.02 755.598 1598.79 755.598H1538.66C1532.43 755.598 1527.36 750.538 1527.36 744.318V703.178C1527.36 696.968 1532.43 691.898 1538.66 691.898H1598.79C1605.02 691.898 1610.09 696.968 1610.09 703.178V744.318Z" fill="#9DB2D9"/>
<path fill-rule="evenodd" clip-rule="evenodd" d="M1730.78 744.318C1730.78 750.538 1725.73 755.598 1719.48 755.598H1659.37C1653.12 755.598 1648.11 750.538 1648.11 744.318V703.178C1648.11 696.968 1653.12 691.898 1659.37 691.898H1719.48C1725.73 691.898 1730.78 696.968 1730.78 703.178V744.318Z" fill="#9DB2D9"/>
<path fill-rule="evenodd" clip-rule="evenodd" d="M1716.33 224.33C1716.33 229.65 1712.04 233.98 1706.7 233.98H1428.54C1423.19 233.98 1418.89 229.65 1418.89 224.33C1418.89 219 1423.18 214.67 1428.54 214.67H1706.7C1712.04 214.67 1716.33 218.99 1716.33 224.33Z" fill="#9DB2D9"/>
<path fill-rule="evenodd" clip-rule="evenodd" d="M1704.62 0.699219L1687.46 21.1792L1670.35 0.699219L1653.21 21.1792L1636.09 0.699219L1618.91 21.1792L1601.79 0.699219L1584.71 21.1792L1567.53 0.699219L1550.45 21.1792L1533.31 0.699219L1516.19 21.1792L1499.11 0.699219L1481.97 21.1792L1464.85 0.699219L1447.71 21.1792L1430.59 0.699219V223.209H1704.62V0.699219Z" fill="#E0E8F5"/>
<path d="M1591.3 99.5488H1467.76V113.049H1591.3V99.5488Z" fill="#C4D1EB"/>
<path d="M1678.12 58.3496H1467.76V71.8596H1678.12V58.3496Z" fill="#C4D1EB"/>
<path d="M1678.12 99.5488H1631.83V113.049H1678.12V99.5488Z" fill="#C4D1EB"/>
<path d="M1591.3 134.6H1467.76V148.11H1591.3V134.6Z" fill="#C4D1EB"/>
<path d="M1678.12 134.6H1631.83V148.11H1678.12V134.6Z" fill="#C4D1EB"/>
<path d="M1591.3 169.619H1467.76V183.129H1591.3V169.619Z" fill="#C4D1EB"/>
<path d="M1678.12 169.619H1631.83V183.129H1678.12V169.619Z" fill="#C4D1EB"/>
<path fill-rule="evenodd" clip-rule="evenodd" d="M1157.13 1173.71C1077.84 1173.71 1013.58 1188.2 1013.58 1206.06C1013.58 1223.93 1077.84 1238.41 1157.13 1238.41C1236.4 1238.41 1300.7 1223.94 1300.7 1206.06C1300.7 1188.2 1236.4 1173.71 1157.13 1173.71Z" fill="#D3E3F4"/>
<path fill-rule="evenodd" clip-rule="evenodd" d="M1177.2 1072.78C1097.97 1072.78 1033.67 1087.27 1033.67 1105.12C1033.67 1122.99 1097.97 1137.51 1177.2 1137.51C1256.53 1137.51 1320.79 1123 1320.79 1105.12C1320.79 1087.28 1256.53 1072.78 1177.2 1072.78Z" fill="#D3E3F4"/>
<path fill-rule="evenodd" clip-rule="evenodd" d="M1185.1 1130.19C1105.77 1130.19 1041.53 1144.68 1041.53 1162.56C1041.53 1180.41 1105.77 1194.91 1185.1 1194.91C1264.35 1194.91 1328.65 1180.42 1328.65 1162.56C1328.65 1144.68 1264.35 1130.19 1185.1 1130.19Z" fill="#D3E3F4"/>
<path fill-rule="evenodd" clip-rule="evenodd" d="M1205.19 1029.26C1125.9 1029.26 1061.6 1043.75 1061.6 1061.63C1061.6 1079.5 1125.9 1093.98 1205.19 1093.98C1284.46 1093.98 1348.72 1079.51 1348.72 1061.63C1348.72 1043.75 1284.46 1029.26 1205.19 1029.26Z" fill="#D3E3F4"/>
<path fill-rule="evenodd" clip-rule="evenodd" d="M1157.13 1274.92C1077.84 1274.92 1013.58 1260.43 1013.58 1242.55V1206.05C1013.58 1223.92 1077.84 1238.4 1157.13 1238.4C1236.4 1238.4 1300.7 1223.93 1300.7 1206.05V1242.55C1300.7 1260.42 1236.4 1274.92 1157.13 1274.92Z" fill="#B0C2E4"/>
<path fill-rule="evenodd" clip-rule="evenodd" d="M1177.2 1173.99C1097.97 1173.99 1033.67 1159.5 1033.67 1141.64V1105.12C1033.67 1122.99 1097.97 1137.47 1177.2 1137.47C1256.53 1137.47 1320.79 1123 1320.79 1105.12V1141.64C1320.79 1159.5 1256.53 1173.99 1177.2 1173.99Z" fill="#B0C2E4"/>
<path fill-rule="evenodd" clip-rule="evenodd" d="M1185.1 1231.4C1105.77 1231.4 1041.53 1216.93 1041.53 1199.05V1162.55C1041.53 1180.4 1105.77 1194.9 1185.1 1194.9C1264.35 1194.9 1328.65 1180.41 1328.65 1162.55V1199.05C1328.65 1216.92 1264.35 1231.4 1185.1 1231.4Z" fill="#B0C2E4"/>
<path fill-rule="evenodd" clip-rule="evenodd" d="M1205.19 1130.49C1125.9 1130.49 1061.6 1116 1061.6 1098.14V1061.62C1061.6 1079.49 1125.9 1093.97 1205.19 1093.97C1284.46 1093.97 1348.72 1079.5 1348.72 1061.62V1098.14C1348.72 1116 1284.46 1130.49 1205.19 1130.49Z" fill="#B0C2E4"/>
<path fill-rule="evenodd" clip-rule="evenodd" d="M918.64 1263.8C839.35 1263.8 775.09 1278.29 775.09 1296.17C775.09 1314.02 839.35 1328.52 918.64 1328.52C997.91 1328.52 1062.17 1314.03 1062.17 1296.17C1062.17 1278.3 997.91 1263.8 918.64 1263.8Z" fill="#D3E3F4"/>
<path fill-rule="evenodd" clip-rule="evenodd" d="M921.671 1170.53C1000.96 1170.53 1065.24 1185.02 1065.24 1202.88C1065.24 1220.75 1000.96 1235.23 921.671 1235.23C842.381 1235.23 778.121 1220.76 778.121 1202.88C778.121 1185.03 842.391 1170.53 921.671 1170.53Z" fill="#D3E3F4"/>
<path fill-rule="evenodd" clip-rule="evenodd" d="M913.651 1083.25C992.941 1083.25 1057.18 1097.74 1057.18 1115.6C1057.18 1133.49 992.941 1147.99 913.651 1147.99C834.361 1147.99 770.121 1133.5 770.121 1115.6C770.121 1097.74 834.371 1083.25 913.651 1083.25Z" fill="#D3E3F4"/>
<path fill-rule="evenodd" clip-rule="evenodd" d="M946.571 1220.28C867.301 1220.28 803.041 1234.77 803.041 1252.65C803.041 1270.52 867.301 1285.02 946.571 1285.02C1025.86 1285.02 1090.16 1270.53 1090.16 1252.65C1090.16 1234.78 1025.86 1220.28 946.571 1220.28Z" fill="#D3E3F4"/>
<path fill-rule="evenodd" clip-rule="evenodd" d="M893.729 1127.01C973.019 1127.01 1037.28 1141.5 1037.28 1159.38C1037.28 1177.21 973.019 1191.73 893.729 1191.73C814.459 1191.73 750.199 1177.22 750.199 1159.38C750.199 1141.5 814.459 1127.01 893.729 1127.01Z" fill="#D3E3F4"/>
<path fill-rule="evenodd" clip-rule="evenodd" d="M885.73 1039.72C965 1039.72 1029.26 1054.21 1029.26 1072.09C1029.26 1089.96 965 1104.44 885.73 1104.44C806.44 1104.44 742.18 1089.97 742.18 1072.09C742.18 1054.22 806.44 1039.72 885.73 1039.72Z" fill="#D3E3F4"/>
<path fill-rule="evenodd" clip-rule="evenodd" d="M918.64 1365.03C839.35 1365.03 775.09 1350.54 775.09 1332.66V1296.16C775.09 1314.01 839.35 1328.51 918.64 1328.51C997.91 1328.51 1062.17 1314.02 1062.17 1296.16V1332.66C1062.17 1350.54 997.91 1365.03 918.64 1365.03Z" fill="#B0C2E4"/>
<path fill-rule="evenodd" clip-rule="evenodd" d="M921.671 1271.74C1000.96 1271.74 1065.24 1257.25 1065.24 1239.39V1202.87C1065.24 1220.72 1000.96 1235.22 921.671 1235.22C842.381 1235.22 778.121 1220.73 778.121 1202.87V1239.39C778.121 1257.25 842.391 1271.74 921.671 1271.74Z" fill="#B0C2E4"/>
<path fill-rule="evenodd" clip-rule="evenodd" d="M913.651 1184.46C992.941 1184.46 1057.18 1170.01 1057.18 1152.13V1115.59C1057.18 1133.48 992.941 1147.98 913.651 1147.98C834.361 1147.98 770.121 1133.49 770.121 1115.59V1152.13C770.121 1170 834.371 1184.46 913.651 1184.46Z" fill="#B0C2E4"/>
<path fill-rule="evenodd" clip-rule="evenodd" d="M946.571 1321.51C867.301 1321.51 803.041 1307.04 803.041 1289.17V1252.65C803.041 1270.52 867.301 1285.02 946.571 1285.02C1025.86 1285.02 1090.16 1270.53 1090.16 1252.65V1289.17C1090.16 1307.04 1025.86 1321.51 946.571 1321.51Z" fill="#B0C2E4"/>
<path fill-rule="evenodd" clip-rule="evenodd" d="M893.729 1228.22C973.019 1228.22 1037.28 1213.75 1037.28 1195.85V1159.37C1037.28 1177.2 973.019 1191.72 893.729 1191.72C814.459 1191.72 750.199 1177.21 750.199 1159.37V1195.85C750.199 1213.75 814.459 1228.22 893.729 1228.22Z" fill="#B0C2E4"/>
<path fill-rule="evenodd" clip-rule="evenodd" d="M885.73 1140.98C965 1140.98 1029.26 1126.49 1029.26 1108.59V1072.09C1029.26 1089.96 965 1104.44 885.73 1104.44C806.44 1104.44 742.18 1089.97 742.18 1072.09V1108.59C742.18 1126.48 806.44 1140.98 885.73 1140.98Z" fill="#B0C2E4"/>
<path fill-rule="evenodd" clip-rule="evenodd" d="M1139.34 1045.3C1135.82 1048.23 1132.09 1052.4 1131.01 1057.96L1111.37 1058.37L1110.23 1066.92L1131.36 1066.47C1134.58 1075.61 1147.93 1080.8 1166.11 1080.43C1184.82 1080.06 1195.22 1073.83 1204.91 1065.24C1213.36 1057.06 1219.85 1054.06 1229.28 1053.88C1238.56 1053.7 1245.4 1056.57 1244.55 1062.88C1243.82 1068.34 1239.09 1073.55 1234.35 1077.05L1254.75 1079.23C1259.29 1075.83 1263.75 1070.09 1264.85 1064.53L1285.98 1064.1L1287.12 1055.55L1264.52 1056.02C1261.73 1046.27 1247.3 1040.85 1228.39 1041.22C1209.13 1041.63 1198.16 1046.53 1186.95 1057C1178.81 1064.02 1173.13 1067.87 1164.6 1068.05C1157.39 1068.19 1150.17 1065.4 1150.94 1059.58C1151.63 1054.49 1156.09 1050.18 1159.2 1047.49L1139.34 1045.3Z" fill="white"/>
<path fill-rule="evenodd" clip-rule="evenodd" d="M826.389 1056.56C822.869 1059.51 819.139 1063.64 818.059 1069.24L798.419 1069.65L797.279 1078.16L818.429 1077.75C821.629 1086.89 834.979 1092.08 853.119 1091.67C871.829 1091.3 882.289 1085.12 891.919 1076.48C900.429 1068.32 906.899 1065.32 916.329 1065.14C925.609 1064.94 932.409 1067.85 931.599 1074.12C930.869 1079.6 926.139 1084.83 921.399 1088.29L941.819 1090.49C946.339 1087.11 950.799 1081.37 951.899 1075.77L973.029 1075.34L974.169 1066.83L951.529 1067.28C948.779 1057.53 934.369 1052.09 915.459 1052.48C896.179 1052.87 885.169 1057.79 873.989 1068.26C865.849 1075.28 860.169 1079.15 851.639 1079.31C844.429 1079.45 837.229 1076.64 837.979 1070.82C838.669 1065.77 843.129 1061.44 846.239 1058.77L826.389 1056.56Z" fill="white"/>
<path fill-rule="evenodd" clip-rule="evenodd" d="M1616.44 897.839L2088.76 781.999C2104.43 778.149 2120.39 787.839 2124.2 803.479L2190.76 1074.82C2194.61 1090.47 2184.92 1106.45 2169.26 1110.28L1696.92 1226.15C1681.27 1229.98 1665.35 1220.31 1661.5 1204.65L1594.94 933.309C1591.1 917.629 1600.77 901.669 1616.44 897.839Z" fill="#D0A382"/>
<path fill-rule="evenodd" clip-rule="evenodd" d="M1684.84 1097.43L1754.36 1080.39C1758.25 1079.41 1762.26 1081.86 1763.24 1085.74L1767.72 1104.16C1768.7 1108.07 1766.27 1112.06 1762.34 1113.04L1692.87 1130.1C1688.94 1131.06 1684.97 1128.63 1683.99 1124.73L1679.45 1106.29C1678.51 1102.38 1680.91 1098.39 1684.84 1097.43ZM2050.98 1007.62L2120.48 990.579C2124.41 989.619 2128.36 992.049 2129.33 995.949L2133.87 1014.35C2134.81 1018.3 2132.41 1022.25 2128.48 1023.23L2058.96 1040.29C2055.07 1041.25 2051.06 1038.82 2050.11 1034.92L2045.61 1016.5C2044.63 1012.57 2047.05 1008.6 2050.98 1007.62ZM1928.91 1037.57L1998.43 1020.51C2002.36 1019.55 2006.33 1021.98 2007.31 1025.88L2011.81 1044.32C2012.79 1048.23 2010.39 1052.22 2006.46 1053.17L1936.94 1070.21C1933.01 1071.19 1929.04 1068.76 1928.06 1064.86L1923.54 1046.42C1922.6 1042.51 1924.98 1038.52 1928.91 1037.57ZM1806.87 1067.49L1876.39 1050.43C1880.32 1049.49 1884.29 1051.9 1885.27 1055.8L1889.77 1074.24C1890.73 1078.15 1888.35 1082.14 1884.42 1083.1L1814.9 1100.14C1810.97 1101.12 1807 1098.72 1806.02 1094.79L1801.48 1076.37C1800.56 1072.46 1802.95 1068.47 1806.87 1067.49Z" fill="white"/>
<path fill-rule="evenodd" clip-rule="evenodd" d="M1699.17 1167.19L1933.41 1109.75C1935.87 1109.14 1938.4 1110.69 1938.99 1113.15L1942.31 1126.75C1942.92 1129.25 1941.43 1131.76 1938.95 1132.35L1704.71 1189.84C1702.25 1190.43 1699.74 1188.9 1699.13 1186.42L1695.77 1172.82C1695.16 1170.33 1696.71 1167.8 1699.17 1167.19Z" fill="#EAC5A7"/>
<path fill-rule="evenodd" clip-rule="evenodd" d="M1982.53 1097.7L2079.02 1074.01C2081.52 1073.44 2084.03 1074.95 2084.64 1077.43L2087.96 1091.05C2088.57 1093.51 2087.08 1096.04 2084.6 1096.65L1988.07 1120.32C1985.61 1120.93 1983.1 1119.38 1982.49 1116.92L1979.13 1103.32C1978.56 1100.81 1980.04 1098.31 1982.53 1097.7Z" fill="white"/>
<path fill-rule="evenodd" clip-rule="evenodd" d="M1927.34 862.649L2079.75 825.259C2083.62 824.319 2087.32 825.549 2087.91 828.029L2091.27 841.649C2091.88 844.129 2089.17 846.919 2085.29 847.879L1932.88 885.269C1928.95 886.229 1925.27 884.979 1924.66 882.519L1921.34 868.899C1920.68 866.409 1923.41 863.619 1927.34 862.649Z" fill="white"/>
<path fill-rule="evenodd" clip-rule="evenodd" d="M1651.72 967.89L1732.98 947.96C1736.18 947.19 1739.45 949.16 1740.27 952.38L1756.49 1018.56C1757.26 1021.78 1755.29 1025.07 1752.09 1025.85L1670.83 1045.78C1667.61 1046.57 1664.3 1044.58 1663.52 1041.36L1647.3 975.2C1646.53 971.98 1648.52 968.68 1651.72 967.89Z" fill="#EAC5A7"/>
<path fill-rule="evenodd" clip-rule="evenodd" d="M1978.88 582.5C1984.95 566.04 1991.13 549.56 2009.64 539.01C2024.66 530.55 2041.11 530.65 2055.69 537.74C2097.03 557.76 2078.49 594.23 2105.34 632.67C2116.8 649.07 2134 657.47 2142.59 674.69C2158.16 705.75 2144.61 756.35 2102.86 784.81C2000.59 854.57 1944.47 730.15 1944.18 703.33C1943.93 683.38 1974.99 593.1 1978.88 582.5Z" fill="#20386F"/>
<path fill-rule="evenodd" clip-rule="evenodd" d="M2074.07 787.389C2077.02 784.929 2117.24 750.009 2135.18 734.449C2135.18 734.449 2117.29 721.039 2106.17 740.589C2095.11 760.139 2074.07 787.389 2074.07 787.389Z" fill="#233761"/>
<path fill-rule="evenodd" clip-rule="evenodd" d="M2010.45 789.959C2010.45 789.959 2014.83 805.189 2036.2 831.849C2060.92 831.479 2010.45 789.959 2010.45 789.959Z" fill="#233761"/>
<path fill-rule="evenodd" clip-rule="evenodd" d="M1906.68 1197C1913.48 1214.38 1948.35 1250.23 1984.26 1284.06C2027.15 1324.47 2071.61 1362.04 2071.61 1362.04C2071.61 1362.04 2091.88 1368.23 2083.07 1338.35C2083.07 1338.35 2034.07 1248.38 2013.07 1221.83C2007.03 1214.22 2000.84 1207.3 1994.99 1201.27C1980.46 1186.17 1968.45 1176.74 1968.45 1176.74C1968.45 1176.74 1971.2 1172.32 1975.66 1164.67C1997.52 1127.23 2060.28 1012.61 2040.88 961.719C2017.55 900.409 1959.58 872.799 1959.58 872.799C1959.58 872.799 1941.16 950.359 1925.65 1030.11C1911.38 1103.48 1899.51 1178.7 1906.68 1197Z" fill="#223F81"/>
<path fill-rule="evenodd" clip-rule="evenodd" d="M1925.63 1030.12C1936.32 1079.24 1954.82 1148.71 1975.64 1164.67C1997.5 1127.23 2060.26 1012.61 2040.86 961.719C2017.53 900.409 1959.56 872.799 1959.56 872.799C1959.56 872.799 1941.14 950.359 1925.63 1030.12Z" fill="#20386F"/>
<path fill-rule="evenodd" clip-rule="evenodd" d="M1984.26 1284.06C2027.15 1324.47 2071.61 1362.04 2071.61 1362.04C2071.61 1362.04 2091.88 1368.23 2083.07 1338.35C2083.07 1338.35 2034.07 1248.38 2013.07 1221.83C2007.03 1214.22 2000.84 1207.3 1994.99 1201.27C1995.67 1224.23 1995.02 1263.19 1984.26 1284.06Z" fill="#20386F"/>
<path fill-rule="evenodd" clip-rule="evenodd" d="M1974.18 903.538L1978.23 888.598C2006.77 900.938 2090.68 882.898 2090.68 882.898C2090.68 882.898 2115.66 912.518 2102.77 972.588C2096.5 1001.96 2074.27 1127.25 2065.21 1163.96C2061.87 1177.25 2059.33 1186.68 2058.31 1190.46L2058.27 1190.5C2057.94 1191.64 2058.23 1192.8 2058.64 1193.94C2062.53 1203.51 2065.44 1213.3 2067.56 1223.21C2088.32 1320.41 2031.45 1427.83 2031.45 1427.83L2021.72 1422.11C2021.72 1422.11 2017.95 1292.54 2007.92 1234.04C2006.17 1224.11 2004.28 1216.23 2002.2 1211.4C1996.13 1197.23 1991.84 1174.98 1988.85 1148.82C1983.23 1099.4 1982.21 1036.01 1982.54 987.278C1981.59 987.208 1974.18 903.538 1974.18 903.538Z" fill="#223F81"/>
<path fill-rule="evenodd" clip-rule="evenodd" d="M2102.89 919.4C2114.51 901.83 2074.72 830.12 2076.14 823.36C2078.93 810.03 2085.48 795.25 2091.87 782C2098.32 768.75 2104.59 756.95 2106.85 749.56C2104.79 746.69 2102.76 743.97 2100.91 741.43C2098.04 737.52 2095.56 733.92 2093.95 730.55C2092.2 726.89 2091.43 723.47 2092.28 720.17C2092.93 717.68 2093.83 715.19 2094.89 712.74C2095.36 711.59 2095.93 710.45 2096.5 709.34C2102.42 697.47 2111.28 687.81 2111.28 687.81C2097.28 678.82 2075.17 674.27 2074.96 674.91C2073.33 674.37 2071.89 673.98 2070.71 673.68C2069.9 673.48 2069.08 673.27 2068.25 673.09C2065.44 672.43 2062.69 671.86 2060.27 671.41C2055.24 666.37 2049.22 647.64 2051.03 620.09L2048.61 620.42L2007.76 625.93C2007.76 625.93 2007.92 638.68 2007.23 650.64C2006.66 659.97 2005.58 668.85 2003.55 670.79C2000.39 671.04 1998.44 671.23 1998.44 671.23V671.27L1998.36 671.35C1996.1 671.53 1993.96 671.74 1992.05 671.96C1992.05 671.96 1991.89 671.98 1991.56 672C1987.96 672.41 1985.01 672.84 1982.58 673.29L1982.09 673.39C1975.13 674.67 1972.77 675.86 1972.77 675.86V675.98C1973.1 688.86 1952.33 711.35 1953.78 740.44C1953.82 741.54 1964.41 817.79 1964.37 818.91C1963.51 840.63 1952.87 901.78 1952.87 901.78C1943.12 920.72 2096.7 937.46 2102.89 919.4Z" fill="#F9AF79"/>
<path fill-rule="evenodd" clip-rule="evenodd" d="M2007.75 625.93C2007.75 625.93 2007.91 638.68 2007.18 650.64C2029.82 651.39 2042.97 631.56 2048.6 620.42L2007.75 625.93Z" fill="#ED7D57"/>
<path fill-rule="evenodd" clip-rule="evenodd" d="M1999.52 636.799C1999.52 636.799 2052.85 640.949 2054.95 607.709C2057.03 574.419 2065.31 552.559 2031.36 548.499C1997.39 544.459 1989.94 556.719 1986.58 567.649C1983.18 578.609 1985.68 634.879 1999.52 636.799Z" fill="#F9AF79"/>
<path fill-rule="evenodd" clip-rule="evenodd" d="M1989.28 549.26C1998.16 539.78 2004.22 542.36 2007.54 545.58C2037.71 531.33 2055.07 556.19 2055.07 556.19C2057.19 580.28 2073.57 595 2073.57 595C2073.57 595 2063.45 600.43 2041.35 593.28C2034.63 591.09 2028.79 585.85 2023.99 579.62C2032.11 595.41 2043.82 607.13 2043.82 607.13C2017.74 593.09 2009.28 555.14 2008.44 551.17C2005.04 553.86 1998.2 559.83 1995.84 565.95C1992.68 574.27 1990.42 591.62 1985.36 590.71C1985.35 590.7 1975.95 563.51 1989.28 549.26Z" fill="#20386F"/>
<path fill-rule="evenodd" clip-rule="evenodd" d="M1967.75 1430.88H2050.5C2050.5 1430.88 2053.59 1417.71 2048.16 1408.69C2043.34 1400.75 2046.35 1395.38 2048.4 1388.6C2044.63 1390.13 2040.14 1392.59 2034.84 1392.28C2030.71 1392.04 2024.21 1389.02 2020.43 1386.78C2016.85 1390.83 2003.7 1409.29 1998.91 1412.71C1993.5 1416.59 1969.35 1415.25 1967.75 1430.88Z" fill="#0E2952"/>
<path fill-rule="evenodd" clip-rule="evenodd" d="M2090.76 1428.95L2121.93 1352.27C2121.93 1352.27 2110.84 1344.41 2100.47 1346.08C2091.31 1347.55 2087.79 1344.13 2083.07 1338.34C2083.07 1342.41 2082.54 1347.42 2080.22 1352.26C2078.49 1356.01 2075.09 1359.34 2071.61 1362.03C2073.99 1366.87 2084.27 1387.49 2085.66 1393.22C2087.24 1399.68 2076.9 1421.52 2090.76 1428.95Z" fill="#0E2952"/>
<path fill-rule="evenodd" clip-rule="evenodd" d="M1964.35 818.939C1964.39 818.309 1961.09 794.309 1958.18 773.059C1951.79 772.369 1944.01 770.839 1937.34 767.729C1937.71 758.409 1943.85 678.969 1977.26 674.499C1978.85 674.069 1980.5 673.709 1982.08 673.399C1982.24 673.379 1982.41 673.339 1982.57 673.299C1986.66 672.539 1990.31 672.149 1991.55 672.029C1991.88 671.989 1992.04 671.969 1992.04 671.969C1992.04 671.969 1982.04 700.249 1982.25 703.549C1982.45 706.869 2014.43 707.989 2035.46 708.239C2056.35 708.529 2068.09 673.619 2068.25 673.099C2069.08 673.279 2069.9 673.489 2070.71 673.689C2071.89 673.999 2099.78 678.249 2111.28 687.819C2111.28 687.819 2102.43 697.479 2096.5 709.349C2095.93 710.459 2095.36 711.599 2094.89 712.769C2093.83 715.199 2092.94 717.689 2092.28 720.179C2091.43 723.479 2092.2 726.899 2093.95 730.559C2095.56 733.929 2098.04 737.529 2100.91 741.439C2102.76 743.979 2104.8 746.699 2106.85 749.569C2106.08 752.119 2104.83 755.179 2103.29 758.619V758.639C2100.26 765.249 2096.08 773.319 2091.87 782.009C2085.48 795.259 2078.92 810.079 2076.14 823.369C2074.71 830.129 2114.51 901.839 2102.89 919.409C2101.08 924.719 2086.34 927.039 2066.82 927.149C2020.18 927.369 1946.05 915.139 1952.85 901.809C1952.85 901.789 1963.49 840.639 1964.35 818.939Z" fill="#6D96CE"/>
<path fill-rule="evenodd" clip-rule="evenodd" d="M2066.82 927.14C2086.34 927.04 2101.08 924.72 2102.89 919.4C2114.51 901.83 2074.72 830.12 2076.14 823.36C2078.93 810.07 2085.48 795.25 2091.87 782C2096.08 773.31 2100.26 765.24 2103.29 758.63V758.61C2101.64 752.12 2100.62 748.35 2100.62 748.35C2100.62 748.35 2058.3 797.57 2048.59 820.82C2040.99 839.06 2058.76 901.16 2066.82 927.14Z" fill="#466FB5"/>
<path fill-rule="evenodd" clip-rule="evenodd" d="M2086.95 893.749L2095.28 908.259C2149.18 886.929 2183.48 838.849 2183.48 838.849C2185.37 811.569 2172.59 780.179 2157.32 753.099C2154.75 748.629 2152.17 744.259 2149.54 740.059C2138.73 749.289 2123.63 761.399 2109.21 770.189C2111.47 773.899 2114.14 778.369 2117.03 783.069C2128.96 802.779 2144.39 827.979 2146.42 829.989C2149.71 833.339 2086.95 893.749 2086.95 893.749Z" fill="#F9AF79"/>
<path fill-rule="evenodd" clip-rule="evenodd" d="M2114.8 789.019C2141.32 787.269 2160.89 752.749 2160.89 752.749C2140.19 716.159 2111.28 687.809 2111.28 687.809C2037.75 715.849 2102.81 781.079 2114.8 789.019Z" fill="#6D96CE"/>
<path fill-rule="evenodd" clip-rule="evenodd" d="M2086.95 893.749C2086.95 893.749 2082.41 893.079 2079.46 890.509C2076.49 887.899 2067.1 880.619 2066.53 882.899C2065.96 885.139 2073.33 888.639 2069.48 889.189C2065.59 889.759 2059.53 887.169 2053.46 888.109C2047.33 889.029 2037.99 903.049 2040.86 904.699C2043.73 906.389 2054.25 900.829 2057.06 902.769C2059.81 904.699 2079.57 915.509 2095.31 908.269C2111.11 901.019 2086.95 893.749 2086.95 893.749Z" fill="#F9AF79"/>
<path fill-rule="evenodd" clip-rule="evenodd" d="M426.56 924.75C410.48 924.83 411.17 927.46 409.11 927.38C406.63 927.34 379.35 909.57 379.35 909.57C379.35 909.57 298.39 857.66 294.12 854.73L239.97 773.18L190.85 786.74C190.85 786.74 252.16 873.95 256.21 878C260.26 882.05 377.8 940.11 388.04 945.54C388.04 945.54 397.85 956.29 404.2 962.86C410.51 969.37 419.55 972.96 421.56 974.52C421.93 974.78 429.13 979.67 439.66 983.46C448.78 986.72 441.61 979.65 441.61 979.65C441.61 979.65 425.85 970.71 426.79 969.65C427.48 968.84 435.83 974.21 445.82 977.91C448.32 978.85 450.91 979.78 453.27 980.64C459.42 982.86 462.45 979.87 456.43 976.57C454.27 975.43 450.65 973.56 447.88 972.58C444.89 971.56 442.55 969.69 440.1 968.45C435.46 965.99 431.96 964.24 432.16 964.07C432.4 963.93 431.85 962.81 434.6 963.72C437.96 964.84 444.47 968.75 449.46 970.01C452.29 970.72 458.17 972.62 458.17 972.62C458.17 972.62 467.51 973.88 467.72 973.35C469.12 970.66 462.9 968.06 458.93 967.53C456.55 965.98 450.36 964.21 450.36 964.21C450.36 964.21 438.61 957.88 439.45 956.23C439.82 955.58 447.51 958.61 455.53 960.52C462.94 962.27 470.72 962.88 471.24 961.46C472.18 959.22 464.12 956.41 464.12 956.41C464.12 956.41 458.44 954.78 456.55 954.09C454.35 953.3 448 950.38 448 950.38C448 950.38 426.3 939.31 427.28 937.86C428.26 936.41 432.29 933.73 433.88 933.95C435.43 934.19 438.13 936.09 439.7 936.33C441.29 936.57 443.51 935.56 443.95 933.74C444.36 931.89 437.11 927.9 437.11 927.9C437.11 927.9 431.3 924.75 426.56 924.75Z" fill="#F9AF79"/>
<path fill-rule="evenodd" clip-rule="evenodd" d="M207.379 824.359L265.029 802.619C265.029 802.619 258.519 774.019 244.509 753.289C209.149 675.789 169.639 685.779 164.369 717.579C156.999 743.109 207.379 824.359 207.379 824.359Z" fill="#466FB5"/>
</svg>
