<?xml version="1.0" encoding="utf-8"?>
<!-- Generator: Adobe Illustrator 28.0.0, SVG Export Plug-In . SVG Version: 6.00 Build 0)  -->
<svg version="1.1" xmlns="http://www.w3.org/2000/svg" xmlns:xlink="http://www.w3.org/1999/xlink" x="0px" y="0px" width="600px"
	 height="600px" viewBox="0 0 600 600" style="enable-background:new 0 0 600 600;" xml:space="preserve">
<style type="text/css">
	.st0{fill:#F8F9FA;}
	.st1{fill:#B3BEC9;}
	.st2{fill:#242B32;}
	.st3{fill:#4D5C6B;}
	.st4{fill:#D6DCE1;}
	.st5{fill:#F2673C;}
	.st6{fill:#D8DEE8;}
	.st7{fill:#F4F7FA;}
	.st8{fill:#FFBE9D;}
	.st9{fill:#343F49;}
	.st10{fill:#FFFFFF;}
	.st11{fill:#5D7082;}
	.st12{fill:#D95C36;}
	.st13{fill:none;}
</style>
<g id="Background">
</g>
<g id="Illustration">
	<g>
		<path class="st0" d="M307.4,69.2C185.8,65.6,80.5,153.8,64.5,269.6c-17.4,126.6,78.4,240.5,196.2,258.7
			c146.6,22.7,288.7-108.6,276-251C527.1,170.1,431,72.9,307.4,69.2z"/>
		<g>
			<g>
				<path class="st1" d="M513.8,112.7h-21.9c-1.8,0-3.2,1.6-3.2,3.3c0,1.8,1.4,3.3,3.2,3.3h13l-93,85.9l-58.5-53.6
					c-1.3-1.2-3.2-1.1-4.4,0.1L236.8,259.4l-48.7-45.9c-1.3-1.2-3.3-1.2-4.5,0.1L68.4,329.2c-1.3,1.3-1.3,3.3,0,4.6
					c0.6,0.6,1.5,0.9,2.3,0.9c0.8,0,1.7-0.3,2.3-1l113-113.5l48.6,45.9c1.3,1.2,3.2,1.2,4.5,0l112.1-107.7l58.5,53.6
					c1.2,1.1,3.1,1.1,4.3,0l96.4-89.1v13.9c0,1.8,1.6,3.2,3.3,3.2c1.8,0,3.3-1.4,3.3-3.2v-20.7C517.1,114.4,515.5,112.7,513.8,112.7
					z"/>
				<circle class="st1" cx="187.2" cy="217.4" r="12.5"/>
				<circle class="st1" cx="236.9" cy="261.9" r="12.5"/>
				<circle class="st1" cx="351.8" cy="156.7" r="12.5"/>
				<circle class="st1" cx="412.5" cy="205.3" r="12.5"/>
			</g>
		</g>
		<path class="st2" d="M295.8,109.1c-13.3,112.2-26.6,223.3-39.8,333.1c-0.6,4.9,2.8,9.3,7.6,9.7c53.4,5.1,106.7,10.2,160.1,15.5
			c9.5,0.5,14.7-4.9,15.4-10.2c13.7-118.6,27.3-238.5,41-359.5c0.6-5.4-4-10.1-13.5-9.6c-53.6,3.8-107.2,7.6-160.9,11.3
			C300.8,99.7,296.4,104,295.8,109.1z"/>
		<path class="st3" d="M288.4,108.8c-13.4,112.7-26.7,224.2-40.1,334.5c-0.6,4.9,2.8,9.3,7.6,9.7c55.4,4.7,110.8,9.5,166.2,14.4
			c5.1,0.4,9.7-3.6,10.3-8.9c13.8-119.1,27.5-239.6,41.3-361.2c0.6-5.5-3-9.7-8.1-9.3c-55.8,3.7-111.6,7.4-167.3,11
			C293.4,99.4,289,103.8,288.4,108.8z"/>
		<path class="st0" d="M291.6,127.3c-12.4,104.4-24.7,207.8-37.1,310.2c-0.6,4.6,2.6,8.7,7.1,9.1c52.1,4.3,104.2,8.6,156.3,13
			c4.7,0.4,9-3.3,9.6-8.3c12.7-110.1,25.4-221.2,38.1-333.4c0.6-5.1-2.8-9-7.6-8.7c-52.4,3.1-104.9,6.1-157.3,9.1
			C296.3,118.5,292.1,122.6,291.6,127.3z"/>
		<path class="st4" d="M376.5,104.5c-0.2,1.8,1,3.2,2.7,3.1c1.7-0.1,3.3-1.7,3.5-3.5c0.2-1.8-1-3.2-2.7-3.1
			C378.2,101.1,376.7,102.7,376.5,104.5z"/>
		<ellipse class="st5" cx="357.7" cy="191.2" rx="12" ry="14.1"/>
		<ellipse class="st5" cx="310" cy="191.2" rx="12" ry="14.1"/>
		<ellipse class="st6" cx="334" cy="191.2" rx="12.2" ry="14.1"/>
		<ellipse class="st5" cx="262.3" cy="191.2" rx="12" ry="14.1"/>
		<ellipse class="st6" cx="286.3" cy="191.2" rx="12.2" ry="14.1"/>
		<ellipse class="st6" cx="238.5" cy="191.2" rx="12.2" ry="14.1"/>
		<ellipse class="st6" cx="381.7" cy="191.2" rx="12.2" ry="14.1"/>
		<polygon class="st5" points="468.1,107.8 393.7,193.1 201.6,193.1 294.7,118.6 		"/>
		<g>
			<polygon class="st7" points="468.1,107.8 393.7,193.1 369.6,193.1 448,109 			"/>
			<polygon class="st7" points="426.6,110.4 345.9,193.1 322.1,193.1 404.9,111.7 			"/>
			<polygon class="st7" points="383.1,113.1 298.3,193.1 274.4,193.1 361.1,114.4 			"/>
			<polygon class="st7" points="316.7,117.2 339,115.8 250.4,193.1 226.4,193.1 			"/>
		</g>
		<path class="st5" d="M226.4,193.1c-0.8,6.9-5.8,12.2-11.9,12.2s-11.1-5.3-11.9-12.2H226.4z"/>
		<g>
			<g>
				<g>
					<g>
						<path class="st4" d="M286.2,356.8c-0.3,3.2,2.1,5.9,5.2,6l115.7,4.7c3.4,0.1,6.5-2.4,7-5.8l3.3-24.9c0.5-3.4-2-6.3-5.4-6.4
							L294.5,327c-3.2-0.1-6,2.5-6.3,5.8L286.2,356.8z"/>
						<path class="st4" d="M284,382.7c-0.3,3.1,2,5.8,5.2,6l114.4,5.6c3.4,0.2,6.4-2.3,6.9-5.6l0.3-2.5c0.4-3.3-2-6.1-5.3-6.2
							l-115.1-5.2c-3.1-0.1-5.9,2.3-6.2,5.5L284,382.7z"/>
					</g>
				</g>
				<g>
					<path class="st5" d="M309.4,263.9l100.7,0.8c1.7,0,3.2-1.3,3.4-2.8l0.9-6.7c0.2-1.6-1-2.9-2.7-2.9l-101.2,0
						c-1.5,0-2.8,1.2-2.9,2.7l-0.6,6.3C306.9,262.7,308,263.9,309.4,263.9z"/>
					<path class="st5" d="M312.8,266.3l5,31.1c0.3,2,2,3.4,4,3.4l65.9,2.2c2.3,0.1,4.4-1.3,5.2-3.3l12.9-32.5L312.8,266.3z
						 M379.8,272.4c0.2-1.3,1.4-2.3,2.8-2.3l2.4,0c1.4,0,2.4,1.1,2.2,2.4l-3,25.2c-0.2,1.3-1.4,2.3-2.8,2.2l-2.4-0.1
						c-1.4,0-2.3-1.1-2.2-2.4L379.8,272.4z M366.6,272.3c0.1-1.3,1.4-2.3,2.7-2.3l2.3,0c1.4,0,2.3,1.1,2.2,2.4l-2.8,24.9
						c-0.1,1.3-1.4,2.3-2.7,2.2l-2.3-0.1c-1.3,0-2.3-1.1-2.2-2.4L366.6,272.3z M353.7,272.1c0.1-1.3,1.3-2.3,2.7-2.3l2.3,0
						c1.3,0,2.3,1.1,2.2,2.3l-2.7,24.7c-0.1,1.3-1.3,2.2-2.6,2.2l-2.3-0.1c-1.3,0-2.3-1.1-2.1-2.3L353.7,272.1z M341,271.9
						c0.1-1.3,1.3-2.3,2.6-2.3l2.3,0c1.3,0,2.3,1.1,2.1,2.3l-2.6,24.5c-0.1,1.2-1.3,2.2-2.6,2.2l-2.2-0.1c-1.3,0-2.2-1.1-2.1-2.3
						L341,271.9z M328.5,271.8c0.1-1.3,1.3-2.3,2.6-2.2l2.2,0c1.3,0,2.2,1,2.1,2.3l-2.4,24.3c-0.1,1.2-1.3,2.2-2.5,2.2l-2.2-0.1
						c-1.3,0-2.2-1.1-2.1-2.3L328.5,271.8z"/>
					<g>
						<g>
							<path class="st5" d="M396.4,248.9c1.4,1.3,3.8,1.1,5.4-0.4c1.6-1.5,1.7-3.8,0.3-5c-1.4-1.3-3.8-1.1-5.4,0.4
								C395.1,245.4,395,247.6,396.4,248.9z"/>
							<path class="st5" d="M367,217c0.6-0.6,1.6-0.5,2.4,0.1l29.6,26.8c0.7,0.7,0.9,1.7,0.3,2.3c-0.6,0.6-1.7,0.5-2.4-0.2
								l-29.5-26.8C366.5,218.6,366.4,217.5,367,217z"/>
						</g>
						<g>
							<path class="st5" d="M324.8,249.1c-1.5,1.2-3.7,1.1-4.8-0.3c-1.1-1.4-0.8-3.5,0.8-4.8c1.5-1.2,3.7-1.1,4.8,0.3
								C326.7,245.7,326.4,247.8,324.8,249.1z"/>
							<path class="st5" d="M359.5,217.1c-0.4-0.6-1.5-0.5-2.4,0.2l-33.6,27c-0.8,0.6-1.1,1.6-0.7,2.2c0.4,0.5,1.4,0.5,2.2-0.2
								l33.7-26.9C359.6,218.7,359.9,217.7,359.5,217.1z"/>
						</g>
					</g>
				</g>
			</g>
		</g>
		<path class="st2" d="M233.3,506.4c-0.2-1-3.3-1.9-4.9-0.6c-0.8,0.7-1.3,2-0.9,2.6c0.2,0.2-0.5,0.6,0.1,0.6
			C229.8,509,233.5,507.4,233.3,506.4z"/>
		<path class="st8" d="M229.9,506.4l-3.3,0.2c1.1-2.1-0.2-7.7-0.2-7.7l3.5,0.1c0,0-0.1,1.6-0.3,4.1
			C229.5,503.9,229.7,505.1,229.9,506.4z"/>
		<path class="st2" d="M230.3,506.4c0,0-3.9-0.9-4.3-0.1c-0.4,0.8-0.8,2.9,1.7,2.8C230.2,508.9,230.5,507,230.3,506.4z"/>
		<path class="st2" d="M274.8,513.5c-0.3-0.9-3.6-1.4-4.9,0.1c-0.7,0.8-1,2.1-0.5,2.7c0.2,0.2-0.4,0.7,0.2,0.6
			C271.7,516.6,275.1,514.4,274.8,513.5z"/>
		<path class="st8" d="M271,514.4l-3.2,0.6c0.8-2.2-1.3-7.6-1.3-7.6l3.5-0.4c0,0,0.1,1.6,0.3,4.1C270.3,511.9,270.6,513.2,271,514.4
			z"/>
		<path class="st2" d="M271.8,513.9c0,0-4-0.3-4.3,0.5c-0.3,0.8-0.3,2.9,2.1,2.5C272.1,516.5,272.1,514.5,271.8,513.9z"/>
		<path class="st9" d="M242.2,401c-0.9,15-2.1,30.6-3.8,46.7c-1.9,18.7-4.2,36.6-6.9,53.5c-3.2,1.1-6.2,0-6.2,0s-3.8-6.2-6.6-22.5
			c-1.8-10.5-2-10.4-2-12.2c-0.1-9.3,3.1-11.9,3.8-20.2c0.6-7.6-1.9-9.9-3.3-18.6c-1.1-6.6-1.5-16.3,2-28.9
			C226.9,399.6,234.6,400.3,242.2,401z"/>
		<path class="st2" d="M242.2,401c-0.9,15-2.1,30.6-3.8,46.7c-1.9,18.7-4.2,36.6-6.9,53.5c-3.2,1.1-6.2,0-6.2,0
			c0-1.6,0.2-3.9,0.5-6.8c0.9-7.6,2.3-9.7,2.4-14.4c0.2-6-2-6.1-2.4-12c-0.7-9.1,4.3-11.2,4.8-19.2c0.5-8.4-4.8-11.2-8.8-21.6
			c-2.4-6.2-4.5-15.4-2.7-28.4C226.9,399.6,234.6,400.3,242.2,401z"/>
		<path class="st9" d="M258.4,400.6c4.4,14.8,8.7,33.3,11.1,54.7c2.3,20.8,2.3,39.3,1.3,54.5c-1.4,0.4-2.8,0.8-4.2,1.2
			c-8.1-8.5-11.1-16.4-12.2-22.1c-1.6-8.5,0.8-11.3-1.3-20.9c-0.5-2.2-1.2-4.6-9.3-20.4c-7.7-15.1-9.3-17.3-10.6-22.8
			c-1.9-7.8-1.4-14.6-0.7-19.3C241.1,403.9,249.8,402.2,258.4,400.6z"/>
		<path class="st2" d="M293.1,368.5l13.8-32.4c0.7-1.6-0.2-3.5-1.9-3.9l-25.3-6.1c-1.4-0.3-2.8,0.4-3.3,1.7l-12.7,31.1
			c-0.6,1.5,0.2,3.3,1.8,3.8l24.2,7.4C291.1,370.5,292.6,369.8,293.1,368.5z"/>
		<path class="st10" d="M292.5,366.9l12.9-30.2c0.6-1.5-0.2-3.2-1.8-3.6l-23.6-5.7c-1.3-0.3-2.6,0.4-3.1,1.6L265,358
			c-0.6,1.4,0.2,3.1,1.7,3.5l22.6,6.9C290.6,368.8,292,368.2,292.5,366.9z"/>
		<path class="st8" d="M300.5,358l0.4-3.8l2.2-4.2c0.3-0.6,0.5-1.2,0.5-1.8V344l-2.7,6.1c0,0-1.7-1.6-2.4-1.9
			c-0.7-0.3-0.6,1-0.1,1.5c0.5,0.5-0.2,4.6,0.2,5l-0.2,2.5L300.5,358z"/>
		<path class="st11" d="M279.4,333.7c-2.1-5-6.5-7.9-8.8-9.5c-5.4-3.6-8.9-2.9-21.4-4.8c-16.6-2.5-18.6-4.9-24.2-3
			c-7.3,2.6-11.2,9.2-12.9,12.3c-8.9,15.4,1.5,23.2-1.2,53.9c-1.1,12.5-3.9,23.4,2.8,29.9c1.4,1.4,3,2.1,6.1,3.5
			c12.5,5.6,23.7,4.7,30.5,4c7.5-0.7,11.3-1.2,13.3-3.8c3.2-4.2-0.1-9.6-0.7-18.9c-0.4-6.7,1.1-12,4.1-22.6
			C274.2,350.1,283.4,343.4,279.4,333.7z"/>
		<path class="st8" d="M251.6,310.4c0.8-2.7-0.6-5.2-0.9-5.7c-1.2-2.3-1.5-2.6-2.1-3l-0.8-0.5c0,0,0,0-0.1,0
			c-0.5-0.2-2.3-0.2-2.7-0.2c-1.1,0.2-2.4,4.9-2,11.5c0,0.3-0.1,0.5-0.1,0.8c-0.2,1-0.3,2.1-0.4,3.1c-0.1,1-1.5,0.9-2.4,0.9
			c-3.9-0.2-5.8,0.1-6,0.7c-0.3,1.1,4.3,4.6,10,5.4c7.7,0.1,13.9-0.8,13.2-2c-0.3-0.5-6.2-2.1-7.9-3.6c-1.5-1.4-1.4-2.9-1.5-3.9
			C248.3,313.6,251,312.4,251.6,310.4z"/>
		<path class="st2" d="M250.2,299.3c0,2-1,4.2-1.5,4.6c-0.1,0-0.4,0.3-0.7,0.8c0,0.1-0.1,0.1-0.1,0.2c-0.4,1.3,1.6,2.8,1.2,3.4
			c-0.3,0.4-1.7-0.1-1.8,0.2c-0.2,0.3,1,1,0.8,1.5c-0.1,0.3-0.8,0-1.3,0.5c-0.2,0.2-0.2,0.4-0.4,1.1c-0.1,0.4-0.3,0.9-0.5,1.1
			c-0.7,1.2-2.7,1.6-3.1,1.2c-0.1-0.1,0-0.2-0.1-0.7c0,0-0.1-0.4-0.4-0.9c-0.4-0.7-1.4-1.2-2.4-1.9c-1.9-1.3-2.4-2.5-2.5-2.9
			c-0.1-0.1-0.1-0.2-0.1-0.3c-0.5-1.5-0.5-3.7,0.2-5.1c1.1-2.3,3.7-1.2,5.8-3.5c2.4-2.6,1-6.2,2.3-6.6
			C246.9,291.7,250.2,295.6,250.2,299.3z"/>
		<path class="st8" d="M248.3,307.9c-0.5-0.7-1.4,0-1.4,0.9c0,0.9,0.9,1.8,1.7,1.6C249.4,310.2,249,308.8,248.3,307.9z"/>
		<path class="st2" d="M247.9,306.4l1.2,1.5c0,0,1.3,1.9,2,0.8c0.6-0.8,0.8-0.8,0.8-0.8c0,0,0,0,0,0c0,0-0.1-0.4-0.2-0.8
			c0.3,0.4,0.7,1.2,1,2.1c0.3,0.9,0.5,2,0,2.9c0,0.1-0.6,1.1-1.7,1.3c0,0-0.4,0.1-2.2-0.2c0,0,2-1.4,2-1.8c0.1-0.9-1.2-1.4-2.2-3.3
			C248.2,307.5,248,306.8,247.9,306.4z"/>
		<path class="st3" d="M243.9,411.2c2.2-4.4-3.2-10.2,0.3-16.9c3-5.7,8.4-4.4,10.9-9.6c3-6.3-3.6-11-3.3-20.6
			c0.3-11.4,10.1-22.9,15.9-21.9c3.7,0.6,4.2,6.2,6.9,12.4c-2.3,5.1-5.1,11.5-7.5,20.1c-3,10.6-4.6,15.9-4.1,22.6
			c0.6,9.3,3.8,14.7,0.7,18.9c-2,2.6-5.8,3.1-13.3,3.8c-6.8,0.7-18,1.6-30.5-4c-1.6-0.7-2.8-1.2-3.7-1.8
			C235.7,417.2,242.2,414.7,243.9,411.2z"/>
		<path class="st11" d="M301.2,357.3c-1.2-0.5-2.4-1.1-3.6-1.6c-2.1,2.1-4.7,4.1-6.9,3.5c-3.3-1-2.5-7-6.5-17.7
			c-4.5-12-9.7-15.1-12.3-16.3c-1.4-0.6-2.4-1-3.6-0.7c-5.5,1.4-7.4,15.8-5.8,26.5c0.9,6.1,2.6,18,12.4,23.6c1.4,0.8,9,5.2,16.6,1.7
			C297.9,373.5,301.9,365.8,301.2,357.3z"/>
		<path class="st8" d="M194,299.2c-0.5-0.8-1.5-2.6-1.6-4.9c-0.1-4.6,3.3-8.1,3.7-7.9c0.2,0.1-0.1,1.4-0.2,2
			c-0.4,1.2-0.8,1.3-0.7,1.9c0.1,1.2,1.7,1.2,2.6,2.8c0.6,1.1,0.7,2.7,0,3.9C196.7,299.2,194.1,299.2,194,299.2z"/>
		<path class="st2" d="M149.3,496.8c-0.9,1.8-0.6,2.6-0.4,2.9c0.6,1,2.2,0.1,6.2,0.5c0.5,0.1,1.4,0.2,2.5-0.1c1-0.2,2.1-0.7,2-1
			c0-0.1-0.2-0.1-0.3-0.1c-1.1-0.2-8.1-2.4-8.1-2.4L149.3,496.8z"/>
		<path class="st8" d="M148.7,492.9l0.6,4c0,0,1.7,1.2,2.2-0.3c0.3-1.1,0.3-3.9,0.3-3.9L148.7,492.9z"/>
		<polygon class="st8" points="169,494.9 167.3,499.5 164.9,499.1 165.4,494.8 		"/>
		<path class="st2" d="M166.6,502c-1.2-1.4-2.2-1.3-2.5-2.2c-0.2-0.8,0.3-1.7,1-2c1-0.5,2.2,0.3,2.5,0.5c1.8,1.2,1.3,3.1,3.1,3.9
			c0.3,0.2,0.9,0.3,1.5,0.9c0.2,0.2,0.9,0.8,0.7,1.2c-0.2,0.5-1.3,0.4-2.3,0.4c-1.2,0-1.9,0-2.5-0.4
			C167.2,503.6,167.5,503.1,166.6,502z"/>
		<path class="st9" d="M135.6,397.2c0.5,9.3,1.8,17.2,3.3,23.7c1.6,7,2.5,8.2,3.1,13c1.2,10.5-2.1,12.1-2.5,24
			c-0.4,13.2,3.3,23.5,4.8,27.5c1.3,3.5,2.6,6.2,3.6,8.2c1.2,1,3.1,0.6,5,0.1c0.5-11.9,1.1-23.2,1.6-35.1c1.9-18,3.8-36,5.8-53.9
			C152,402.2,143.8,399.7,135.6,397.2z"/>
		<path class="st2" d="M152.8,493.7c0.5-11.9,1.1-23.2,1.6-35.1c1.9-18,3.8-36,5.8-53.9c-8.2-2.5-16.4-5-24.6-7.5
			c0,0.6,0.1,1.2,0.1,1.8c11.6,9.7,14,17.5,14,22.8c0,6.5-3.5,9.8-2.6,19.2c0.6,6.7,2.7,7.9,2.8,13.9c0.2,7.8-3.1,12.3-4.6,16.8
			c-1.5,4.4-1.9,10.6,1.3,19.3c0.4,0.9,0.8,1.7,1.2,2.4C149.1,494.6,150.9,494.2,152.8,493.7z"/>
		<path class="st9" d="M150.2,405.9c6.2,10,9.7,17.8,11.6,22.7c1.2,3,2.2,6.1,2.5,10.2c0.4,5-0.5,9.1-1.3,11.8
			c-1.2,3.4-2.2,7.4-2.9,11.8c-2,14.5,1.6,26.5,4.4,33.4c1.5,0.5,2.9,1,4.4,1.5c3.1-9.2,6.8-22.3,9.3-38.4
			c1.4-8.8,2.4-15.7,2.3-24.4c-0.2-9.2-1.8-23.7-9.7-40.9C164,397.7,157.1,401.8,150.2,405.9z"/>
		<path class="st8" d="M156.8,310.2c0,0,2.6,4.7,2.9,8c0.2,3.3-3.5,3.2-3.5,3.2l0.2,2.1c0.2,1.8,1.4,3.3,3.1,3.9l1.5,0.5
			c0,0-9.7,2.3-15-1.3l1.5-0.2c2.2-0.3,3.8-2,4-4.2l0.1-0.9C151.5,321.3,149.6,311,156.8,310.2z"/>
		<path class="st5" d="M200.4,312.8c-0.1-6.3-1.7-11.3-3-14.4c-0.5-0.2-1.3-0.3-2.3-0.3c-0.9,0-1.7,0.2-2.2,0.4
			c0.2,2.2,1,11.9-5.7,20.1c-6.2,7.6-15.1,9.2-16.7,9.4c-6.1,0.9-9.5-0.9-12.1-0.7c-2-0.4-4.3-0.8-6.6-1.1
			c-0.8-0.1-6.2-0.9-13.2-0.1c-4.6,0.5-10.7,1.3-11.8,4.7c-0.3,0.9-0.2,1.6,0,2.1c1.6,5.8,1.7,11.9,3.8,17.5
			c3.2,8.6,2.6,23.2-4.2,29.3c-6.8,6.1-14.7-0.6-22.6,6.3c-5.5,4.9-4.2,10.4-11.1,14.5c-5.3,3.3-9.1,1.7-10.2,4.3
			c-1.9,4.3,5.1,14.2,14.5,17.7c9.3,3.5,12.3-2.6,32.8-4.2c12.5-1,17.2,0.8,26.4-2.6c6.4-2.4,11-5.8,13.9-8.3c1.3-2.7,3.2-7.2,4-13
			c2.5-17.3-7.5-23.4-5.7-40.6c0-0.1,0-0.2,0-0.3c8.8-0.5,19-9.5,24-16.1C200.4,326.9,200.4,315.3,200.4,312.8z"/>
		<path class="st12" d="M97.9,416.2c2.8-2,1.1-7.3,5.3-10.2c3.8-2.7,7,0.7,12.7-1.2c7.3-2.4,6.8-9.5,13.8-11.9
			c5.1-1.7,6.7,1.5,14,1.5c7.3,0,16.9-3.2,22.8-11.1c2.5-3.4,3.9-6.9,4.6-10.2c2.1,6.3,4.4,12.4,3,21.6c-0.8,5.8-2.7,10.3-4,13
			c-2.9,2.5-7.6,5.9-13.9,8.3c-9.3,3.5-13.9,1.7-26.4,2.6c-20.5,1.6-23.4,7.6-32.8,4.2c-6-2.2-11.1-7.1-13.4-11.4
			C91.8,417,95.9,417.6,97.9,416.2z"/>
		<path class="st2" d="M155.4,315c-0.5,0-0.9-0.7-1.3-0.5c-0.4,0.2-0.3,1.1,0,1.8c0.3,0.5,0.7,0.8,0.9,1c-0.4,0.5-0.9,1.4-1,2.5
			c-0.4,2.4,0.9,4.3,1.5,5.5c2.5,5.1-1.1,13.2-5.1,17.4c-3.3,3.4-4.8,2.1-6.8,4.8c-3.8,5.4,1.7,11-0.1,18.2
			c-2.8,10.9-19.8,14.4-20.5,14.6c-0.3,0.1-0.5,0.1-0.8,0.1c-7.6,1.4-19.2,3.5-27.5-2.6c-6.2-4.6-9.2-12.7-8.9-19.9
			c0.1-1.9,0.5-9.1,6.2-15.1c0.9-1,6.3-6.6,13.7-6.8c3.9-0.1,4.8,1.3,7.8,0.3c4.1-1.3,6.6-5.1,8.1-7.4c2.8-4.3,1.6-5.2,3.7-7.4
			c4-4.2,8.9-1.1,13.2-4.8c4.2-3.7,1.5-8.5,5.6-11.7c4.2-3.3,12.4-2.4,14.3,1.4C160,309.6,156.9,315.1,155.4,315z"/>
	</g>
	<rect y="0" class="st13" width="600" height="600"/>
</g>
</svg>
