<?xml version="1.0" encoding="utf-8"?>
<!-- Designed by Vexels.com - 2020 All Rights Reserved - https://vexels.com/terms-and-conditions/  -->
<svg version="1.1" id="Layer_1" xmlns="http://www.w3.org/2000/svg" xmlns:xlink="http://www.w3.org/1999/xlink" x="0px" y="0px"
	 viewBox="0 0 1200 1200" enable-background="new 0 0 1200 1200" xml:space="preserve">
<g>
	<path fill="#F29681" d="M602.234,391.505c-0.442,7.255-0.883,14.509-1.325,21.764c-0.201,3.292-0.42,6.66-1.715,9.692
		c-1.806,4.229-5.602,7.401-9.846,9.178c-1.142,0.478-2.314,0.861-3.507,1.171c-3.244,0.839-6.649,1.109-10.013,1.106
		c-20.06-0.007-38.813-9.076-57.639-16.005c-16.899-6.222-34.357-10.82-51.352-16.797c-1.434-0.504-2.901-1.036-4.051-2.033
		c-2.751-2.379-2.883-6.569-2.434-10.181c1.117-8.984,4.525-17.673,9.791-25.034c0.617-0.865,1.259-1.711,1.927-2.536l11.083-6.842
		c0.215,0.106,0.427,0.212,0.642,0.321c3.777,1.883,7.554,3.762,11.331,5.645c10.842,5.404,21.684,10.805,32.525,16.206
		c6.215,3.098,12.553,6.233,19.41,7.32c3.543,0.562,7.152,0.562,10.743,0.58c14.371,0.062,28.891,0.427,42.816,3.989
		c0.442,0.113,0.905,0.244,1.215,0.577C602.289,390.107,602.274,390.844,602.234,391.505z"/>
	<path fill="#EE7471" d="M585.842,433.31c-3.244,0.839-6.649,1.109-10.013,1.106c-20.06-0.007-38.813-9.076-57.639-16.005
		c-16.899-6.222-34.357-10.82-51.352-16.797c-1.434-0.504-2.901-1.036-4.051-2.033c-2.751-2.379-2.883-6.569-2.434-10.181
		c1.117-8.984,4.525-17.673,9.791-25.034c2.35-1.66,4.7-3.313,7.05-4.967c2.109-1.489,4.28-3,6.601-4.091
		c3.777,1.883,7.554,3.762,11.331,5.645c-3.624,5.682-7.152,11.542-8.619,18.104c-1.587,7.094-0.299,15.287,5.076,20.184
		c1.985,1.806,4.401,3.069,6.784,4.306c8.565,4.456,17.261,8.959,26.694,11.017c0.653,0.142,1.361,0.266,1.967-0.015
		c0.635-0.299,0.996-0.971,1.277-1.617c0.865-1.996,1.365-4.146,2.376-6.072c1.007-1.927,2.693-3.686,4.846-4
		c0.591,3.211-1.445,6.404-1.182,9.66c0.409,5.039,5.879,7.959,10.769,9.221c7.12,1.843,14.531,2.204,21.768,3.507
		C573.726,426.482,580.667,428.712,585.842,433.31z"/>
	<polygon fill="#31353E" points="291.372,780.543 416.156,794.8 416.156,787.672 292.844,772.396 	"/>
	<polygon fill="#31353E" points="325.679,764.666 450.464,772.396 450.464,768.531 327.152,760.248 	"/>
	<polygon fill="#31353E" points="206.386,839.006 392.332,743.882 434.595,691.293 397.786,653.167 341.272,662.261 
		247.997,763.034 	"/>
	<path fill="#F7D7A6" d="M415.668,672.866L206.386,839.007c-0.602,0.474-1.485,0.325-1.89-0.325L86.218,649.642l-3.729-5.963
		l-31.5-50.344c-1.697-2.708-1.164-6.247,1.252-8.338l177.18-153.449c0.109-0.091,0.23-0.168,0.358-0.215
		c0.153-0.069,0.321-0.102,0.493-0.102h0.015l85.964,1.343c0.31,0.004,0.609,0.124,0.839,0.332l48.148,43.451l9.422,8.503
		c0.201,0.182,0.339,0.42,0.394,0.679l41.072,186.044C416.234,672.059,416.055,672.559,415.668,672.866z"/>
	<path fill="#31353E" d="M378.731,552.048l-13.495-75.692l-48.148-43.451l-0.358-0.325l-0.482-0.007l-85.964-1.343h-0.015
		c-0.172,0-0.339,0.033-0.493,0.102l33.775,57.779L82.488,643.679l3.729,5.963l181.511-153.388l52.199,89.297L378.731,552.048z"/>
	<path fill="#E8E5DE" d="M489.025,529.437c-0.785,0.442-1.715,0.504-2.613,0.562c-40.273,2.551-79.465,13.513-118.446,23.931
		c-13.217,3.529-26.712,7.036-40.371,6.295c-4.113-0.223-8.411-0.916-11.656-3.448c-5.485-4.288-6.025-11.488-9.368-17.593
		c-9.083-16.571-13.225-35.328-17.162-53.808c-6.817-32-13.334-64.062-19.549-96.182c-2-10.324-3.974-20.742-3.788-31.255
		c0.19-10.51,2.697-21.257,8.915-29.737c11.064-15.079,31.365-20.104,50.06-20.669c3.602-0.109,7.127-0.708,10.678-1.303
		c7.554-1.259,15.564-1.46,20.498-0.77c1.047-0.23,2.095-0.438,3.149-0.624c17.531-3.142,36.04-0.657,52.1,7.058
		c5.97,2.868,11.699,6.463,18.155,7.93c3.795,0.858,7.795,0.971,11.367,2.514c4.467,1.93,7.762,5.926,9.984,10.258
		c1.142,2.23,2.04,4.569,2.865,6.941c0.774,2.23,1.478,4.492,2.255,6.722c0.489,1.401,1.004,2.792,1.544,4.175
		c4.788,12.298,11.269,24.026,13.925,36.941c1.347,6.554-4.054,18.753-5.347,25.32c-4.275,21.722-1.919,18.195-1.762,29.641
		c0.337,24.569,2.303,26.984,12.411,51.318c0.718,1.728-0.584,3.744-0.204,5.576c0.051,0.252,0.117,0.5,0.197,0.748
		c1.018,3.335,3.974,6.171,3.686,9.648c-0.091,1.124-0.529,2.281-0.153,3.346c0.175,0.489,0.493,0.88,0.879,1.215
		c0.518,0.456,1.168,0.814,1.763,1.175c2.817,1.693,5.153,4.178,6.667,7.098c0.015,0.026,0.026,0.055,0.04,0.08
		C490.904,524.836,491.251,528.175,489.025,529.437z"/>
	<path fill="#969593" d="M489.025,529.437c-0.785,0.442-1.715,0.504-2.613,0.562c-40.273,2.551-79.465,13.513-118.446,23.931
		c-13.217,3.529-26.712,7.036-40.371,6.295c-4.113-0.223-8.411-0.916-11.656-3.448c-5.485-4.288-6.025-11.488-9.368-17.593
		c-9.083-16.571-13.225-35.328-17.162-53.808c-6.817-32-13.334-64.062-19.549-96.182c-2-10.324-3.974-20.742-3.788-31.255
		c0.19-10.51,2.697-21.257,8.915-29.737c11.064-15.079,31.365-20.104,50.06-20.669c3.602-0.109,7.127-0.708,10.678-1.303
		c7.554-1.259,15.564-1.46,20.498-0.77c1.047-0.23,2.095-0.438,3.149-0.624c4.332,5.273,6.999,11.907,7.017,18.742
		c0.015,5.51-1.489,10.962-1.306,16.469c0.182,5.51,2.682,11.564,7.871,13.425c2.803,1.007,5.897,0.62,8.824,0.066
		c14.356-2.733,27.759-9.214,42.028-12.364c9.835-2.171,20.023-2.715,30.037-1.638c0.774,2.23,1.478,4.492,2.255,6.722
		c0.489,1.401,1.004,2.792,1.544,4.175c-22.067,18.188-49.239,29.752-74.466,43.67c-9.714,5.361-19.914,11.962-23.439,22.479
		c-0.423,1.263-0.733,2.678-0.193,3.894c1.014,2.277,4.131,2.434,6.616,2.241c13.608-1.073,27.219-2.146,40.827-3.219
		c2.751,2.762-2.036,6.623-5.824,7.539c-9.773,2.365-19.549,4.729-29.321,7.094c-9.455,2.285-19.95,5.324-24.738,13.794
		c-3.076,5.437-3,12.517,0.193,17.885c3.193,5.372,9.378,8.82,15.622,8.714c4.321-0.073,8.47-1.708,12.772-2.128
		c4.302-0.42,9.32,0.843,11.218,4.729c-5.426,2.908-11.893,2.799-17.943,3.941c-6.05,1.142-12.597,4.459-13.907,10.477
		c-1.281,5.89,3.343,11.776,8.933,14.035c5.591,2.263,11.86,1.799,17.867,1.299c26.716-2.219,53.432-4.437,80.148-6.656
		c4.937-0.409,9.962-0.81,14.856-0.244c1.018,3.335,3.974,6.171,3.686,9.648c-0.091,1.124-0.529,2.281-0.153,3.346
		c0.175,0.489,0.493,0.88,0.879,1.215c-12.484-0.073-25.026-1.701-37.543-2.007c-17.334-0.423-35.853,2.179-49.009,13.473
		c8.214,1.609,16.637-0.46,24.858-2.022c23.081-4.379,46.911-4.755,70.116-1.099c0.015,0.004,0.033,0.004,0.047,0.007
		C490.904,524.836,491.251,528.175,489.025,529.437z"/>
	<g>
		<path fill="#969593" d="M606.164,991.897l-0.004,0.004c0,0-0.015,0.007-0.04,0.018c-2.686,1.321-5.51,2.368-8.462,3.116
			c-11.167,4.043-30.675,10.864-41.977,13.385c31.828-7.255,49.396-49.268,39.236-93.832c-0.529-2.328-1.124-4.616-1.781-6.86
			c-9.499-32.471-31.836-56.088-55.778-60.876c6.273-6.455,13.867-10.991,22.516-12.962c29.464-6.714,60.818,18.698,73.378,57.855
			c1.011,3.146,1.898,6.382,2.653,9.7C645.003,941.352,631.866,979.206,606.164,991.897z"/>
		
			<ellipse transform="matrix(0.975 -0.2223 0.2223 0.975 -192.7717 142.6342)" fill="#31353E" cx="537.283" cy="927.728" rx="59.114" ry="82.765"/>
		
			<ellipse transform="matrix(0.975 -0.2223 0.2223 0.975 -193.3147 141.8515)" fill="#E8E5DE" cx="533.534" cy="929.749" rx="36.314" ry="50.843"/>
		
			<ellipse transform="matrix(0.975 -0.2223 0.2223 0.975 -193.4855 141.2319)" fill="#F2A661" cx="530.696" cy="930.197" rx="24.498" ry="34.299"/>
		<path fill="#31353E" d="M633.252,891.745c-13.922,5.525-30.529,12.126-40.116,15.983c-9.499-32.471-31.836-56.088-55.778-60.876
			c6.273-6.455,13.867-10.991,22.516-12.962C589.338,827.176,620.692,852.589,633.252,891.745z"/>
	</g>
	<path fill="#969593" d="M588.794,617.098l-13.852,7.145c-20.312,15.024-40.623,30.047-60.935,45.071
		c-11.163,8.258-22.344,16.531-33.211,25.18c-9.473,7.539-18.702,15.363-27.471,23.713c-8.251,7.86-16.122,16.21-25.413,22.807
		c-9.287,6.594-20.311,11.415-31.701,11.068c-11.386-0.347-23.005-6.714-27.314-17.261c-4.799-11.747,0.142-25.092,6.003-36.346
		c7.656-14.695,16.925-28.478,26.172-42.229c8.346-12.407,16.724-24.855,26.61-36.072c2.854-3.241,5.828-6.372,8.897-9.411
		c4.945-4.894,10.13-9.554,15.447-14.046c20.001-16.903,42.174-31.66,66.821-40.513c16.035-5.762,34.989-8.619,49.279,0.661
		c9.302,6.039,15.093,16.425,17.845,27.172C588.717,594.78,588.765,606.008,588.794,617.098z"/>
	<path fill="#31353E" d="M515.598,639.377l-7.882,15.068c-12.885,10.013-20.06,24.957-26.92,40.05
		c-9.473,7.539-18.702,15.363-27.471,23.713c-8.251,7.86-16.122,16.21-25.413,22.807c-9.287,6.594-20.311,11.415-31.701,11.068
		c-11.386-0.347-23.005-6.714-27.314-17.261c-4.799-11.747,0.142-25.092,6.003-36.346c7.656-14.695,16.925-28.478,26.172-42.229
		c8.346-12.407,16.724-24.855,26.61-36.072c2.854-3.241,5.828-6.372,8.897-9.411c10.382-7.401,21.18-14.203,32.376-20.308
		c6.302-3.434,12.863-6.693,19.965-7.733c7.098-1.04,14.903,0.453,20.034,5.467c4.715,4.605,6.517,11.396,7.466,17.918
		C518.025,617.139,517.744,628.44,515.598,639.377z"/>
	<path fill="#EB545D" d="M681.444,828.548c-19.476,15.557-42.641,25.534-65.193,36.229c-1.547,0.73-3.091,1.467-4.627,2.208
		c-8.937,4.306-17.772,8.82-26.497,13.535c-18.823,10.17-37.134,21.286-54.848,33.284c-6.944,4.7-13.798,9.539-20.552,14.513
		c-8.12,5.977-16.246,12.229-25.676,15.79c-9.433,3.562-20.596,4.069-29.168-1.233c-4.726-2.923-8.557-7.499-13.896-9.036
		c-5.667-1.631-11.758,0.544-17.611-0.186c-12.863-1.598-19.735-15.735-23.541-28.128c-14.024-45.655-21.315-96.208-10.116-142.637
		c2.905-12.042,10.966-22.081,18.819-31.66c21.527-26.249,43.32-52.483,68.707-75.013c13.086-11.612,27.212-22.249,42.298-31.095
		c14.195-8.32,29.234-15.057,45.068-19.538c1.883-0.533,3.839-1.022,5.813-1.398c6.474-1.226,13.181-1.23,18.41,2.482
		c3.463,2.456,5.74,6.215,7.831,9.911c26.646,47.02,40.287,102.112,76.341,142.374c2.193,2.449,4.576,4.872,7.127,7.08
		c6.912,5.988,15.049,10.408,23.91,9.51C707.342,793.808,695.946,816.966,681.444,828.548z"/>
	<path fill="#C4464D" d="M616.838,864.376c-0.197,0.135-0.39,0.27-0.588,0.401c-8.495,5.835-17.651,10.703-27.238,14.484
		c-1.259,0.496-2.562,0.978-3.886,1.259c-1.073,0.23-2.157,0.328-3.248,0.197c-2.689-0.325-5.003-2-7.101-3.711
		c-33.846-27.617-42.663-75.535-68.988-110.396c-11.827-15.662-27.004-28.416-42.043-41.028c-2.076-1.741-4.788-3.591-7.273-2.511
		c-1.306,0.569-2.171,1.843-2.741,3.146c-2.471,5.645-0.664,12.156,1.259,18.005c14.542,44.192,34.562,86.581,59.46,125.879
		c2.624,4.145,5.419,8.882,4.255,13.644c-0.963,3.93-4.375,6.7-7.579,9.17c-11.51,8.86-23.019,17.717-34.529,26.577
		c13.955-6.488,27.909-12.98,41.864-19.469c1.646-0.766,3.496-1.547,5.222-0.985c1.284,0.42,2.226,1.507,2.985,2.624
		c2.438,3.587,3.551,7.817,3.609,12.141c-6.944,4.7-13.798,9.539-20.552,14.513c-8.12,5.977-16.246,12.229-25.676,15.79
		c-9.433,3.562-20.596,4.069-29.168-1.233c-4.726-2.923-8.557-7.499-13.896-9.036c-5.667-1.631-11.758,0.544-17.611-0.186
		c-12.863-1.598-19.735-15.735-23.541-28.128c-14.024-45.655-21.315-96.208-10.116-142.637c2.905-12.042,10.966-22.081,18.819-31.66
		c21.527-26.249,43.32-52.483,68.707-75.013c13.086-11.612,27.212-22.249,42.298-31.095c0.679,0.438,1.332,0.912,1.96,1.427
		c5.284,4.339,8.404,10.725,11.083,17.016c16.447,38.638,22.246,81.279,40.039,119.314c11.356,24.282,27.515,46.305,47.265,64.423
		c4.58,4.2,9.638,8.689,10.725,14.808C632.227,851.206,624.432,859.107,616.838,864.376z"/>
	<path fill="#EB545D" d="M695.15,313.506c-0.631,1.591-1.423,3.113-2.401,4.521c-3.562,5.131-9.247,8.36-13.407,13.017
		c-0.266,0.296-0.522,0.598-0.774,0.909c-6.357,7.813-8.068,19.195-4.178,28.504l-5.875,6.291
		c-8.152,10.849-22.764,14.079-36.109,16.549c-4.945,0.916-10.032,1.835-14.965,0.865c-0.916-0.182-1.81-0.423-2.682-0.719
		c-6.696-2.248-12.13-7.565-17.655-12.159c-15.349-12.769-34.208-21.271-53.943-24.322c-7.506-1.16-15.254-1.58-22.271-4.489
		c-3.861-1.602-7.517-4.186-10.083-7.455c-2.098-2.668-3.47-5.791-3.638-9.203c-0.434-8.995,7.623-16.414,16.173-19.239
		c8.55-2.824,17.79-2.43,26.69-3.806c13.666-2.113,26.636-8.557,36.569-18.18c6.138-5.941,11.108-13.017,17.356-18.845
		c8.663-8.083,19.516-13.487,30.901-16.907c1.726-0.518,3.463-0.993,5.207-1.423c7.116-1.755,14.498-2.839,21.775-1.978
		c1.208,0.142,2.416,0.343,3.609,0.606c9.481,5.269,18.52,15.166,24.541,28.07C696.5,288.071,698.044,302.475,695.15,313.506z"/>
	<path fill="#31353E" d="M614.758,383.443c-6.696-2.248-12.13-7.565-17.655-12.159c-15.349-12.769-34.208-21.271-53.943-24.322
		c-7.506-1.16-15.254-1.58-22.271-4.489c-3.861-1.602-7.517-4.186-10.083-7.455c0.529-0.514,1.128-0.956,1.788-1.296
		c2.35-1.204,5.12-1.168,7.758-1.087c21.563,0.664,43.203,2.547,64.244,7.466c9.298,2.175,18.461,4.945,27.347,8.448
		c6.711,2.646,16.673,5.66,20.563,12.287C640.014,373.616,626.045,381.352,614.758,383.443z"/>
	<path fill="#E8E5DE" d="M440.715,328.87c13.627,4.087,24.39,14.884,37.878,19.407c3.5,1.174,7.372,2.047,9.806,4.821
		c0.689,0.785,1.247,1.752,1.261,2.797c0.023,1.72-1.368,3.079-2.578,4.302c-8.69,8.787-12.531,21.095-17.944,32.205
		c-1.337,2.745-3.182,5.74-6.191,6.26c-3.442,0.595-6.401-2.344-8.528-5.114c-13.245-17.241-20.985-39.42-17.847-60.933"/>
	<path fill="#31353E" d="M953.503,557.397c-11.137,23.917-31.806,43.626-37.01,69.488c-1.16,5.769-1.507,11.71-3.153,17.359
		c-2.573,8.849-8.163,16.462-13.652,23.866c-9.262,12.509-18.527,25.015-27.789,37.521c-7.959,10.743-14.936,21.308-24.22,30.923
		c-22.749,23.559-49.107,43.623-77.87,59.278c-2.675,1.456-5.81,3.759-5.142,6.729c0.317,1.405,1.456,2.478,1.989,3.814
		c1.664,4.178-2.908,8.021-6.831,10.218c-11.94,6.682-23.877,13.363-35.817,20.045c-2.85,1.598-5.894,3.405-7.142,6.423
		c-0.905,2.19-0.701,4.66-0.416,7.014c0.85,7.061,2.164,14.6,1.894,21.68c-0.219,5.799-1.504,11.291-4.974,15.969
		c-4.332,5.835-11.254,9.046-17.881,12.028c-31.96,14.374-63.919,28.748-95.879,43.123c-6.645,2.989-13.765,6.05-20.968,4.934
		c-5.974-0.923-11.199-4.675-15.199-9.207c-0.31-0.354-0.617-0.712-0.916-1.077c-8.663-10.55-11.765-25.468-7.93-38.583
		c22.735-14.907,46.779-23.826,69.82-38.255c18.896-11.834,36.237-25.971,53.213-40.43c43.112-36.718,85.048-74.553,114.921-122.661
		c22.833-36.769,45.666-73.539,68.503-110.308c9.703-15.63,19.75-31.635,34.489-42.648c14.735-11.01,35.445-16.038,51.775-7.568
		c3.686,1.909,7.255,4.748,8.335,8.754C956.692,549.694,955.196,553.763,953.503,557.397z"/>
	<g>
		<circle fill="#31353E" cx="988.396" cy="694.897" r="157.619"/>
		<circle fill="#E8E5DE" cx="988.396" cy="694.897" r="96.826"/>
		<circle fill="#F2A661" cx="988.396" cy="694.897" r="65.321"/>
	</g>
	<path fill="#31353E" d="M1010.842,542.144c-4.48,3.042-9.04,6.116-14.188,7.797c-3.741,1.222-7.684,1.67-11.595,2.112
		c-21.192,2.392-42.384,4.785-63.577,7.177c2.407-5.928,7.094-10.592,11.752-14.978c8.308-7.823,16.917-15.328,25.799-22.492
		c9.071-7.316,18.492-14.317,28.925-19.509c17.398-8.659,41.339-14.985,60.927-13.683c5.993,0.398,21.592-1.547,18.081,6.293
		c-3.564,7.957-20.86,21.688-27.574,26.927C1030.174,528.982,1020.511,535.58,1010.842,542.144z"/>
	<path fill="#683E48" d="M351.016,559.555c14.982-13.708,33.716-22.917,53.27-28.393s39.965-7.346,60.27-7.594
		c5.409-0.066,10.916-0.005,16.075,1.619c7.67,2.414,13.845,8.026,19.754,13.479c0.722,0.666,1.475,1.382,1.744,2.326
		c0.535,1.878-1.012,3.652-2.429,4.995c-8.071,7.652-16.142,15.304-24.212,22.956c-7.523,7.132-15.094,14.303-23.735,20.03
		c-4.503,2.984-9.388,5.599-14.715,6.493c-6.009,1.008-12.143-0.234-18.106-1.485c-14.164-2.973-28.31-6.031-42.438-9.171
		c-8.037-1.787-16.508-3.831-22.404-9.578c-2.396-2.335-5.934-5.415-8.454-3.214"/>
	<path fill="#019798" d="M411.816,187.314c3.291,5.781,5.811,11.981,7.741,18.34c1.883,6.206,3.016,12.711,4.215,19.078
		c1.344,7.139,2.823,14.434,3.258,21.681c0.25,4.165,0.022,8.681-2.549,11.967c-0.456,0.583-1.013,1.136-1.726,1.335
		c-1.15,0.322-2.331-0.354-3.263-1.101c-2.537-2.033-4.415-4.755-6.237-7.448c-7.129-10.535-14.102-21.526-17.029-33.905
		c-0.857-3.622-1.355-7.39-0.781-11.068c1.121-7.181,6.112-13.074,11.054-18.403"/>
	<path fill="#F29681" d="M418.146,263.009c-0.39,6.74-0.777,13.48-1.164,20.22c-0.347,6.01-1.014,12.71-5.569,16.651
		c-3.459,3-8.309,3.605-12.896,4c-0.168,0.011-0.336,0.026-0.504,0.04c0.31,3.423,0.62,6.846,0.931,10.265
		c0.274,3,0.547,6.003,0.817,9.003c0.055,0.595,0.106,1.186,0.161,1.781c0.219,2.427,0.427,4.941-0.365,7.244
		c-0.832,2.416-2.693,4.353-4.777,5.835c-6.164,4.386-14.374,5.207-21.738,3.474c-7.36-1.737-13.984-5.791-19.932-10.462
		c-0.015-0.011-0.026-0.022-0.04-0.033c0,0,0,0-0.004,0c-3.886-3.058-7.671-6.609-9.893-10.944c-0.598-1.16-1.084-2.379-1.427-3.656
		c-1.193-4.448-0.562-9.149-0.438-13.754c0.186-6.777-0.85-13.823-4.572-19.49c-1.879-2.857-4.368-5.258-6.47-7.959
		c-3.514-4.507-5.893-9.784-8.065-15.071c-3.401-8.28-6.368-16.735-8.886-25.322c-0.204-0.697-0.409-1.405-0.544-2.12
		c-0.168-0.883-0.237-1.773-0.08-2.657c0.212-1.226,0.828-2.31,1.591-3.303c0.423-0.551,0.89-1.073,1.358-1.573
		c10.926-11.674,26.037-18.815,41.619-22.41c15.578-3.598,31.726-3.879,47.71-3.514l5.058,9.247
		c-0.372,1.974-0.485,3.934-0.412,5.882c0.42,10.729,6.649,21.173,8.324,32.091C418.777,251.933,418.464,257.495,418.146,263.009z"
		/>
	<path fill="#F2A661" d="M573.4,763.389c10.151,6.714,20.302,13.428,30.453,20.142c4.392,2.905,8.805,5.822,13.576,8.051
		c13.836,6.465,29.659,6.738,44.931,6.657c2.88-0.015,6.105,0.098,8.106,2.168c3.193,3.303,1.006,8.792-1.6,12.575
		c-12.246,17.777-31.305,30.765-52.362,35.516c-3.866,0.872-8.048,1.449-11.684-0.127c-1.09-0.472-2.091-1.124-3.084-1.776
		c-19.44-12.767-37.917-27-55.222-42.537c-0.966-0.867-1.986-1.84-2.193-3.122c-0.168-1.044,0.242-2.085,0.662-3.055
		c5.029-11.605,12.769-22.025,22.427-30.191"/>
	<path fill="#683E48" d="M403.578,550.547c-12.693-5.905-24.442-13.892-37.657-18.511c-13.954-4.877-29.271-5.782-43.702-2.581
		c-11.819,2.622-23.658,8.544-29.682,19.044c-10.021,17.468-0.508,39.501,10.768,56.186c29.243,43.27,70.269,77.574,99.433,120.897
		c4.383,6.51,8.534,13.268,14.099,18.802c11.008,10.946,26.372,16.036,39.755,23.902c17.639,10.367,32.35,25.898,51.528,33.024
		c16.303,6.057,35.447,5.148,50.228-4.016s24.301-26.922,22.053-44.168c-2.211-16.96-14.73-30.934-28.878-40.544
		c-14.148-9.61-30.259-15.94-44.869-24.833c-22.424-13.649-40.747-32.961-58.782-52.037c-1.905-2.015-3.95-4.426-3.614-7.179
		c0.237-1.937,1.617-3.512,2.947-4.941c20.452-21.962,44.207-40.843,70.218-55.813c8.687-5,17.834-9.635,27.75-11.101
		c9.916-1.466,20.823,0.686,27.949,7.735c1.113,1.101,2.265,2.383,3.819,2.568c1.684,0.201,3.195-0.959,4.493-2.051
		c10.767-9.056,21.534-18.112,32.301-27.168c2.757-2.319,5.625-4.79,6.895-8.161c1.358-3.604,0.662-7.619-0.081-11.398
		c-4.933-25.088-11.73-50.967-28.597-70.183c-2.339-2.665-5.167-5.332-8.699-5.651c-3.489-0.315-6.709,1.742-9.545,3.798
		c-22.918,16.616-41.111,38.575-59.553,59.799c-9.341,10.75-18.801,21.432-29.097,31.285c-5.216,4.992-10.638,9.776-16.336,14.212
		c-3.994,3.109-9.064,8.494-13.816,10.301c-6.747,2.566-17.721-0.709-24.485-2.183C421.177,557.565,412.155,554.537,403.578,550.547
		z"/>
	<path fill="#EB545D" d="M852.245,544.837c-1.113,14.079-4.897,27.8-9.236,41.196c-3.339,10.305-7.244,20.41-11.298,30.456
		c-6.682,16.564-13.783,32.978-19.465,49.906c-7.776,23.165-12.856,47.177-20.811,70.287c-4.204,12.221-9.265,24.271-16.688,34.854
		c-13.316,18.99-33.306,32.062-53.001,44.312c-51.523,32.051-103.159,66.554-159.116,90.022c-6.251,2.624-13.75,3.146-19.625-0.237
		c-5.244-3.014-8.495-9.652-6.974-15.349c0.186-0.69,0.442-1.368,0.77-2.022c2.003-3.989,6.127-6.383,10.024-8.55
		c25.019-13.922,50.034-27.843,75.053-41.765c12.243-6.813,24.771-13.856,33.81-24.567c13.075-15.498,19.658-35.886,18.578-56.136
		c-1.255-23.574-6.401-46.392-13.663-68.751c-11.98-36.886-29.719-72.524-45.261-108.243c-18.21-41.853-33.682-84.899-46.29-128.766
		c-5.134-17.863-9.648-37.711-1.529-54.432c4.076-8.4,11.017-15.108,18.56-20.614c4.171-3.043,8.535-5.751,13.053-8.152
		c24.369-12.929,53.297-16.845,81.1-15.52c2.551,0.12,5.105,0.288,7.66,0.515c12.393,1.084,24.709,3.565,35.711,9.251
		c15.447,7.981,27.077,21.578,38.784,34.438c24.034,26.402,50.045,51.001,77.743,73.531c2.259,2.934,3.755,6.098,4.762,9.638
		c2.295,8.087,4.171,16.319,5.507,24.636C852.533,518.012,853.299,531.455,852.245,544.837z"/>
	<path fill="#969593" d="M979.467,707.358l-64.821-25.559l-98.05-38.66l28.796-40.51l93.533,48.458l55.705,28.862
		C1014.985,691.214,999.819,718.619,979.467,707.358z"/>
	<path fill="#31353E" d="M938.924,651.087c-8.371,10.013-16.465,20.257-24.278,30.712l-98.05-38.66l28.796-40.51L938.924,651.087z"
		/>
	<path fill="#C4464D" d="M836.122,557.127c-0.296,19.253-4.167,38.32-4.401,57.574c-0.007,0.598-0.011,1.193-0.011,1.788
		c-6.682,16.564-13.783,32.978-19.465,49.906c-7.776,23.165-12.856,47.177-20.811,70.287c-4.204,12.221-9.265,24.271-16.688,34.854
		c-13.316,18.99-33.306,32.062-53.001,44.312c-51.523,32.051-103.159,66.554-159.116,90.022c-6.251,2.624-13.75,3.146-19.625-0.237
		c-5.244-3.014-8.495-9.652-6.974-15.349c0.186-0.69,0.442-1.368,0.77-2.022c2.003-3.989,6.127-6.383,10.024-8.55
		c25.019-13.922,50.034-27.843,75.053-41.765c12.243-6.813,24.771-13.856,33.81-24.567c13.075-15.498,19.658-35.886,18.578-56.136
		c-1.255-23.574-6.401-46.392-13.663-68.751c0.631-2.54,1.489-5.036,2.631-7.47c1.347-2.879,3.27-5.751,6.237-6.893
		c6.769-2.606,12.831,4.919,16.217,11.334c5.915,11.207,11.831,22.413,17.75,33.62c1.865,3.536,4.558,7.576,8.55,7.437
		c1.733-0.062,3.321-0.952,4.791-1.876c22.165-13.933,34.124-39.619,40.59-64.989c6.463-25.366,8.663-51.826,17.305-76.538
		c10.137-28.982,29.175-54.778,53.881-73.006c3.682,2.905,5.948,14.225,6.302,18.899
		C835.561,538.37,836.268,547.745,836.122,557.127z"/>
	<path fill="#EE7471" d="M577.529,603.451c-2.344,0-4.74,0.285-7.105,0.733c0.398,0.851,0.905,1.759,1.529,2.726
		c3.74,5.803,10.152,10.133,14.593,15.487c5.134,6.196,9.612,12.929,13.604,19.91c9.455,16.523,16.316,34.379,24.588,51.53
		c9.043,18.753,19.793,36.689,32.069,53.508c6.018,8.247,13.393,16.819,23.326,18.684c-2.55-2.208-4.934-4.631-7.127-7.08
		c-36.054-40.261-49.695-95.354-76.341-142.373c-2.091-3.697-4.368-7.455-7.831-9.911
		C585.515,604.31,581.601,603.451,577.529,603.451"/>
	<path fill="#31353E" d="M682.611,784.104c-5.682,24.008-25.402,42.356-46.812,54.614c-21.406,12.258-45.17,19.896-66.853,31.657
		c-11.272,6.116-21.921,13.312-32.916,19.91c0.186-0.69,0.442-1.368,0.77-2.022c2.003-3.989,6.127-6.383,10.024-8.55
		c25.019-13.922,50.034-27.843,75.053-41.765c12.243-6.813,24.771-13.856,33.81-24.567c13.075-15.498,19.658-35.886,18.578-56.136
		c-3.328-62.474-33.963-119.624-58.924-176.994c-18.21-41.853-33.682-84.899-46.29-128.766c-5.134-17.863-9.648-37.711-1.529-54.432
		c4.076-8.4,11.017-15.108,18.56-20.614c4.171-3.043,8.535-5.751,13.053-8.152c-10.024,7.55-16.765,19.677-19.326,32.168
		c-3.394,16.556-0.566,33.741,3.445,50.162c17.783,72.831,58.165,138.236,79.936,209.975c9.944,32.77,21.22,65.784,21.487,100.025
		C684.735,768.497,684.425,776.441,682.611,784.104z"/>
	<path fill="#EE7471" d="M351.811,227.608c18.662-6.638,38.109-11.086,57.803-13.225c-0.073-1.949,0.04-3.908,0.412-5.882
		l-5.058-9.247c-15.984-0.365-32.131-0.084-47.71,3.514c-15.582,3.594-30.693,10.736-41.619,22.41
		c-0.467,0.5-0.934,1.022-1.358,1.573c-0.551,1.978-1.066,3.963-1.511,5.959c0.135,0.715,0.339,1.423,0.544,2.12
		c2.518,8.587,5.485,17.042,8.886,25.322c2.171,5.288,4.551,10.564,8.065,15.071c2.102,2.7,4.591,5.102,6.47,7.959
		c3.722,5.667,4.759,12.714,4.572,19.49c-0.124,4.605-0.755,9.305,0.438,13.754c0.343,1.277,0.828,2.496,1.427,3.656
		c0.139,0.271,0.284,0.54,0.435,0.805c0.039,0.069,0.082,0.136,0.122,0.205c0.114,0.196,0.228,0.391,0.349,0.583
		c0.03,0.047,0.061,0.093,0.091,0.14c0.135,0.212,0.271,0.424,0.413,0.632c0.007,0.01,0.014,0.02,0.021,0.03
		c2.238,3.275,5.316,6.074,8.461,8.549c0.003,0,0.002,0,0.003,0c0.014,0.011,0.027,0.022,0.041,0.033
		c5.948,4.671,12.572,8.725,19.932,10.462c7.364,1.733,15.575,0.912,21.738-3.474c2.084-1.482,3.945-3.419,4.777-5.835
		c0.792-2.303,0.584-4.817,0.365-7.244c-0.055-0.595-0.106-1.186-0.161-1.781c-3.722,0.073-7.437,0.27-11.105,0.869
		c-3.97,0.646-7.857,1.759-11.838,2.324c-4.171,0.595-8.411,0.584-12.615,0.299c-0.56-0.038-1.12-0.082-1.68-0.131
		c0.739-1.796,0.557-3.827,0.435-5.77c-0.303-4.85-0.124-9.732,0.536-14.549c0.209-1.539,0.489-3.114,1.221-4.475
		c8.18,7.495,19.489,11.498,30.659,12.734c1.157,0.128,2.376,0.219,3.445-0.244c0.044-0.018,0.084-0.037,0.124-0.058
		c-0.31-3.419-0.62-6.842-0.931-10.265c0.168-0.015,0.336-0.029,0.504-0.04c-4.755-0.287-9.485-0.975-14.131-2.029
		c-6.999-2.62-17.876-8.092-20.212-10.086c-10.028-8.561-16.137-22.184-13.86-35.171c0.646-3.689,1.934-7.441,1.08-11.086
		c-0.653-2.799-2.496-5.153-3.678-7.769c-1.186-2.62-1.58-6.021,0.398-8.109C349.089,228.6,350.472,228.082,351.811,227.608z"/>
	<path fill="#F29681" d="M446.482,354.947c-0.671,1.62-2.481,2.397-4.12,3.036c-26.212,10.218-50.512,24.723-76.006,36.62
		c-6.178,2.879-12.623,5.656-19.436,5.875c-4.171,0.131-8.306-0.701-12.393-1.533c-12.331-2.503-24.661-5.01-36.992-7.514
		c-3.635-0.737-7.339-1.5-10.575-3.31c-6.258-3.496-9.882-10.422-11.604-17.381c-2.693-10.886-1.405-22.833,4.149-32.576
		c2.014-3.532,4.598-6.747,7.605-9.484c5.284-4.835,11.867-8.222,18.925-9.36c7.955-1.281,16.381,0.42,23.22,4.678
		c1.164,0.726,2.2,1.558,3.168,2.441c4.401,4,7.346,8.941,14.21,8.805c0.296-0.004,0.598-0.018,0.912-0.044
		c3.978-0.321,7.736-1.872,11.535-3.091c13.09-4.2,27.055-4.532,40.798-4.828c8.612-0.186,17.228-0.369,25.844-0.555
		c3.897-0.084,8.057-0.095,11.323,2.025c3.788,2.456,5.394,7.123,6.612,11.47c0.956,3.401,1.832,6.82,2.624,10.258
		c0.047,0.197,0.095,0.394,0.139,0.591C446.712,352.352,446.986,353.732,446.482,354.947z"/>
	<path fill="#969593" d="M543.33,321.562c0.923,4.434-0.636,9.302-3.963,12.374c-4.27,3.944-10.557,4.634-16.369,4.721
		c-5.798,0.086-11.602-0.23-17.356-0.946c-1.936-0.241-3.92-0.545-5.61-1.52c-4.361-2.516-5.236-8.417-4.918-13.442
		c0.181-2.867,0.709-5.959,2.797-7.932c1.708-1.614,4.136-2.164,6.448-2.586C516.015,310.104,539.822,304.707,543.33,321.562z"/>
	
		<ellipse transform="matrix(0.9794 -0.2017 0.2017 0.9794 -55.0995 106.8529)" fill="#31353E" cx="496.735" cy="323.778" rx="24.079" ry="32.688"/>
	<path fill="#F29681" d="M415.689,330.102c13.5-6.633,26.735-13.806,39.661-21.498c4.963-2.953,10.034-6.041,15.726-7.014
		c5.329-0.912,10.889,0.097,16.148-1.159c2.828-0.676,5.952-1.959,8.464-0.495c1.235,0.72,2.038,1.98,2.794,3.194
		c2.431,3.906,4.863,7.811,7.294,11.717c0.944,1.516,1.905,3.074,2.262,4.824c0.489,2.401-0.21,4.866-0.904,7.216
		c-1.865,6.321-3.73,12.642-5.595,18.963c-1.219,4.13-2.708,8.627-6.376,10.883c-3.036,1.867-6.848,1.732-10.407,1.542
		c-4.225-0.225-8.539-0.433-12.613,0.708c-3.626,1.015-6.992,3.082-10.748,3.347c-4.787,0.339-9.209-2.279-13.761-3.797
		c-5.253-1.751-10.988-2.095-15.916-4.618c-3.78-1.935-6.822-5.023-9.794-8.057c-1.042-1.064-2.118-2.185-2.56-3.607
		c-0.703-2.261,0.329-4.88-0.714-7.006"/>
	<path fill="#E8E5DE" d="M695.15,313.506c-0.631,1.591-1.423,3.113-2.401,4.521c-3.562,5.131-9.247,8.36-13.407,13.017
		c-0.266,0.296-0.522,0.598-0.774,0.909c-15.097,3.817-34.361-9.473-44.706-31.657c-9.313-19.961-8.466-40.835,0.996-51.457
		c1.726-0.518,3.463-0.993,5.207-1.423c7.116-1.755,14.498-2.839,21.775-1.978c1.208,0.142,2.416,0.343,3.609,0.606
		c9.481,5.269,18.52,15.166,24.541,28.07C696.5,288.071,698.044,302.475,695.15,313.506z"/>
	
		<ellipse transform="matrix(0.9062 -0.4227 0.4227 0.9062 -57.437 309.4555)" fill="#F7D7A6" cx="668.978" cy="284.225" rx="25.925" ry="44.101"/>
	<path fill="#969593" d="M718.344,871.755c-0.219,5.799-1.504,11.291-4.974,15.969c-4.332,5.835-11.254,9.046-17.881,12.028
		c-31.96,14.374-63.919,28.748-95.879,43.123c-6.645,2.989-13.765,6.05-20.968,4.934c-5.974-0.923-11.199-4.675-15.199-9.207
		c-0.31-0.354-0.617-0.712-0.916-1.077C614.098,914.731,666.044,892.803,718.344,871.755z"/>
	<path fill="#C4464D" d="M820.88,510.536c-7.641-4.983-15.073-10.281-22.408-15.704c-34.53-25.528-66.986-53.858-96.945-84.622
		c22.201,21.931,39.982,47.982,61.988,70.11c7.468,7.51,15.398,14.542,23.321,21.569c5.286,4.688,10.573,9.376,15.859,14.064
		c1.904,1.688,3.928,3.439,6.418,3.961c2.49,0.522,5.541-0.704,6.098-3.187"/>
	<path fill="#EE7471" d="M687.896,353.283c31.514,11.659,61.445,30.555,77.677,59.722c-14.608-9.163-29.219-18.329-43.831-27.493
		c19.403,23.884,44.655,42.244,66.357,64.059c18.009,18.104,33.967,38.919,55.877,52.037c2.047,1.226,4.178,2.394,6.426,3.168
		c-1.335-8.316-3.211-16.549-5.506-24.636c-1.007-3.539-2.503-6.703-4.762-9.637c-27.698-22.531-53.709-47.13-77.743-73.531
		c-11.707-12.86-23.336-26.457-38.784-34.438C712.604,356.848,700.288,354.367,687.896,353.283"/>
	<path fill="#EB545D" d="M1067.376,492.412c-12.539-3.788-26.241-0.741-38.116,4.788c-0.004,0.004-0.011,0.004-0.015,0.007
		c-38.448,17.921-75.006,40.349-106.411,69.021c-25.063,22.88-46.527,49.377-66.021,77.078
		c-10.897,15.484-21.771,31.328-32.171,47.418c-7.981,12.356-15.681,24.855-22.895,37.437c-2.492,4.353-9.039,22.085-14.914,21.326
		c-8.178-1.062-6.193-17.983-6.273-22.946c-0.387-24.658-0.774-49.315-1.164-73.977c-0.533-33.857-1.047-67.941,4.554-101.338
		c2.065-12.316,5.043-24.712,11.411-35.452c6.404-10.794,15.903-19.374,25.596-27.347c20.231-16.648,41.973-31.449,64.868-44.177
		c1.365-0.759,2.733-1.511,4.105-2.255c10.783-5.846,21.811-11.236,33.047-16.144c4.335-1.894,8.769-3.737,13.462-4.328
		c6.382-0.806,12.812,0.752,19.016,2.474c31.671,8.787,62.055,22.205,89.884,39.696
		C1056.035,470.415,1067.479,479.782,1067.376,492.412z"/>
	<path fill="#EE7471" d="M346.633,335.245c-5.375,1.255-10.685,2.799-15.9,4.62c-0.723,0.252-1.474,0.514-2.233,0.438
		c-0.763-0.077-1.54-0.598-1.646-1.357c-0.062-0.478,0.142-0.949,0.401-1.357c1.219-1.916,3.605-2.898,4.697-4.894
		c1.018-1.872,0.642-4.08,0.471-6.255C336.824,330.439,339.768,335.38,346.633,335.245z"/>
	<path fill="#EE7471" d="M446.482,354.947c-0.671,1.62-2.481,2.397-4.12,3.036c-26.212,10.218-50.512,24.723-76.006,36.62
		c-6.178,2.879-12.623,5.656-19.436,5.875c-4.171,0.131-8.306-0.701-12.393-1.533c-12.331-2.503-24.661-5.01-36.992-7.514
		c-3.635-0.737-7.339-1.5-10.575-3.31c-6.258-3.496-9.882-10.422-11.604-17.381c-2.693-10.886-1.405-22.833,4.149-32.576
		c2.014-3.532,4.598-6.747,7.605-9.484c-7.295,11.9-8.262,27.694-1.814,40.148c1.675,3.233,4.518,6.609,8.145,6.262
		c1.135-0.109,2.332-0.584,3.372-0.109c0.788,0.358,1.248,1.168,1.701,1.905c4.39,7.16,12.32,11.564,20.49,13.502
		c8.171,1.938,16.677,1.697,25.07,1.449c-2.102-1.347-3.642-3.54-4.193-5.974c5.893,2.693,12.528,3.748,18.965,3.011
		c7.817-0.894,15.089-4.317,22.198-7.689c19.859-9.426,39.718-18.852,59.573-28.278c1.85-0.876,3.726-1.763,5.664-2.427
		c0.047,0.197,0.095,0.394,0.139,0.591C446.712,352.352,446.986,353.732,446.482,354.947z"/>
	
		<ellipse transform="matrix(0.9794 -0.2017 0.2017 0.9794 -60.1551 96.7183)" fill="#31353E" cx="444.48" cy="343.516" rx="11.92" ry="16.182"/>
	<path fill="#31353E" d="M409.388,191.176c7.43,1.429,15.163,1.264,22.525-0.48c0.502,2.68-1.874,5.014-4.235,6.377
		c-4.144,2.394-8.981,3.572-13.762,3.354c4.369,1.932,9.169,2.882,13.945,2.76c1.148-0.029,2.789,0.412,2.536,1.532
		c-0.061,0.268-0.236,0.493-0.414,0.703c-4.143,4.895-11.229,5.96-17.642,5.948c-6.077-0.011-12.152-0.685-18.084-2.007
		c-0.002,1.204,2.092,1.228,2.523,2.352c0.404,1.054-0.931,1.909-2.026,2.185c-5.384,1.357-11.286,0.524-16.085-2.268
		c-1.178,1.637-2.379,3.299-3.981,4.523c-1.602,1.224-3.692,1.969-5.655,1.508c-1.241-0.292-2.323-1.03-3.353-1.781
		c-1.769-1.29-3.518-2.71-4.608-4.609c-1.09-1.898-1.402-4.384-0.26-6.251c0.588-0.961,1.497-1.677,2.415-2.33
		c6.175-4.393,13.489-6.836,20.683-9.22c6.938-2.299,13.959-4.615,21.244-5.195"/>
	<path fill="#019798" d="M415.077,192.546c-0.522,1.12-1.887,1.518-3.091,1.799c-4.018,0.938-8.017,1.941-12.002,3.011
		c-6.601,1.773-13.159,3.722-19.655,5.85c-8.784,2.868-17.461,6.058-26.015,9.561c-5.109,2.091-10.181,4.302-14.947,7.087
		c-1.438,0.839-2.93,1.832-3.543,3.379c-0.861,2.171,0.292,4.565,1.347,6.649c7.112,14.079,10.769,29.891,10.561,45.663
		c-0.066,5.039-0.799,10.637-4.664,13.871c-2.949,2.467-7.2,2.952-10.922,1.992c-3.722-0.956-6.996-3.186-9.922-5.678
		c-2.408-2.047-4.62-4.284-6.674-6.66c-6.517-7.543-11.433-16.516-15.79-25.548c-1.912-3.963-3.715-7.992-5.269-12.108
		c-0.733-1.938-1.412-3.894-2.022-5.875c-1.613-5.244-2.489-10.677-2.642-16.159c-0.474-17.242,6.185-33.985,17.677-46.469
		c4.605-5.003,9.984-9.32,15.991-12.714c2.215-1.252,4.499-2.376,6.85-3.361c16.396-6.871,34.518-6.047,50.917,0.099
		c1.073,0.398,2.138,0.825,3.193,1.27c13.582,5.737,28.694,16.407,30.777,32.226C415.325,191.141,415.384,191.897,415.077,192.546z"
		/>
	<ellipse fill="#31353E" cx="799.871" cy="1063.486" rx="350.129" ry="17.043"/>
	
		<ellipse transform="matrix(0.9678 -0.2516 0.2516 0.9678 -49.4809 101.7766)" fill="#31353E" cx="373.344" cy="244.426" rx="2.429" ry="4.128"/>
	
		<ellipse transform="matrix(0.9846 -0.1749 0.1749 0.9846 -34.9699 74.7844)" fill="#31353E" cx="406.715" cy="235.752" rx="2.429" ry="4.128"/>
	<g>
		<path fill="#31353E" d="M391.63,266.807c-0.013-0.147,0.358-0.333,1.165-0.485c0.803-0.156,2.046-0.233,3.684-0.275
			c0.818-0.028,1.734-0.052,2.725-0.163c0.989-0.114,2.07-0.308,3.133-0.733c0.529-0.216,1.05-0.491,1.535-0.842
			c0.474-0.346,0.879-0.77,1.057-1.206c0.179-0.418,0.183-0.965,0.003-1.627c-0.175-0.648-0.525-1.402-0.902-2.16
			c-0.765-1.512-1.645-2.864-2.477-4.125c-0.836-1.26-1.634-2.43-2.321-3.547c-1.39-2.232-2.284-4.254-2.73-5.928
			c-0.453-1.676-0.486-2.97-0.393-3.796c0.044-0.415,0.116-0.717,0.197-0.913c0.076-0.196,0.152-0.288,0.228-0.283
			c0.075,0.004,0.147,0.104,0.213,0.297c0.062,0.193,0.128,0.479,0.213,0.858c0.166,0.757,0.42,1.887,1.011,3.35
			c0.587,1.465,1.535,3.245,2.955,5.321c0.705,1.045,1.526,2.172,2.403,3.441c0.873,1.27,1.815,2.681,2.656,4.342
			c0.209,0.416,0.401,0.831,0.583,1.248c0.181,0.425,0.346,0.87,0.47,1.339c0.12,0.471,0.204,0.969,0.193,1.494
			c-0.004,0.52-0.12,1.067-0.335,1.552c-0.444,0.973-1.153,1.591-1.815,2.054c-0.667,0.454-1.359,0.783-2.032,1.023
			c-1.352,0.472-2.608,0.611-3.711,0.656c-1.109,0.04-2.069-0.029-2.901-0.1c-1.663-0.157-2.834-0.313-3.62-0.421
			C392.032,267.063,391.643,266.961,391.63,266.807z"/>
	</g>
	<g>
		<path fill="#31353E" d="M360.475,239.29c-0.129-0.079-0.174-0.273-0.117-0.599c0.03-0.162,0.08-0.361,0.167-0.588
			c0.093-0.222,0.215-0.478,0.37-0.767c0.16-0.285,0.368-0.59,0.605-0.934c0.261-0.321,0.535-0.699,0.895-1.058
			c0.696-0.743,1.614-1.547,2.814-2.293c1.199-0.747,2.326-1.216,3.3-1.512c0.482-0.164,0.941-0.243,1.345-0.335
			c0.413-0.061,0.779-0.113,1.105-0.13c0.328-0.011,0.611-0.008,0.852,0.007c0.242,0.022,0.442,0.065,0.601,0.11
			c0.318,0.093,0.472,0.219,0.486,0.37c0.014,0.15-0.114,0.311-0.384,0.477c-0.135,0.084-0.306,0.163-0.512,0.253
			c-0.205,0.098-0.446,0.197-0.724,0.299c-0.276,0.109-0.586,0.239-0.934,0.364c-0.34,0.156-0.729,0.284-1.137,0.48
			c-0.826,0.36-1.786,0.822-2.839,1.477c-1.053,0.655-1.892,1.313-2.579,1.895c-0.356,0.279-0.643,0.572-0.933,0.808
			c-0.266,0.258-0.52,0.478-0.739,0.678c-0.214,0.205-0.41,0.377-0.588,0.518c-0.172,0.145-0.318,0.264-0.453,0.348
			C360.805,239.325,360.604,239.369,360.475,239.29z"/>
	</g>
	<g>
		<path fill="#31353E" d="M409.362,223.556c-0.119,0.096-0.292,0.103-0.511,0.085c-0.223-0.019-0.491-0.06-0.894-0.111
			c-0.398-0.048-0.982-0.131-1.649-0.23c-0.675-0.095-1.471-0.192-2.405-0.245c-1.868-0.102-3.209,0.015-4.117,0.003
			c-0.906,0-1.39-0.116-1.483-0.411c-0.089-0.281,0.24-0.694,1.153-1.102c0.908-0.393,2.427-0.793,4.573-0.676
			c1.07,0.061,1.977,0.239,2.718,0.462c0.746,0.232,1.304,0.471,1.776,0.758c0.468,0.286,0.773,0.633,0.887,0.909
			C409.527,223.277,409.477,223.464,409.362,223.556z"/>
	</g>
	<path fill="#F3F3F4" d="M378.409,272.463c-0.721-0.004-1.46,0.032-2.125,0.31c-3.912,1.637,1.966,6.912,3.515,8.114
		c3.971,3.082,9.686,4.662,14.716,4.241c2.516-0.211,5.055-0.994,6.962-2.71c1.91-1.718,4.595-5.874,3.331-8.459
		c-0.862-1.763-3.048-1.492-4.664-1.257C392.841,273.763,385.716,272.5,378.409,272.463z"/>
	<path fill="#83C3B8" d="M399.984,197.356c-6.601,1.773-13.159,3.722-19.655,5.85c-2.47-2.722-4.073-6.835-6.269-10.181
		c-2.901-4.423-6.682-8.291-11.097-11.21c-5.831-3.865-12.59-6.101-19.374-7.817c-9.287-2.343-18.943-3.795-28.453-2.642
		c-2.573,0.31-5.134,0.825-7.634,1.555c4.605-5.003,9.984-9.32,15.991-12.714c2.215-1.252,4.499-2.376,6.85-3.361
		c16.396-6.871,34.518-6.047,50.917,0.099c2.897,2.281,5.664,4.718,7.941,7.609c3.518,4.463,5.715,9.824,7.433,15.246
		c1.748,5.51,3.062,11.218,3.324,17.009C399.966,196.991,399.977,197.177,399.984,197.356z"/>
	<path fill="#83C3B8" d="M318.472,277.901c-0.923,0.533-1.901,0.92-2.923,1.168c-6.517-7.543-11.433-16.516-15.79-25.548
		c-1.912-3.963-3.715-7.992-5.269-12.108c0.617-0.577,1.295-1.087,2.044-1.518c7.364-4.251,18.25,0.807,24.307,11.302
		C326.901,261.691,325.839,273.646,318.472,277.901z"/>
	<path fill="#EE7471" d="M940.02,421.304c-1.194,0-2.388,0.068-3.58,0.219c-4.693,0.591-9.127,2.434-13.462,4.328
		c-11.236,4.908-22.264,10.298-33.048,16.144c-1.372,0.745-2.74,1.496-4.105,2.255c7.347-1.443,14.866-2.128,22.42-2.128
		c14.59,0,29.305,2.559,43.12,7.161c29.118,9.7,54.757,27.683,77.896,47.918c8.227-3.831,17.332-6.47,26.319-6.47
		c3.984,0,7.945,0.519,11.796,1.682c0.102-12.63-11.341-21.997-22.037-28.719c-27.829-17.491-58.212-30.909-89.883-39.696
		C950.41,422.596,945.217,421.304,940.02,421.304"/>
	<g>
		<path fill="#31353E" d="M412.429,553.386c-0.11,0.276-1.269,0.12-3.614-0.651c-2.342-0.775-5.875-2.161-10.647-4.471
			c-4.766-2.322-8.04-4.243-10.096-5.605c-2.055-1.367-2.894-2.182-2.746-2.439c0.154-0.267,1.265,0.073,3.496,1.084
			c2.234,1.007,5.586,2.692,10.303,4.99c4.722,2.287,8.118,3.88,10.291,5.014C411.59,552.437,412.544,553.101,412.429,553.386z"/>
	</g>
	<g>
		<path fill="#31353E" d="M385.489,569.04c0.228-0.687,1.182-1.072,2.992-1.026c0.451,0.014,0.94,0.091,1.489,0.181
			c0.544,0.102,1.156,0.206,1.794,0.397c0.638,0.191,1.328,0.418,2.07,0.683c0.734,0.279,1.497,0.631,2.322,1.007
			c0.822,0.38,1.65,0.863,2.549,1.359c0.88,0.52,1.787,1.112,2.736,1.751c1.86,1.322,3.853,2.888,5.864,4.783
			c2.01,1.893,4.076,4.077,6.147,6.565c2.074,2.486,4.148,5.278,6.23,8.354c2.073,3.069,3.877,5.964,5.517,8.642
			c1.623,2.673,3.115,5.132,4.481,7.382c1.36,2.244,2.621,4.253,3.769,6.06c1.159,1.796,2.213,3.384,3.168,4.765
			c0.483,0.688,0.933,1.329,1.351,1.925c0.428,0.59,0.824,1.134,1.188,1.635c0.744,0.993,1.356,1.81,1.842,2.46
			c0.994,1.284,1.434,1.949,1.327,2.055s-0.752-0.353-2.016-1.407c-0.62-0.538-1.387-1.232-2.302-2.096
			c-0.449-0.44-0.938-0.919-1.466-1.438c-0.525-0.523-1.071-1.102-1.666-1.717c-1.178-1.239-2.481-2.677-3.914-4.317
			c-1.419-1.647-2.978-3.492-4.642-5.552c-1.669-2.057-3.462-4.321-5.398-6.769c-1.937-2.447-4.02-5.076-6.307-7.825
			c-2.283-2.739-4.465-5.197-6.547-7.38c-2.08-2.185-4.055-4.097-5.896-5.787c-1.841-1.692-3.577-3.116-5.143-4.398
			c-0.797-0.619-1.549-1.205-2.26-1.757c-0.728-0.52-1.389-1.058-2.035-1.514c-0.648-0.452-1.238-0.909-1.799-1.314
			c-0.567-0.392-1.086-0.771-1.559-1.138c-0.473-0.368-0.922-0.669-1.312-0.99c-0.395-0.309-0.738-0.626-1.048-0.897
			C385.773,570.649,385.262,569.726,385.489,569.04z"/>
	</g>
	<g>
		<path fill="#31353E" d="M443.826,622.46c-0.142,0.051-0.479-0.441-1.019-1.518c-0.272-0.538-0.586-1.225-0.969-2.058
			c-0.394-0.828-0.843-1.807-1.35-2.942c-0.522-1.127-1.114-2.406-1.779-3.841c-0.344-0.712-0.706-1.462-1.088-2.253
			c-0.19-0.396-0.384-0.801-0.583-1.216c-0.208-0.411-0.42-0.832-0.638-1.263c-1.723-3.456-3.852-7.508-6.574-12.096
			c-2.722-4.589-5.257-8.4-7.464-11.569c-0.274-0.398-0.542-0.786-0.803-1.165c-0.269-0.374-0.531-0.739-0.788-1.095
			c-0.51-0.714-0.995-1.392-1.455-2.035c-0.941-1.272-1.779-2.404-2.518-3.403c-0.753-0.988-1.396-1.852-1.935-2.595
			c-0.547-0.735-1-1.34-1.341-1.837c-0.686-0.99-0.957-1.521-0.844-1.622c0.113-0.1,0.599,0.239,1.487,1.063
			c0.442,0.413,0.993,0.941,1.633,1.606c0.632,0.673,1.365,1.474,2.202,2.41c0.828,0.943,1.734,2.041,2.756,3.272
			c0.493,0.63,1.013,1.293,1.56,1.992c0.272,0.351,0.551,0.711,0.836,1.08c0.276,0.376,0.559,0.76,0.849,1.154
			c2.325,3.144,4.947,6.975,7.706,11.627c2.759,4.652,4.864,8.79,6.509,12.337c0.207,0.443,0.409,0.876,0.606,1.298
			c0.187,0.427,0.369,0.845,0.546,1.251c0.351,0.816,0.684,1.59,1,2.325c0.59,1.487,1.12,2.808,1.551,3.987
			c0.419,1.183,0.771,2.211,1.059,3.088c0.277,0.881,0.476,1.617,0.626,2.204C443.903,621.82,443.968,622.409,443.826,622.46z"/>
	</g>
	<g>
		<path fill="#31353E" d="M464.459,586.937c0.824,0.243,1.514,0.78,1.973,1.628c0.466,0.85,0.682,2.006,0.576,3.476
			c-0.055,0.734-0.202,1.542-0.426,2.43c-0.246,0.88-0.553,1.847-0.991,2.873c-0.423,1.032-0.962,2.129-1.59,3.299
			c-0.323,0.581-0.668,1.181-1.033,1.799c-0.376,0.613-0.776,1.244-1.194,1.894c-0.436,0.639-0.856,1.255-1.261,1.849
			c-0.424,0.58-0.831,1.138-1.223,1.675c-0.806,1.057-1.561,2.015-2.28,2.869c-0.704,0.862-1.388,1.614-1.984,2.298
			c-0.617,0.672-1.162,1.268-1.654,1.784c-0.99,1.028-1.727,1.759-2.252,2.213c-0.52,0.456-0.814,0.643-0.94,0.56
			c-0.126-0.083-0.073-0.431,0.129-1.087c0.208-0.653,0.549-1.625,1.009-2.944c0.223-0.66,0.477-1.408,0.761-2.248
			c0.266-0.847,0.584-1.767,0.895-2.797c0.313-1.021,0.655-2.137,1.026-3.35c0.353-1.206,0.735-2.508,1.147-3.91
			c0.195-0.701,0.39-1.372,0.582-2.015c0.182-0.647,0.364-1.265,0.547-1.855c0.349-1.186,0.703-2.258,1.045-3.233
			c0.357-0.968,0.686-1.844,1.058-2.608c0.35-0.772,0.726-1.438,1.108-2.012c0.758-1.149,1.585-1.914,2.427-2.338
			C462.759,586.767,463.635,586.694,464.459,586.937z"/>
	</g>
	<g>
		<path fill="#31353E" d="M492.182,529.993c0.106,0.107-0.122,0.531-0.707,1.305c-0.581,0.779-1.531,1.896-2.88,3.379
			c-0.676,0.74-1.461,1.562-2.344,2.485c-0.9,0.904-1.886,1.923-3.015,3c-1.118,1.09-2.367,2.251-3.737,3.503
			c-0.693,0.617-1.414,1.258-2.164,1.925c-0.762,0.653-1.553,1.33-2.373,2.032c-0.834,0.686-1.638,1.348-2.413,1.985
			c-0.788,0.621-1.547,1.219-2.276,1.794c-1.475,1.128-2.845,2.148-4.127,3.043c-1.272,0.909-2.465,1.678-3.538,2.373
			c-1.087,0.675-2.065,1.261-2.946,1.746c-1.767,0.965-3.123,1.565-4.088,1.839c-0.962,0.28-1.523,0.251-1.706-0.039
			c-0.182-0.29,0.031-0.814,0.684-1.564c0.656-0.745,1.74-1.732,3.294-2.964c0.775-0.618,1.662-1.308,2.675-2.054
			c0.999-0.766,2.137-1.573,3.372-2.487c1.243-0.903,2.602-1.889,4.078-2.961c0.737-0.539,1.503-1.1,2.299-1.683
			c0.793-0.588,1.616-1.198,2.47-1.831c0.849-0.64,1.668-1.257,2.457-1.851c0.785-0.601,1.54-1.18,2.266-1.736
			c1.443-1.124,2.775-2.154,3.982-3.115c1.218-0.947,2.298-1.838,3.294-2.618c0.986-0.793,1.864-1.499,2.638-2.121
			c1.548-1.248,2.699-2.145,3.481-2.712C491.645,530.104,492.076,529.885,492.182,529.993z"/>
	</g>
	<g>
		<path fill="#31353E" d="M498.677,772.417c-0.107-0.305-0.049-0.667,0.16-1.071c0.207-0.413,0.582-0.826,1.067-1.364
			c0.498-0.506,1.117-1.104,1.852-1.793c0.356-0.365,0.769-0.707,1.171-1.138c0.207-0.204,0.422-0.416,0.644-0.635
			c0.214-0.227,0.436-0.463,0.665-0.707c0.905-0.98,1.894-2.115,2.893-3.482c0.997-1.366,2.005-2.963,2.923-4.828
			c0.915-1.865,1.739-3.98,2.361-6.439c0.313-1.223,0.56-2.524,0.771-3.894c0.186-1.374,0.322-2.818,0.387-4.332
			c0.053-1.515,0.03-2.989-0.038-4.415c-0.082-1.426-0.209-2.803-0.378-4.127c-0.34-2.647-0.836-5.085-1.363-7.313
			c-1.069-4.456-2.272-8.061-3.217-10.903c-0.958-2.842-1.693-4.921-2.134-6.307c-0.443-1.386-0.6-2.078-0.463-2.141
			c0.137-0.062,0.558,0.508,1.312,1.754c0.752,1.248,1.847,3.164,3.262,5.846c1.401,2.688,3.159,6.13,4.898,10.605
			c0.86,2.239,1.717,4.74,2.426,7.554c0.352,1.406,0.663,2.888,0.925,4.448c0.247,1.562,0.445,3.201,0.551,4.92
			c0.095,1.72,0.092,3.394,0.007,5.013c-0.11,1.618-0.29,3.18-0.571,4.673c-0.55,2.978-1.477,5.704-2.604,8.047
			c-1.127,2.346-2.453,4.328-3.833,5.961c-1.38,1.635-2.815,2.918-4.171,3.915c-0.346,0.24-0.68,0.471-1.003,0.695
			c-0.335,0.208-0.666,0.396-0.982,0.577c-0.623,0.374-1.257,0.633-1.82,0.883c-1.154,0.46-2.148,0.715-2.97,0.798
			c-0.808,0.114-1.458,0.023-1.904-0.115C499.05,772.958,498.784,772.723,498.677,772.417z"/>
	</g>
	<g>
		<path fill="#31353E" d="M466.335,685.477c0.626,0.048,1.221,0.256,1.763,0.663c0.534,0.405,1.052,1.016,1.415,1.84
			c0.389,0.828,0.65,1.873,0.751,3.141c0.078,1.257,0.012,2.747-0.353,4.391c-0.354,1.646-0.952,3.475-1.906,5.377
			c-0.946,1.904-2.222,3.897-3.877,5.87c-1.647,1.972-3.72,3.915-6.118,5.683c-1.206,0.88-2.494,1.734-3.876,2.517
			c-1.375,0.794-2.836,1.532-4.374,2.202c-1.535,0.678-3.037,1.245-4.494,1.722c-1.454,0.487-2.866,0.877-4.224,1.212
			c-1.358,0.334-2.666,0.6-3.919,0.822c-0.625,0.114-1.26,0.206-1.866,0.3c-0.618,0.075-1.211,0.164-1.803,0.216
			c-4.712,0.483-8.637,0.103-11.566-0.675c-0.366-0.098-0.717-0.214-1.054-0.315c-0.338-0.095-0.658-0.214-0.963-0.336
			c-0.305-0.119-0.598-0.227-0.875-0.342c-0.272-0.129-0.533-0.253-0.783-0.372c-0.501-0.221-0.927-0.496-1.316-0.719
			c-0.393-0.215-0.714-0.465-1.002-0.67c-0.583-0.397-0.953-0.776-1.196-1.019c-0.24-0.249-0.336-0.396-0.293-0.458
			c0.043-0.062,0.223-0.036,0.545,0.068c0.325,0.099,0.772,0.309,1.417,0.491c0.318,0.097,0.663,0.228,1.074,0.309
			c0.406,0.089,0.838,0.216,1.337,0.275c0.244,0.037,0.499,0.076,0.764,0.116c0.268,0.021,0.547,0.043,0.837,0.066
			c0.287,0.026,0.585,0.045,0.899,0.038c0.312-0.002,0.631,0.009,0.962-0.002c2.657-0.093,5.981-0.778,9.798-2.35
			c0.478-0.188,0.961-0.414,1.454-0.624c0.493-0.233,0.988-0.456,1.502-0.711c1.03-0.504,2.087-1.049,3.16-1.648
			c1.072-0.6,2.166-1.242,3.259-1.953c1.099-0.701,2.201-1.466,3.294-2.294c1.098-0.822,2.106-1.652,3.031-2.48
			c0.935-0.818,1.775-1.645,2.557-2.444c1.557-1.618,2.827-3.135,3.913-4.59c1.085-1.451,1.991-2.801,2.792-4.026
			c0.808-1.224,1.482-2.337,2.128-3.32c0.657-0.981,1.225-1.851,1.823-2.597c0.573-0.75,1.158-1.381,1.733-1.895
			c0.601-0.511,1.164-0.905,1.782-1.158C465.081,685.544,465.709,685.429,466.335,685.477z"/>
	</g>
	<g>
		<path fill="#31353E" d="M459.72,501.504c0.234,1.914-4.373,4.204-14.698,6.261c-5.162,1.034-11.753,2.017-19.874,2.938
			c-4.06,0.461-8.503,0.908-13.341,1.346c-4.835,0.439-10.056,0.867-15.665,1.341c-5.61,0.472-10.804,0.952-15.609,1.439
			c-4.806,0.48-9.207,1.017-13.238,1.535c-2.011,0.284-3.93,0.556-5.756,0.814c-1.82,0.294-3.557,0.548-5.195,0.832
			c-1.635,0.293-3.188,0.553-4.646,0.828c-1.456,0.287-2.825,0.556-4.107,0.809c-1.278,0.278-2.47,0.537-3.577,0.777
			c-0.555,0.121-1.088,0.238-1.6,0.35c-0.509,0.123-0.998,0.242-1.466,0.356c-1.871,0.459-3.426,0.807-4.642,1.14
			c-2.445,0.631-3.642,0.888-3.693,0.745c-0.051-0.142,1.047-0.672,3.379-1.679c1.161-0.521,2.656-1.081,4.467-1.79
			c0.453-0.175,0.927-0.359,1.421-0.549c0.498-0.178,1.016-0.364,1.555-0.557c1.079-0.382,2.238-0.808,3.488-1.237
			c1.256-0.416,2.596-0.859,4.023-1.331c1.431-0.459,2.957-0.914,4.57-1.412c1.615-0.489,3.328-0.958,5.13-1.476
			c1.806-0.492,3.708-0.995,5.705-1.512c3.999-1,8.385-2.05,13.175-3.054c4.789-1.011,9.978-2.027,15.569-3.014
			c5.591-0.989,10.783-1.836,15.584-2.578c4.8-0.741,9.22-1.379,13.272-1.911c8.103-1.064,14.737-1.7,19.996-1.941
			C454.462,498.479,459.486,499.59,459.72,501.504z"/>
	</g>
	<g>
		<path fill="#31353E" d="M446.219,473.695c0.009,0.307-2.046,0.63-6.499,1c-4.453,0.375-11.303,0.792-20.882,1.431
			c-9.579,0.652-16.423,1.159-20.885,1.385c-4.462,0.232-6.542,0.188-6.574-0.118c-0.031-0.295,1.993-0.796,6.427-1.423
			c4.434-0.622,11.278-1.375,20.886-2.029c9.609-0.642,16.492-0.815,20.969-0.794C444.137,473.174,446.21,473.398,446.219,473.695z"
			/>
	</g>
	<g>
		<path fill="#31353E" d="M468.97,390.181c-0.307,0.037-0.667-0.809-1.138-2.658c-0.478-1.848-1.061-4.701-2.006-8.66
			c-0.961-3.955-1.741-6.761-2.157-8.623c-0.422-1.86-0.488-2.777-0.198-2.884c0.277-0.103,0.857,0.627,1.664,2.389
			c0.8,1.762,1.836,4.562,2.819,8.606c0.967,4.048,1.319,7.013,1.409,8.946C469.447,389.232,469.263,390.146,468.97,390.181z"/>
	</g>
	<g>
		<path fill="#31353E" d="M780.239,658.379c-0.71,0.062-1.503-1.275-2.316-4.144c-0.397-1.435-0.803-3.253-1.188-5.471
			c-0.19-1.11-0.378-2.319-0.563-3.63c-0.179-1.312-0.348-2.726-0.517-4.243c-0.166-1.517-0.309-3.141-0.457-4.868
			c-0.135-1.728-0.261-3.563-0.372-5.504c-0.206-3.885-0.358-8.2-0.379-12.961c-0.028-9.518,0.348-20.827,1.838-33.93
			c1.486-13.102,3.736-24.212,6.115-33.436c1.192-4.614,2.456-8.75,3.654-12.453c0.623-1.845,1.22-3.585,1.806-5.217
			c0.615-1.623,1.163-3.156,1.732-4.572c0.576-1.414,1.099-2.736,1.613-3.954c0.531-1.21,1.022-2.327,1.473-3.354
			c0.932-2.04,1.741-3.699,2.392-5.01c1.361-2.597,2.066-3.812,2.203-3.748s-0.306,1.403-1.337,4.125
			c-0.486,1.374-1.114,3.096-1.841,5.196c-0.351,1.054-0.733,2.2-1.147,3.442c-0.386,1.249-0.802,2.593-1.248,4.034
			c-0.441,1.441-0.853,2.998-1.325,4.64c-0.443,1.652-0.891,3.41-1.357,5.268c-0.886,3.73-1.81,7.878-2.642,12.483
			c-1.663,9.207-3.108,20.205-3.859,33.099c-0.756,12.893-0.704,23.976-0.615,33.326c0.053,4.677,0.148,8.923,0.21,12.754
			c0.033,1.916,0.064,3.728,0.093,5.437c0.034,1.71,0.044,3.318,0.055,4.826c0.015,1.508,0.011,2.916-0.002,4.226
			c-0.006,1.31-0.028,2.521-0.065,3.637c-0.067,2.23-0.182,4.074-0.356,5.546C781.508,656.863,780.949,658.317,780.239,658.379z"/>
	</g>
	<g>
		<path fill="#31353E" d="M752.526,498.246c-0.355,0.282-1.203-0.085-2.551-1.176c-0.675-0.544-1.471-1.273-2.402-2.185
			c-0.936-0.908-2-2.005-3.195-3.299c-1.2-1.29-2.546-2.765-4.022-4.449c-1.499-1.665-3.112-3.553-4.915-5.611
			c-1.79-2.071-3.745-4.332-5.871-6.792c-2.137-2.452-4.446-5.101-6.932-7.954c-1.254-1.418-2.463-2.785-3.629-4.102
			c-1.173-1.312-2.302-2.573-3.387-3.786c-2.184-2.414-4.19-4.64-6.047-6.657c-1.842-2.033-3.551-3.843-5.066-5.502
			c-1.532-1.643-2.896-3.107-4.099-4.397c-1.203-1.292-2.244-2.411-3.129-3.362c-0.884-0.953-1.611-1.74-2.175-2.379
			c-1.131-1.275-1.627-1.939-1.524-2.049c0.103-0.111,0.796,0.342,2.141,1.392c0.672,0.526,1.51,1.198,2.512,2.031
			c0.992,0.845,2.158,1.839,3.505,2.987c1.337,1.16,2.837,2.496,4.522,3.996c1.664,1.521,3.529,3.191,5.534,5.084
			c2.02,1.878,4.193,3.965,6.545,6.247c1.166,1.152,2.378,2.35,3.638,3.595c1.244,1.261,2.535,2.571,3.874,3.928
			c1.32,1.376,2.594,2.703,3.82,3.981c1.208,1.296,2.371,2.544,3.489,3.743c2.21,2.421,4.224,4.667,6.02,6.762
			c1.813,2.081,3.393,4.025,4.818,5.777c1.402,1.77,2.632,3.363,3.678,4.796c1.041,1.438,1.912,2.706,2.622,3.807
			c0.705,1.106,1.242,2.051,1.631,2.829C752.708,497.059,752.881,497.964,752.526,498.246z"/>
	</g>
	<g>
		<path fill="#31353E" d="M399.127,839.086c-0.462-0.615,1.261-2.761,5.645-6.528c4.378-3.776,11.428-9.157,21.462-16.47
			c10.031-7.316,17.278-12.451,22.03-15.74c4.756-3.284,7.027-4.709,7.213-4.471c0.184,0.235-1.74,2.104-6.089,5.915
			c-4.355,3.803-11.125,9.564-20.802,17.365c-9.68,7.798-16.788,13.126-21.623,16.305
			C402.134,838.648,399.587,839.698,399.127,839.086z"/>
	</g>
	<g>
		<path fill="#31353E" d="M398.278,810.777c-0.519-0.706,0.518-2.461,3.522-5.224c2.998-2.771,7.977-6.532,15.183-11.476
			c7.207-4.945,12.476-8.328,15.938-10.483c3.468-2.147,5.142-3.048,5.324-2.81c0.182,0.238-1.146,1.589-4.175,4.318
			c-3.035,2.72-7.757,6.836-14.531,12.382c-6.773,5.546-11.787,9.284-15.286,11.389
			C400.762,810.986,398.797,811.483,398.278,810.777z"/>
	</g>
	<g>
		<path fill="#31353E" d="M429.151,931.215c-0.544-1.34-0.27-2.947,0.913-4.688c0.591-0.874,1.414-1.77,2.469-2.709
			c1.049-0.954,2.336-1.934,3.876-2.933c1.533-1.014,3.301-2.087,5.342-3.164c1.009-0.563,2.084-1.133,3.227-1.71
			c1.147-0.57,2.351-1.169,3.613-1.796c1.262-0.629,2.613-1.23,3.999-1.91c1.39-0.673,2.855-1.348,4.383-2.055
			c1.516-0.729,3.102-1.473,4.762-2.237c1.641-0.794,3.352-1.613,5.137-2.453c1.771-0.87,3.479-1.71,5.125-2.519
			c1.64-0.833,3.219-1.634,4.736-2.405c1.511-0.794,2.961-1.556,4.351-2.287c1.4-0.722,2.702-1.473,3.973-2.158
			c0.634-0.347,1.252-0.685,1.857-1.016c0.598-0.342,1.181-0.676,1.75-1.002c1.14-0.654,2.224-1.275,3.251-1.865
			c2.025-1.222,3.846-2.303,5.429-3.289c1.575-1.003,2.937-1.871,4.096-2.609c1.146-0.76,2.09-1.386,2.84-1.884
			c1.506-0.991,2.253-1.445,2.353-1.332c0.1,0.113-0.454,0.784-1.656,2.136c-0.604,0.673-1.362,1.526-2.3,2.544
			c-0.95,1.009-2.068,2.196-3.36,3.568c-1.303,1.364-2.81,2.883-4.495,4.612c-0.861,0.845-1.768,1.735-2.724,2.673
			c-0.48,0.469-0.972,0.95-1.476,1.442c-0.514,0.482-1.04,0.975-1.578,1.48c-1.084,1.002-2.198,2.085-3.411,3.153
			c-1.208,1.074-2.467,2.204-3.796,3.361c-1.35,1.134-2.754,2.314-4.213,3.54c-1.496,1.185-3.048,2.415-4.657,3.691
			c-1.641,1.233-3.232,2.418-4.777,3.545c-1.564,1.096-3.078,2.141-4.544,3.132c-1.478,0.97-2.916,1.871-4.3,2.728
			c-1.38,0.864-2.747,1.61-4.044,2.339c-0.654,0.356-1.292,0.703-1.915,1.042c-0.631,0.325-1.252,0.631-1.859,0.928
			c-1.215,0.592-2.38,1.132-3.495,1.622c-2.252,0.932-4.294,1.682-6.149,2.208c-1.862,0.511-3.519,0.838-4.973,0.996
			c-1.46,0.143-2.725,0.101-3.784-0.076C431.007,933.497,429.695,932.555,429.151,931.215z"/>
	</g>
	<g>
		<path fill="#31353E" d="M901.65,443.961c0.014-0.151,1.253-0.163,3.83-0.052c0.644,0.031,1.372,0.067,2.185,0.106
			c0.815,0.033,1.71,0.108,2.692,0.202c0.982,0.092,2.052,0.191,3.209,0.299c1.158,0.111,2.406,0.218,3.734,0.407
			c2.66,0.353,5.69,0.706,9.059,1.309c3.386,0.521,7.107,1.291,11.209,2.154c2.04,0.483,4.175,0.988,6.405,1.515
			c2.214,0.602,4.522,1.23,6.927,1.884c2.38,0.739,4.872,1.47,7.435,2.311c1.276,0.439,2.576,0.886,3.9,1.341
			c0.662,0.229,1.331,0.46,2.005,0.693c0.667,0.252,1.34,0.507,2.02,0.764c1.357,0.519,2.691,1.029,4,1.53
			c0.658,0.244,1.298,0.512,1.931,0.781c0.634,0.267,1.263,0.532,1.885,0.794c1.244,0.527,2.465,1.044,3.663,1.551
			c1.18,0.546,2.338,1.082,3.472,1.607c1.132,0.531,2.25,1.034,3.327,1.564c1.07,0.544,2.118,1.077,3.144,1.598
			c1.024,0.526,2.026,1.041,3.006,1.545c0.963,0.536,1.904,1.061,2.824,1.573c1.838,1.029,3.595,2.003,5.213,3.027
			c1.627,1.006,3.182,1.947,4.625,2.889c1.43,0.963,2.775,1.881,4.037,2.755c1.267,0.867,2.434,1.716,3.517,2.546
			c2.168,1.655,3.987,3.214,5.438,4.653c1.455,1.436,2.549,2.736,3.327,3.839c0.78,1.102,1.249,2.001,1.473,2.658
			c0.219,0.662,0.206,1.073-0.013,1.253c-0.218,0.18-0.631,0.122-1.229-0.175c-0.603-0.292-1.402-0.812-2.44-1.525
			c-1.037-0.715-2.317-1.618-3.894-2.682c-1.575-1.067-3.457-2.283-5.679-3.669c-1.109-0.694-2.309-1.432-3.597-2.198
			c-1.283-0.774-2.636-1.603-4.061-2.489c-1.445-0.852-2.97-1.751-4.575-2.698c-1.589-0.972-3.306-1.91-5.093-2.915
			c-0.893-0.505-1.806-1.021-2.74-1.55c-0.948-0.503-1.917-1.017-2.907-1.543c-0.989-0.528-2-1.068-3.031-1.619
			c-1.037-0.541-2.114-1.058-3.202-1.608c-1.09-0.547-2.201-1.105-3.335-1.674c-1.15-0.536-2.322-1.083-3.516-1.641
			c-0.597-0.28-1.2-0.562-1.809-0.847c-0.607-0.288-1.222-0.576-1.853-0.84c-1.256-0.545-2.536-1.1-3.838-1.665
			c-0.652-0.282-1.298-0.562-1.939-0.839c-0.648-0.259-1.29-0.516-1.926-0.77c-1.272-0.51-2.522-1.012-3.747-1.504
			c-2.465-0.951-4.863-1.799-7.155-2.657c-2.32-0.781-4.547-1.53-6.682-2.249c-2.157-0.657-4.221-1.286-6.194-1.887
			c-3.972-1.111-7.585-2.126-10.881-2.882c-3.28-0.838-6.237-1.417-8.838-1.98c-1.299-0.295-2.521-0.504-3.655-0.714
			c-1.135-0.211-2.183-0.406-3.146-0.586c-0.963-0.186-1.842-0.351-2.643-0.47c-0.799-0.133-1.514-0.252-2.147-0.358
			C902.85,444.387,901.637,444.111,901.65,443.961z"/>
	</g>
	<g>
		<path fill="none" stroke="#4E6D44" stroke-width="1.674" stroke-miterlimit="10" d="M806.656,666.349"/>
	</g>
	<g>
		<path fill="#31353E" d="M758.515,781.203c-0.143-0.05-0.147-0.483,0.001-1.325c0.155-0.841,0.446-2.097,0.886-3.798
			c0.436-1.699,0.99-3.855,1.669-6.5c0.669-2.645,1.435-5.784,2.223-9.469c0.788-3.685,1.372-6.863,1.844-9.549
			c0.462-2.691,0.839-4.885,1.136-6.614c0.294-1.732,0.543-2.997,0.745-3.828c0.209-0.83,0.39-1.223,0.541-1.21
			c0.151,0.013,0.256,0.43,0.308,1.289c0.058,0.859,0.043,2.156-0.056,3.927c-0.052,0.885-0.138,1.886-0.238,3.011
			c-0.125,1.122-0.245,2.369-0.442,3.735c-0.367,2.735-0.898,5.966-1.696,9.698c-0.798,3.732-1.634,6.897-2.418,9.543
			c-0.379,1.327-0.78,2.514-1.124,3.589c-0.369,1.067-0.7,2.016-1.014,2.845c-0.634,1.656-1.151,2.846-1.555,3.606
			C758.925,780.915,758.658,781.253,758.515,781.203z"/>
	</g>
	<g>
		<path fill="#31353E" d="M745.703,788.904c-0.128-0.081-0.11-0.391,0.066-0.938c0.086-0.275,0.219-0.605,0.38-1.004
			c0.152-0.404,0.342-0.87,0.573-1.401c0.219-0.535,0.468-1.143,0.747-1.824c0.253-0.693,0.577-1.439,0.871-2.29
			c0.622-1.685,1.303-3.706,1.984-6.107c0.683-2.401,1.192-4.49,1.63-6.256c0.44-1.765,0.8-3.211,1.12-4.344
			c0.634-2.269,1.096-3.291,1.395-3.235c0.295,0.055,0.373,1.173,0.126,3.527c-0.127,1.177-0.332,2.664-0.669,4.479
			c-0.335,1.814-0.794,3.96-1.496,6.43c-0.701,2.47-1.467,4.55-2.219,6.26c-0.358,0.862-0.758,1.614-1.094,2.299
			c-0.37,0.671-0.702,1.265-1.02,1.775c-0.329,0.504-0.623,0.933-0.882,1.291c-0.268,0.353-0.514,0.628-0.715,0.84
			C746.093,788.829,745.831,788.985,745.703,788.904z"/>
	</g>
	<g>
		<path fill="#31353E" d="M325.523,344.977c-0.178-0.234,0.202-0.889,1.342-1.923c1.141-1.025,3.047-2.443,5.976-3.968
			c2.938-1.509,5.196-2.245,6.692-2.583c1.503-0.332,2.256-0.264,2.345,0.017c0.094,0.296-0.489,0.749-1.815,1.438
			c-1.323,0.697-3.395,1.625-6.215,3.073c-2.812,1.464-4.767,2.619-6.1,3.296C326.417,345.011,325.71,345.225,325.523,344.977z"/>
	</g>
	<g>
		<path fill="#31353E" d="M357.379,427.331c0.076,0.253-0.565,0.691-2.014,1.318c-0.729,0.291-1.665,0.618-2.818,0.956
			c-0.579,0.155-1.212,0.318-1.9,0.488c-0.689,0.162-1.439,0.295-2.241,0.452c-0.803,0.157-1.669,0.255-2.588,0.389
			c-0.921,0.117-1.902,0.195-2.94,0.287c-2.077,0.12-4.391,0.202-6.932,0.082c-5.078-0.221-11.088-1.03-17.824-2.955
			c-6.731-1.926-12.237-4.309-16.759-6.495c-2.265-1.093-4.27-2.177-6.069-3.163c-1.789-1.005-3.364-1.929-4.734-2.772
			c-1.371-0.841-2.539-1.597-3.525-2.251c-0.982-0.659-1.78-1.217-2.405-1.674c-1.243-0.924-1.798-1.432-1.719-1.56
			c0.079-0.129,0.786,0.134,2.169,0.815c0.695,0.336,1.56,0.773,2.605,1.312c1.046,0.534,2.276,1.162,3.697,1.887
			c1.421,0.721,3.04,1.522,4.863,2.404c1.832,0.862,3.861,1.824,6.131,2.793c4.535,1.942,9.986,4.076,16.54,5.804
			c6.551,1.724,12.319,2.461,17.182,2.748c2.435,0.153,4.646,0.136,6.64,0.112c0.995-0.044,1.939-0.067,2.826-0.123
			c0.885-0.073,1.724-0.103,2.503-0.185c0.779-0.082,1.511-0.136,2.187-0.213c0.675-0.085,1.301-0.158,1.879-0.219
			c1.149-0.15,2.102-0.271,2.867-0.344C356.519,427.033,357.304,427.078,357.379,427.331z"/>
	</g>
	<g>
		<path fill="#31353E" d="M316.469,446.4c-0.344,0.95-1.807,1.395-4.506,0.89c-1.35-0.254-3.015-0.747-4.999-1.567
			c-1.98-0.825-4.291-1.972-6.826-3.626c-2.539-1.658-4.531-3.365-6.074-4.925c-0.774-0.777-1.425-1.534-1.994-2.224
			c-0.559-0.701-1.028-1.344-1.414-1.927c-0.388-0.583-0.692-1.106-0.939-1.556c-0.24-0.455-0.42-0.837-0.549-1.148
			c-0.243-0.632-0.299-0.966-0.173-1.05c0.126-0.083,0.423,0.092,0.913,0.52c0.252,0.209,0.556,0.479,0.92,0.803
			c0.37,0.32,0.798,0.696,1.304,1.112c0.505,0.417,1.09,0.871,1.753,1.362c0.674,0.481,1.418,1.006,2.27,1.536
			c1.698,1.067,3.772,2.207,6.284,3.335c2.517,1.131,4.743,1.974,6.612,2.755c1.872,0.773,3.393,1.473,4.557,2.149
			C315.94,444.181,316.815,445.445,316.469,446.4z"/>
	</g>
	<g>
		<path fill="#E8E5DE" d="M675.863,311.483c-0.311,0.08-0.735-0.312-1.249-1.212c-0.26-0.449-0.532-1.028-0.843-1.734
			c-0.324-0.702-0.672-1.534-1.044-2.504c-0.384-0.965-0.828-2.056-1.284-3.293c-0.244-0.613-0.5-1.259-0.771-1.939
			c-0.132-0.341-0.267-0.691-0.406-1.05c-0.147-0.355-0.297-0.719-0.451-1.091c-0.592-1.499-1.294-3.113-2.051-4.873
			c-0.397-0.872-0.81-1.78-1.239-2.723c-0.452-0.933-0.922-1.902-1.409-2.907c-0.514-0.992-1.01-1.949-1.488-2.871
			c-0.503-0.91-0.987-1.786-1.452-2.628c-0.968-1.663-1.863-3.195-2.741-4.561c-0.215-0.345-0.426-0.682-0.631-1.011
			c-0.214-0.323-0.424-0.638-0.628-0.945c-0.409-0.616-0.798-1.201-1.166-1.755c-0.771-1.085-1.446-2.064-2.063-2.911
			c-0.626-0.842-1.168-1.57-1.628-2.19c-0.471-0.612-0.86-1.117-1.168-1.518c-0.611-0.809-0.882-1.22-0.827-1.271
			c0.055-0.051,0.433,0.261,1.173,0.959c0.368,0.351,0.835,0.791,1.383,1.344c0.536,0.565,1.167,1.229,1.896,1.996
			c0.717,0.779,1.502,1.689,2.395,2.704c0.429,0.522,0.882,1.072,1.358,1.651c0.238,0.291,0.481,0.589,0.731,0.895
			c0.24,0.313,0.486,0.633,0.737,0.961c1.023,1.302,2.073,2.773,3.203,4.387c0.544,0.821,1.11,1.675,1.698,2.563
			c0.558,0.908,1.137,1.851,1.738,2.828c0.566,0.999,1.111,1.963,1.637,2.891c0.492,0.948,0.965,1.859,1.42,2.736
			c0.861,1.778,1.632,3.425,2.254,4.969c0.159,0.384,0.314,0.76,0.466,1.127c0.139,0.372,0.274,0.735,0.406,1.089
			c0.255,0.711,0.498,1.387,0.727,2.028c0.408,1.299,0.763,2.459,1.023,3.495c0.248,1.041,0.436,1.948,0.568,2.726
			c0.12,0.781,0.169,1.436,0.182,1.962C676.34,310.858,676.173,311.404,675.863,311.483z"/>
	</g>
	<g>
		<path fill="#E8E5DE" d="M688.551,305.833c-0.075,0.012-0.231-0.456-0.488-1.432c-0.062-0.244-0.132-0.52-0.211-0.828
			c-0.088-0.306-0.185-0.643-0.292-1.014c-0.106-0.37-0.22-0.772-0.345-1.207c-0.123-0.435-0.289-0.895-0.446-1.392
			c-0.304-0.997-0.726-2.105-1.178-3.35c-0.248-0.615-0.51-1.264-0.785-1.947c-0.274-0.682-0.604-1.383-0.924-2.126
			c-0.321-0.743-0.705-1.501-1.077-2.303c-0.382-0.798-0.813-1.618-1.241-2.478c-0.901-1.703-1.885-3.535-3.017-5.474
			c-1.117-1.945-2.202-3.73-3.201-5.385c-1.007-1.655-1.933-3.178-2.781-4.571c-1.691-2.797-3.022-5.113-4.008-6.972
			c-1.976-3.718-2.581-5.623-2.131-5.895c0.45-0.272,1.856,1.148,4.233,4.623c1.19,1.738,2.624,3.984,4.316,6.791
			c0.846,1.404,1.753,2.951,2.716,4.651c0.956,1.705,1.974,3.557,3.005,5.593c1.045,2.026,1.936,3.955,2.738,5.746
			c0.38,0.908,0.76,1.77,1.091,2.612c0.322,0.846,0.654,1.645,0.924,2.428c0.269,0.783,0.547,1.521,0.77,2.24
			c0.222,0.718,0.432,1.4,0.632,2.046c0.351,1.309,0.674,2.467,0.884,3.51c0.11,0.519,0.229,0.999,0.307,1.452
			c0.077,0.453,0.147,0.872,0.213,1.256c0.062,0.385,0.125,0.734,0.166,1.053c0.034,0.32,0.064,0.606,0.091,0.86
			C688.612,305.332,688.626,305.821,688.551,305.833z"/>
	</g>
	<g>
		<path fill="#E8E5DE" d="M691.878,292.162c-0.034,0.003-0.091-0.057-0.212-0.178c-0.127-0.12-0.317-0.3-0.527-0.542
			c-0.102-0.122-0.202-0.259-0.284-0.416c-0.08-0.157-0.141-0.333-0.225-0.524c-0.167-0.381-0.338-0.829-0.511-1.346
			c-0.187-0.515-0.401-1.097-0.612-1.752c-0.251-0.648-0.468-1.377-0.772-2.166c-0.276-0.796-0.612-1.656-0.962-2.599
			c-0.184-0.47-0.375-0.958-0.574-1.466c-0.207-0.508-0.422-1.034-0.645-1.58c-0.23-0.547-0.452-1.073-0.666-1.581
			c-0.219-0.509-0.43-0.998-0.633-1.469c-0.414-0.945-0.796-1.815-1.145-2.611c-0.697-1.612-1.266-2.926-1.714-3.962
			c-0.884-2.093-1.284-3.073-1.16-3.148c0.119-0.072,0.819,0.717,2.263,2.486c0.715,0.889,1.611,2.027,2.633,3.486
			c0.514,0.727,1.049,1.542,1.616,2.441c0.272,0.457,0.554,0.934,0.848,1.428c0.284,0.502,0.565,1.031,0.859,1.579
			c0.28,0.556,0.542,1.098,0.791,1.622c0.238,0.53,0.454,1.047,0.662,1.543c0.391,1.005,0.725,1.942,0.967,2.824
			c0.269,0.87,0.417,1.694,0.568,2.425c0.112,0.743,0.198,1.406,0.234,1.995c0.023,0.592,0.021,1.105-0.002,1.541
			c-0.013,0.218-0.043,0.419-0.077,0.601c-0.041,0.183-0.104,0.349-0.173,0.497c-0.145,0.296-0.286,0.514-0.381,0.658
			C691.953,292.09,691.912,292.159,691.878,292.162z"/>
	</g>
	<g>
		<path fill="none" stroke="#E8FDEA" stroke-width="0.837" stroke-miterlimit="10" d="M399.042,170.295"/>
	</g>
	<g>
		<path fill="#E8E5DE" d="M410.416,190.931c-0.074,0.015-0.199-0.214-0.384-0.701c-0.176-0.49-0.441-1.228-0.803-2.237
			c-0.196-0.499-0.39-1.071-0.655-1.698c-0.246-0.632-0.55-1.321-0.881-2.078c-0.348-0.75-0.733-1.565-1.184-2.435
			c-0.221-0.436-0.475-0.878-0.723-1.344c-0.265-0.457-0.54-0.93-0.825-1.422c-0.594-0.968-1.164-1.853-1.719-2.653
			c-0.551-0.803-1.083-1.523-1.571-2.18c-0.248-0.326-0.485-0.637-0.71-0.932c-0.23-0.292-0.449-0.57-0.657-0.833
			c-0.406-0.535-0.797-0.988-1.112-1.415c-0.626-0.825-1.064-1.271-1.402-1.544c-0.331-0.271-0.578-0.409-0.588-0.601
			c-0.004-0.092,0.055-0.183,0.205-0.267c0.147-0.073,0.392-0.135,0.716-0.103c0.322,0.03,0.717,0.153,1.122,0.379
			c0.406,0.224,0.825,0.551,1.237,0.933c0.397,0.383,0.86,0.808,1.326,1.334c0.235,0.261,0.484,0.536,0.738,0.833
			c0.245,0.304,0.502,0.624,0.771,0.959c0.522,0.683,1.072,1.445,1.623,2.305c0.556,0.856,1.109,1.812,1.667,2.858
			c0.268,0.529,0.526,1.039,0.762,1.536c0.224,0.503,0.451,0.981,0.644,1.452c0.394,0.938,0.714,1.816,0.992,2.624
			c0.262,0.814,0.493,1.552,0.664,2.229c0.191,0.67,0.31,1.281,0.431,1.813c0.113,0.534,0.183,1.003,0.249,1.398
			c0.069,0.395,0.09,0.728,0.115,0.99C410.507,190.658,410.49,190.916,410.416,190.931z"/>
	</g>
	<g>
		<path fill="#E8E5DE" d="M420.978,328.254c-0.001,0.076-0.716,0.143-2.201,0.206c-0.743,0.025-1.677,0.057-2.812,0.095
			c-1.134,0.046-2.468,0.101-4.009,0.164c-1.539,0.082-3.286,0.175-5.247,0.28c-0.979,0.07-2.011,0.145-3.098,0.223
			c-0.543,0.039-1.1,0.079-1.671,0.119c-0.57,0.051-1.153,0.104-1.751,0.158c-2.391,0.195-4.995,0.479-7.826,0.792
			c-1.413,0.178-2.882,0.364-4.409,0.556c-1.523,0.221-3.104,0.45-4.743,0.687c-1.634,0.268-3.21,0.527-4.728,0.777
			c-1.514,0.277-2.97,0.543-4.37,0.799c-2.792,0.553-5.359,1.064-7.697,1.591c-0.585,0.127-1.157,0.25-1.716,0.371
			c-0.556,0.13-1.099,0.258-1.629,0.382c-1.06,0.246-2.067,0.48-3.022,0.701c-1.904,0.47-3.6,0.888-5.095,1.257
			c-1.491,0.386-2.785,0.71-3.889,0.972c-1.101,0.275-2.008,0.503-2.735,0.661c-1.454,0.32-2.178,0.396-2.223,0.255
			c-0.045-0.141,0.594-0.485,1.981-1.04c0.694-0.275,1.572-0.613,2.649-0.987c1.081-0.362,2.358-0.773,3.837-1.236
			c1.483-0.45,3.178-0.917,5.08-1.446c0.957-0.241,1.966-0.496,3.029-0.764c0.532-0.132,1.077-0.267,1.636-0.405
			c0.561-0.126,1.136-0.256,1.725-0.389c2.351-0.547,4.937-1.062,7.753-1.604c1.412-0.247,2.881-0.503,4.408-0.77
			c1.532-0.233,3.122-0.475,4.77-0.725c1.654-0.214,3.248-0.419,4.785-0.618c1.54-0.165,3.023-0.324,4.447-0.477
			c2.854-0.257,5.48-0.48,7.888-0.61c0.602-0.037,1.189-0.073,1.763-0.109c0.575-0.024,1.135-0.047,1.682-0.07
			c1.094-0.043,2.133-0.083,3.119-0.122c1.972-0.032,3.728-0.071,5.276-0.071c1.547,0.018,2.887,0.034,4.025,0.047
			c1.138,0.031,2.075,0.08,2.819,0.117C420.267,328.102,420.979,328.178,420.978,328.254z"/>
	</g>
	<g>
		<path fill="#E8E5DE" d="M480.065,303.144c0.026,0.149-2.034,0.654-6.523,1.575c-1.123,0.225-2.398,0.481-3.828,0.768
			c-0.716,0.14-1.471,0.288-2.266,0.443c-0.796,0.156-1.629,0.306-2.47,0.512c-0.845,0.207-1.682,0.475-2.52,0.884
			c-0.841,0.402-1.683,0.916-2.544,1.5c-1.71,1.186-3.596,2.555-5.669,3.899c-4.151,2.71-7.871,4.78-11.073,6.392
			c-1.598,0.813-3.075,1.497-4.413,2.098c-1.34,0.596-2.545,1.1-3.616,1.521c-1.07,0.423-2.006,0.764-2.806,1.041
			c-0.803,0.269-1.464,0.49-2,0.635c-1.069,0.297-1.602,0.38-1.642,0.272c-0.039-0.108,0.418-0.397,1.413-0.873
			c0.499-0.234,1.123-0.538,1.891-0.881c0.764-0.349,1.662-0.76,2.7-1.235c1.037-0.476,2.208-1.025,3.516-1.654
			c1.305-0.635,2.752-1.341,4.323-2.164c3.148-1.633,6.825-3.675,10.958-6.313c2.077-1.318,3.915-2.613,5.708-3.81
			c0.903-0.588,1.811-1.12,2.74-1.538c0.926-0.427,1.883-0.707,2.775-0.898c0.897-0.194,1.744-0.32,2.542-0.45
			c0.8-0.128,1.56-0.249,2.28-0.364c1.442-0.223,2.727-0.421,3.859-0.596C477.93,303.23,480.039,302.996,480.065,303.144z"/>
	</g>
	<g>
		<path fill="#E8E5DE" d="M546.711,385.611c-0.006,0.07-0.36,0.122-1.092,0.089c-0.731-0.033-1.842-0.16-3.326-0.497
			c-1.483-0.337-3.329-0.905-5.534-1.708c-2.202-0.805-4.794-1.779-7.817-2.93c-3.022-1.151-5.607-2.153-7.783-3.012
			c-2.172-0.85-3.967-1.582-5.301-2.339c-1.34-0.744-2.222-1.465-2.741-1.987c-0.521-0.526-0.699-0.84-0.651-0.887
			c0.134-0.142,1.082,0.91,3.748,2.186c1.33,0.643,3.102,1.282,5.305,2.085c2.196,0.807,4.792,1.78,7.814,2.931
			c6.055,2.285,10.307,4.097,13.159,4.913C545.342,385.292,546.728,385.432,546.711,385.611z"/>
	</g>
	<g>
		<path fill="#E8E5DE" d="M565.701,387.064c-0.014,0.311-1.07,0.475-3.502,0.506c-2.431,0.053-3.492-0.074-3.517-0.384
			c-0.025-0.292,1.016-0.656,3.498-0.71C564.663,386.443,565.716,386.771,565.701,387.064z"/>
	</g>
	<g>
		<path fill="#E8E5DE" d="M324.358,535.772c-0.162-0.475,0.441-1.162,1.953-2.048c0.378-0.219,0.823-0.413,1.322-0.634
			c0.501-0.209,1.056-0.459,1.682-0.66c0.626-0.2,1.313-0.406,2.061-0.616c0.751-0.196,1.569-0.351,2.447-0.531
			c0.879-0.176,1.826-0.273,2.834-0.409c1.009-0.107,2.082-0.171,3.218-0.232c2.27-0.056,4.793-0.019,7.54,0.278
			c2.745,0.294,5.719,0.783,8.887,1.535c3.169,0.749,6.528,1.768,10.053,3.068c3.517,1.304,6.701,2.677,9.601,4.021
			c2.9,1.344,5.521,2.651,7.906,3.866c2.384,1.216,4.526,2.347,6.459,3.363c1.93,1.016,3.649,1.922,5.164,2.719
			c3.03,1.593,5.262,2.721,6.728,3.474c1.47,0.743,2.167,1.123,2.138,1.193c-0.03,0.069-0.784-0.177-2.336-0.739
			c-1.548-0.572-3.891-1.47-7.071-2.754c-3.183-1.276-7.202-2.946-12.141-4.915c-4.943-1.946-10.802-4.237-17.755-6.254
			c-3.47-0.998-6.725-1.757-9.751-2.311c-3.026-0.557-5.819-0.914-8.374-1.15c-2.557-0.239-4.874-0.293-6.962-0.328
			c-1.041,0.016-2.029,0.016-2.958,0.043c-0.925,0.056-1.804,0.057-2.619,0.12c-0.819,0.054-1.583,0.105-2.293,0.152
			c-0.708,0.07-1.366,0.122-1.977,0.159c-0.611,0.037-1.16,0.112-1.67,0.138c-0.507,0.038-0.973,0.039-1.382,0.059
			C325.428,536.467,324.52,536.246,324.358,535.772z"/>
	</g>
	<g>
		<path fill="#E8E5DE" d="M552.453,472.789c0.371,0.363-0.543,1.948-3.041,4.864c-2.492,2.923-6.574,7.173-12.398,13.024
			c-5.822,5.854-10.034,9.997-12.792,12.673c-2.761,2.673-4.072,3.876-4.181,3.775c-0.11-0.102,0.991-1.499,3.452-4.452
			c2.468-2.947,6.278-7.463,11.763-13.648c5.488-6.183,9.577-10.453,12.418-13.051C550.511,473.372,552.085,472.429,552.453,472.789
			z"/>
	</g>
	<g>
		<path fill="#E8E5DE" d="M1131.751,733.769c-0.515-0.159-0.749-1.216-0.635-3.2c0.051-0.994,0.215-2.212,0.426-3.682
			c0.17-1.481,0.424-3.203,0.769-5.175c0.095-0.491,0.165-1.005,0.234-1.536c0.076-0.529,0.154-1.075,0.234-1.638
			c0.166-1.124,0.354-2.313,0.56-3.569c0.15-1.266,0.318-2.598,0.505-3.999c0.094-0.701,0.191-1.418,0.29-2.154
			c0.072-0.739,0.146-1.496,0.221-2.271c0.08-0.775,0.161-1.567,0.245-2.378c0.043-0.405,0.087-0.815,0.131-1.23
			c0.039-0.415,0.058-0.836,0.089-1.261c0.117-1.701,0.238-3.476,0.365-5.324c0.067-1.855,0.138-3.784,0.21-5.789
			c0.004-2.01,0.007-4.096,0.011-6.259c-0.073-2.166-0.144-4.255-0.212-6.267c-0.136-2.013-0.267-3.95-0.392-5.812
			c-0.185-1.86-0.364-3.645-0.534-5.357c-0.046-0.428-0.08-0.853-0.133-1.271c-0.057-0.417-0.113-0.83-0.168-1.239
			c-0.11-0.817-0.218-1.616-0.323-2.398c-0.105-0.782-0.208-1.546-0.308-2.292c-0.124-0.742-0.245-1.467-0.363-2.174
			c-0.238-1.415-0.464-2.76-0.678-4.035c-0.517-2.532-0.947-4.8-1.386-6.786c-0.464-1.982-0.866-3.697-1.208-5.155
			c-0.365-1.453-0.696-2.642-0.938-3.593c-0.493-1.899-0.709-2.821-0.637-2.844c0.072-0.024,0.425,0.851,1.115,2.693
			c0.341,0.922,0.785,2.08,1.284,3.5c0.474,1.43,1.032,3.111,1.676,5.053c0.618,1.952,1.252,4.188,1.998,6.694
			c0.328,1.265,0.674,2.599,1.039,4.003c0.181,0.704,0.367,1.425,0.557,2.164c0.166,0.745,0.336,1.507,0.509,2.288
			c0.173,0.781,0.351,1.581,0.532,2.399c0.091,0.409,0.182,0.823,0.275,1.242c0.089,0.419,0.16,0.846,0.242,1.276
			c0.313,1.723,0.658,3.519,0.98,5.398c0.272,1.888,0.556,3.853,0.85,5.894c0.214,2.055,0.436,4.187,0.667,6.398
			c0.136,2.222,0.267,4.365,0.393,6.431c0.034,2.072,0.068,4.065,0.099,5.982c-0.026,1.917-0.101,3.758-0.157,5.524
			c-0.018,0.441-0.025,0.879-0.053,1.31c-0.034,0.431-0.068,0.857-0.102,1.279c-0.07,0.843-0.139,1.668-0.207,2.473
			c-0.072,0.806-0.141,1.592-0.21,2.361c-0.104,0.765-0.206,1.511-0.305,2.239c-0.205,1.455-0.41,2.836-0.613,4.144
			c-0.259,1.299-0.517,2.525-0.768,3.678c-0.129,0.576-0.253,1.134-0.374,1.676c-0.12,0.541-0.244,1.063-0.397,1.562
			c-0.576,2-1.119,3.717-1.626,5.16c-0.547,1.432-1.096,2.581-1.566,3.479C1133.012,733.171,1132.266,733.928,1131.751,733.769z"/>
	</g>
	<g>
		<path fill="#F7D7A6" d="M827.237,147.485c1.156,1.716-2.862,6.635-13.334,14.651c-5.232,4.013-12.073,8.807-20.638,14.432
			c-8.564,5.628-18.854,12.085-30.937,19.497c-12.083,7.412-22.498,13.683-31.289,18.975c-8.789,5.294-15.953,9.608-21.598,13.009
			c-5.628,3.424-9.743,5.928-12.451,7.575c-1.355,0.821-2.358,1.429-3.023,1.832c-0.669,0.396-1.005,0.578-1.026,0.546
			s0.273-0.274,0.891-0.746c0.623-0.465,1.563-1.167,2.832-2.115c2.543-1.892,6.408-4.766,11.694-8.699
			c5.27-3.957,11.958-8.978,20.162-15.138c8.204-6.162,17.925-13.464,29.329-21.882c11.404-8.418,21.251-15.534,29.681-21.36
			c8.428-5.829,15.439-10.371,21.122-13.715C820.012,147.648,826.08,145.769,827.237,147.485z"/>
	</g>
	<g>
		<path fill="#F7D7A6" d="M758.307,120.084c1.157,0.956,1.393,2.91,0.509,5.84c-0.883,2.931-2.889,6.835-6.184,11.722
			c-3.292,4.889-7.875,10.757-13.846,17.669c-5.967,6.915-13.324,14.872-22.064,24.022s-16.343,16.903-22.755,23.45
			c-6.416,6.544-11.643,11.88-15.731,16.11c-4.091,4.228-7.045,7.349-8.98,9.41c-0.969,1.028-1.686,1.79-2.162,2.295
			c-0.479,0.501-0.724,0.738-0.753,0.714c-0.029-0.024,0.158-0.309,0.56-0.874c0.406-0.562,1.019-1.41,1.847-2.555
			c1.66-2.288,4.17-5.776,7.555-10.588c3.387-4.81,7.645-10.947,12.867-18.478c5.226-7.528,11.412-16.453,18.756-26.757
			c7.344-10.304,13.777-19.025,19.448-26.185c5.667-7.163,10.569-12.767,14.752-16.92c4.18-4.154,7.638-6.859,10.351-8.277
			C755.186,119.263,757.15,119.128,758.307,120.084z"/>
	</g>
	<g>
		<path fill="#F7D7A6" d="M774.123,231.106c0.055,0.145-2.149,1.116-6.97,3.08c-4.825,1.953-12.242,4.956-22.621,9.159
			c-10.35,4.271-17.748,7.324-22.559,9.309c-4.816,1.975-7.069,2.827-7.131,2.684c-0.03-0.069,0.492-0.376,1.613-0.938
			c1.12-0.564,2.842-1.377,5.212-2.457c4.742-2.154,12.08-5.367,22.452-9.612c10.375-4.236,17.863-7.083,22.756-8.867
			c2.448-0.889,4.246-1.515,5.44-1.897C773.509,231.182,774.096,231.035,774.123,231.106z"/>
	</g>
	<g>
		<path fill="#F7D7A6" d="M861.106,201.928c0.477,1.45-1.19,3.424-5.525,5.478c-2.166,1.032-4.998,2.089-8.543,3.17
			c-3.544,1.083-7.803,2.188-12.804,3.374c-5.001,1.186-9.313,2.13-12.953,2.922c-3.641,0.788-6.609,1.431-8.948,1.937
			c-4.677,1.013-6.817,1.548-6.862,1.41c-0.045-0.138,1.994-0.977,6.36-2.937c2.183-0.98,4.953-2.224,8.352-3.75
			c3.4-1.523,7.431-3.321,12.16-5.334c4.729-2.013,8.813-3.651,12.308-4.882c3.495-1.233,6.402-2.062,8.757-2.517
			C858.116,199.878,860.629,200.478,861.106,201.928z"/>
	</g>
	<g>
		<path fill="#F7D7A6" d="M865.92,279.676c0.14,1.529-4.272,3.314-14.047,4.773c-4.887,0.731-11.114,1.388-18.774,1.933
			c-7.66,0.55-16.754,0.991-27.369,1.343c-10.615,0.353-19.721,0.533-27.405,0.662c-7.683,0.107-13.946,0.194-18.881,0.262
			c-4.933,0.056-8.54,0.098-10.914,0.125c-2.373,0.02-3.514,0.015-3.518-0.06c-0.004-0.075,1.128-0.216,3.486-0.478
			c2.359-0.261,5.943-0.657,10.845-1.2c4.901-0.554,11.119-1.276,18.744-2.183c7.622-0.902,16.654-1.97,27.188-3.216
			c10.532-1.228,19.562-2.232,27.193-2.938c7.632-0.706,13.865-1.121,18.796-1.242C861.124,277.201,865.78,278.137,865.92,279.676z"
			/>
	</g>
	<g>
		<path fill="#F7D7A6" d="M790.388,330.292c-0.219,1.624-2.154,2.829-6.006,2.952c-1.927,0.067-4.334-0.13-7.254-0.615
			c-2.921-0.482-6.355-1.253-10.344-2.266c-3.99-1.014-7.399-1.964-10.276-2.769c-2.876-0.808-5.221-1.467-7.069-1.986
			c-3.696-1.035-5.415-1.43-5.395-1.574c0.019-0.144,1.782-0.069,5.619-0.086c1.92-0.011,4.355-0.024,7.343-0.04
			c2.988-0.014,6.527-0.025,10.643,0.055c4.116,0.081,7.631,0.248,10.575,0.559c2.944,0.308,5.317,0.756,7.157,1.332
			C789.062,326.993,790.608,328.668,790.388,330.292z"/>
	</g>
</g>
</svg>
